<?xml version="1.0" encoding="UTF-8"?>
<svg id="a" data-name="Layer 1" xmlns="http://www.w3.org/2000/svg" xmlns:xlink="http://www.w3.org/1999/xlink" viewBox="0 0 259.97 68.7">
  <defs>
    <style>
      .c {
        fill: url(#b);
      }
    </style>
    <linearGradient id="b" x1="59.99" y1="109.4" x2="204.87" y2="-35.49" gradientUnits="userSpaceOnUse">
      <stop offset="0" stop-color="#e105ff"/>
      <stop offset="1" stop-color="#1605fb"/>
    </linearGradient>
  </defs>
  <path class="c" d="m116.73,24.54c-3.81,0-6.69,1.99-7.8,4.81h-.47v-2.88c0-.68-.55-1.23-1.23-1.23h-5.76c-.68,0-1.23.55-1.23,1.23v37.44c0,.68.55,1.23,1.23,1.23h5.76c.68,0,1.23-.55,1.23-1.23v-13.44h.47c1.11,2.82,3.99,4.81,7.8,4.81,5.51,0,9.27-3.81,9.27-9.56v-11.62c0-5.75-3.75-9.56-9.27-9.56Zm1.06,18.71c0,2.64-1.82,4.34-4.58,4.34s-4.75-1.88-4.75-4.28v-6.81c0-2.41,1.88-4.28,4.75-4.28s4.58,1.7,4.58,4.34v6.69Zm23.52-18.71c-7.74,0-12.91,4.69-12.91,11.85v7.04c0,7.16,5.16,11.85,12.91,11.85s12.85-4.69,12.85-11.85v-7.04c0-7.16-5.1-11.85-12.85-11.85Zm4.63,18.83c0,2.64-1.82,4.34-4.63,4.34s-4.69-1.7-4.69-4.34v-6.92c0-2.64,1.88-4.34,4.69-4.34s4.63,1.7,4.63,4.34v6.92Zm37.03,10.42c.2.35-.05.79-.45.79h-7.5c-.53,0-1.01-.29-1.25-.76l-5.36-10.33h-3.7v9.86c0,.68-.55,1.23-1.23,1.23h-5.76c-.68,0-1.23-.55-1.23-1.23V14.74c0-.68.55-1.23,1.23-1.23h5.76c.68,0,1.23.55,1.23,1.23v21.01h3.46l5.69-9.8c.25-.43.71-.7,1.22-.7h7.25c.42,0,.67.46.44.81l-8.44,12.86,8.64,14.88Zm56.19-26.02v.06c0,.68-.55,1.23-1.23,1.23h-1.29c-.65,0-1.17-.52-1.17-1.17h0c0-5.99-4.22-9.86-10.56-9.86s-10.62,3.87-10.62,9.86v14.08c0,5.98,4.22,9.86,10.62,9.86s10.56-3.87,10.56-9.86h0c0-.65.52-1.17,1.17-1.17h1.29c.68,0,1.23.55,1.23,1.23v.06c0,7.98-5.69,13.2-14.26,13.2s-14.31-5.22-14.31-13.2v-14.31c0-7.98,5.69-13.2,14.31-13.2s14.26,5.22,14.26,13.2Zm11.09-9.03v32.38h4.87c.68,0,1.23.55,1.23,1.23v1c0,.68-.55,1.23-1.23,1.23h-13.5c-.68,0-1.23-.55-1.23-1.23v-1c0-.68.55-1.23,1.23-1.23h4.93V18.73h-4.93c-.68,0-1.23-.55-1.23-1.23v-1c0-.68.55-1.23,1.23-1.23h13.5c.68,0,1.23.55,1.23,1.23v1c0,.68-.55,1.23-1.23,1.23h-4.87ZM3.95,46.89h7.9v7.9h-5.45c-1.36,0-2.46-1.1-2.46-2.46v-5.45Zm39.89-3.95c0,6.55-5.31,11.86-11.86,11.86h-12.23v-7.9h12.23c2.18,0,3.95-1.77,3.95-3.95s-1.77-3.95-3.95-3.95h0s-4.83,0-4.83,0h-7.39v7.9h-7.9v-7.9h7.9v-7.9h7.39c2.18,0,3.95-1.77,3.95-3.95s-1.77-3.95-3.95-3.95h-7.39v7.9h-7.9v-13.35c0-1.36,1.1-2.46,2.46-2.46h12.84c6.55,0,11.86,5.31,11.86,11.86,0,1.95-.48,3.79-1.31,5.42,3.66,2.02,6.14,5.91,6.14,10.39Zm150.8-18.4c-7.8,0-12.91,4.69-12.91,11.85v7.04c0,7.16,5.16,11.85,13.08,11.85s12.67-3.87,12.67-9.68v-.18h-6.87c-.87,0-1.27.69-1.64,1.38h0c-.62,1.14-2.15,1.85-4.16,1.85-2.93,0-4.87-1.76-4.87-4.4v-1.64h15.08c1.36,0,2.46-1.1,2.46-2.46v-3.64c0-7.22-5.1-11.97-12.85-11.97Zm4.63,12.44h-9.33v-1.47c0-2.64,1.88-4.34,4.69-4.34s4.63,1.7,4.63,4.34v1.47ZM58.71,24.54c-7.8,0-12.91,4.69-12.91,11.85v7.04c0,7.16,5.16,11.85,13.08,11.85,7.3,0,12.3-3.6,12.65-9.07.01-.62-.3-.79-.79-.79h-6.06c-.87,0-1.27.69-1.64,1.38h0c-.62,1.14-2.15,1.85-4.16,1.85-2.93,0-4.87-1.76-4.87-4.4v-1.64h15.08c1.36,0,2.46-1.1,2.46-2.46v-3.64c0-7.22-5.1-11.97-12.85-11.97Zm4.63,12.44h-9.33v-1.47c0-2.64,1.88-4.34,4.69-4.34s4.63,1.7,4.63,4.34v1.47Zm34.61,8.74c0,5.98-4.69,9.56-12.14,9.56s-12.3-3.75-12.38-9.14c.01-.56.32-.72.8-.72h5.78c1.22,0,1.61.93,1.71,1.26,0,.02.01.05.02.07,0,.02,0,.04,0,.04,0,0,0,0,0,0,.38,1.36,1.85,2.26,4,2.26,2.41,0,3.87-1,3.87-2.52,0-4.81-15.9-1.82-15.9-12.79,0-5.98,4.69-9.21,11.67-9.21s11.85,3.49,11.96,8.54c-.01.57-.32.73-.8.73h-6.34c-.98,0-1.02-.62-1.02-.62h0c-.13-1.46-1.56-2.43-3.68-2.43s-3.52.94-3.52,2.35c0,4.75,15.96,1.53,15.96,12.61Z"/>
</svg>