<?xml version="1.0" encoding="UTF-8" standalone="no"?>
<!-- Created with Inkscape (http://www.inkscape.org/) -->

<svg
   width="21.96253mm"
   height="18.520834mm"
   viewBox="0 0 21.96253 18.520834"
   version="1.1"
   id="svg154"
   inkscape:version="1.1.2 (0a00cf5339, 2022-02-04)"
   sodipodi:docname="block_a.svg"
   xmlns:inkscape="http://www.inkscape.org/namespaces/inkscape"
   xmlns:sodipodi="http://sodipodi.sourceforge.net/DTD/sodipodi-0.dtd"
   xmlns="http://www.w3.org/2000/svg"
   xmlns:svg="http://www.w3.org/2000/svg">
  <sodipodi:namedview
     id="namedview156"
     pagecolor="#ffffff"
     bordercolor="#666666"
     borderopacity="1.0"
     inkscape:pageshadow="2"
     inkscape:pageopacity="0.0"
     inkscape:pagecheckerboard="0"
     inkscape:document-units="mm"
     showgrid="false"
     fit-margin-top="0"
     fit-margin-left="0"
     fit-margin-right="0"
     fit-margin-bottom="0"
     inkscape:zoom="6.9338243"
     inkscape:cx="38.506889"
     inkscape:cy="15.071048"
     inkscape:window-width="1920"
     inkscape:window-height="1005"
     inkscape:window-x="0"
     inkscape:window-y="0"
     inkscape:window-maximized="1"
     inkscape:current-layer="layer1" />
  <defs
     id="defs151">
    <clipPath
       id="clip-path"
       transform="translate(-1.53 -0.83)">
      <rect
         class="cls-1"
         x="1.53"
         y="0.82999998"
         width="420.22"
         height="71.690002"
         id="rect4" />
    </clipPath>
    <clipPath
       id="clipPath48"
       transform="translate(-1.53 -0.83)">
      <rect
         class="cls-1"
         x="1.53"
         y="0.82999998"
         width="420.22"
         height="71.690002"
         id="rect46" />
    </clipPath>
  </defs>
  <g
     inkscape:label="Layer 1"
     inkscape:groupmode="layer"
     id="layer1"
     transform="translate(-89.01645,-127.25795)">
    <polygon
       class="cls-2"
       points="61.09,22.74 61.09,0.01 14.73,0 14.72,22.71 17.07,22.71 7.81,47.29 0,47.28 0,70 75.83,70 75.83,47.25 67.96,47.24 58.78,22.73 "
       id="polygon11"
       style="fill:#ffffff"
       transform="matrix(0.26458333,0,0,0.26458333,89.01645,127.25795)" />
    <g
       class="cls-3"
       clip-path="url(#clip-path)"
       id="g15"
       transform="matrix(0.26458333,0,0,0.26458333,89.01645,127.25795)"
       style="fill:#bd2036;fill-opacity:1">
      <path
         class="cls-4"
         d="m 39.43,9.32 16.24,42.11 c 0,0 2.08,5.13 5.46,5.13 H 49.31 c 0,0 0.59,0.09 1.18,-0.9 a 2,2 0 0 0 0,-1.41 l -3.65,-9.4 H 32 l -3.66,9.4 a 2,2 0 0 0 0.06,1.41 c 0.59,1 1.18,0.9 1.18,0.9 H 17.75 c 3.38,0 5.47,-5.13 5.47,-5.13 z"
         transform="translate(-1.53,-0.83)"
         id="path13"
         style="fill:#bd2036;fill-opacity:1" />
    </g>
    <polygon
       class="cls-5"
       points="41.81,67.26 73.1,67.26 73.1,50 66.08,50.02 54.81,19.99 58.35,19.99 58.35,2.74 37.91,2.74 17.48,2.74 17.48,19.99 21.02,19.99 9.75,49.98 2.73,50 2.73,67.26 34.02,67.26 34.02,55.69 28.45,55.69 28.45,61.59 8.63,61.59 8.63,55.52 13.36,55.52 29.35,14.29 23.27,14.29 23.27,8.44 37.91,8.44 52.56,8.44 52.56,14.29 46.48,14.29 62.47,55.52 67.2,55.52 67.2,61.59 47.38,61.59 47.38,55.69 41.81,55.69 "
       id="polygon17"
       style="fill:#00275b"
       transform="matrix(0.26458333,0,0,0.26458333,89.01645,127.25795)" />
    <g
       class="cls-3"
       clip-path="url(#clip-path)"
       id="g21"
       transform="matrix(0.26458333,0,0,0.26458333,89.01645,127.25795)"
       style="fill:#00275b;fill-opacity:1">
      <path
         class="cls-5"
         d="m 83.68,63.08 a 2.89,2.89 0 0 1 0,4.11 3.07,3.07 0 0 1 -4.2,0 2.82,2.82 0 0 1 -0.85,-2.06 2.76,2.76 0 0 1 0.86,-2 3,3 0 0 1 4.19,0 m -0.42,0.35 a 2.37,2.37 0 0 0 -3.36,0 2.48,2.48 0 0 0 0,3.41 2.39,2.39 0 0 0 3.36,0 2.45,2.45 0 0 0 0,-3.41 m -3,0 h 1.34 a 1.34,1.34 0 0 1 0.85,0.24 0.79,0.79 0 0 1 0.31,0.67 0.88,0.88 0 0 1 -0.31,0.72 1.1,1.1 0 0 1 -0.59,0.25 l 1,1.46 H 82.25 L 81.39,65.38 H 80.83 V 66.8 H 80.3 Z m 0.53,1.46 h 0.71 a 0.85,0.85 0 0 0 0.54,-0.14 0.45,0.45 0 0 0 0.17,-0.41 0.4,0.4 0 0 0 -0.17,-0.37 1,1 0 0 0 -0.54,-0.11 h -0.71 z"
         transform="translate(-1.53,-0.83)"
         id="path19"
         style="fill:#00275b;fill-opacity:1" />
    </g>
    <polygon
       class="cls-2"
       points="38,24.78 32.19,39.55 37.89,39.55 43.61,39.55 "
       id="polygon23"
       style="fill:#ffffff"
       transform="matrix(0.26458333,0,0,0.26458333,89.01645,127.25795)" />
  </g>
</svg>
