<?xml version="1.0" encoding="UTF-8" standalone="no"?>
<svg
   height="512"
   style="clip-rule:evenodd;fill-rule:evenodd;stroke-linejoin:round;stroke-miterlimit:2"
   version="1.1"
   viewBox="0 0 512 512"
   width="512"
   xml:space="preserve"
   id="svg8"
   sodipodi:docname="facebook.svg"
   inkscape:version="1.1.2 (0a00cf5339, 2022-02-04)"
   xmlns:inkscape="http://www.inkscape.org/namespaces/inkscape"
   xmlns:sodipodi="http://sodipodi.sourceforge.net/DTD/sodipodi-0.dtd"
   xmlns="http://www.w3.org/2000/svg"
   xmlns:svg="http://www.w3.org/2000/svg"><defs
     id="defs12" /><sodipodi:namedview
     id="namedview10"
     pagecolor="#ffffff"
     bordercolor="#666666"
     borderopacity="1.0"
     inkscape:pageshadow="2"
     inkscape:pageopacity="0.0"
     inkscape:pagecheckerboard="0"
     showgrid="false"
     fit-margin-top="0"
     fit-margin-left="0"
     fit-margin-right="0"
     fit-margin-bottom="0"
     inkscape:zoom="1.3320312"
     inkscape:cx="249.99413"
     inkscape:cy="255.62463"
     inkscape:window-width="1920"
     inkscape:window-height="1005"
     inkscape:window-x="0"
     inkscape:window-y="0"
     inkscape:window-maximized="1"
     inkscape:current-layer="svg8" /><g
     id="g6"><path
       d="M 512,256 C 512,114.615 397.385,0 256,0 114.615,0 0,114.615 0,256 0,383.777 93.616,489.685 216,508.89 V 330 h -65 v -74 h 65 v -56.4 c 0,-64.16 38.219,-99.6 96.695,-99.6 28.009,0 57.305,5 57.305,5 v 63 H 337.719 C 305.918,168 296,187.733 296,207.978 V 256 h 71 l -11.35,74 H 296 V 508.89 C 418.385,489.685 512,383.777 512,256 Z"
       style="fill:#1877f2;fill-rule:nonzero"
       id="path2" /><path
       d="M 355.65,330 367,256 H 296 V 207.978 C 296,187.733 305.917,168 337.719,168 H 370 v -63 c 0,0 -29.297,-5 -57.305,-5 C 254.219,100 216,135.44 216,199.6 V 256 h -65 v 74 h 65 v 178.89 c 13.033,2.045 26.392,3.11 40,3.11 13.608,0 26.966,-1.065 40,-3.11 V 330 Z"
       style="fill:#ffffff;fill-rule:nonzero"
       id="path4" /></g></svg>
