<?xml version="1.0" encoding="UTF-8"?>
<svg id="Layer_1" data-name="Layer 1" xmlns="http://www.w3.org/2000/svg" viewBox="0 0 1659.2 723.79">
  <defs>
    <style>
      .cls-1 {
        fill: #313d59;
      }

      .cls-2 {
        fill: #87b9c7;
      }
    </style>
  </defs>
  <path class="cls-1" d="M398.51,475.67c-.01,1.67.93,3.21,2.44,4.01l52.06,26.34c.26.11.51.23.76.35l64.05,33.61c1.33.68,2.91.7,4.26.06l112.62-54.44c3.42-1.64,3.49-6.34.11-8.06l-53.83-24.26c-1.33-.68-2.91-.7-4.26-.06l-64.13,31.2c-3.95,1.95-8.65,1.91-12.55-.09l-94.92-47.57c-3.1-1.58-6.84.58-6.86,3.97l.25,34.94Z"/>
  <path class="cls-1" d="M524.28,563.44c-3.93,1.87-8.53,1.81-12.4-.17l-65.15-32.44c-.34-.14-.68-.3-1.01-.48l-41.21-21.68c-3.1-1.57-6.82.59-6.85,3.98l.42,38.23c-.01,1.7.96,3.26,2.51,4.05l134.11,68.34c1.32.67,2.9.69,4.24.05l114.26-54.17c3.42-1.64,3.49-6.34.11-8.06l-58.52-28.48c-1.33-.68-2.91-.7-4.26-.06l-66.26,30.88Z"/>
  <path class="cls-2" d="M373.18,552.49l.23-112.02c-.02-3.49-3.95-5.65-7.06-3.87l-94.62,56.54c-1.36.78-2.22,2.16-2.29,3.68l-9.65,121.83c-.18,3.7,4.04,6.04,7.24,4l104.04-66.35c1.33-.84,2.12-2.28,2.11-3.82Z"/>
  <path class="cls-1" d="M503.01,457.74l-42.53-21.47c-1.55-.79-2.52-2.35-2.5-4.05l-2.05-44.08c.01-1.49-.15-2.5,1.13-3.33l47.6-29.14c1.44-.94,3.3-1.03,4.83-.23l109.14,43.94c3.38,1.76,3.26,6.49-.2,8.08l-111.22,50.35c-1.33.61-2.88.58-4.19-.08Z"/>
  <path class="cls-2" d="M246.98,489.51c.22-4.32,2.61-8.27,6.4-10.55l98.39-60.69c3.1-1.87,2.89-6.31-.38-7.89l-40.1-18.55c-1.49-.72-3.26-.62-4.65.26l-114.6,71.29c-1.26.79-2.05,2.12-2.12,3.58l-8.82,121.01c-.18,3.69,4.03,6.03,7.23,4.01l51.62-30.9c1.26-.79,2.05-2.12,2.12-3.58l4.91-67.99Z"/>
  <path class="cls-2" d="M106.42,442.19l-6.41,119.09c-.18,3.69,4.03,6.03,7.23,4.01l54-32.66c1.26-.79,2.05-2.13,2.12-3.58l5.93-71.13c.21-4.23,2.51-8.1,6.17-10.42l100.64-65.09c3.02-1.9,2.77-6.25-.44-7.83l-34.88-15.82c-1.49-.73-3.27-.64-4.67.24l-127.56,79.61c-1.26.79-2.05,2.13-2.12,3.58Z"/>
  <path class="cls-1" d="M338.87,378.02l82.89,39.66c2.91,1.48,6.41-.56,6.4-3.75l.42-90.45c0-3.35-3.83-5.37-6.74-3.55l-83.31,50.8c-2.81,1.75-2.63,5.79.33,7.3Z"/>
  <path class="cls-2" d="M307.86,360.51l53.2-30.9c1.34-.9,2.14-2.43,2.13-4.08l-3.73-45.03c-.01-1.63-.82-3.15-2.15-4.03l-106.85-65.66c-3.13-2.08-7.24.26-7.21,4.1l1.03,115.97c.02,1.78.98,3.41,2.51,4.24l56.35,25.61c1.5.81,3.3.72,4.72-.23Z"/>
  <path class="cls-2" d="M312.39,219.29c.08,1.55.88,2.96,2.14,3.8l62.64,39.59c3.63,2.45,5.91,6.53,6.15,11l1.38,32.43c.2,3.72,4.24,5.83,7.25,3.77l32.35-20.36c1.32-.9,2.11-2.43,2.1-4.07l-2.43-56.35c-.01-1.63-.82-3.15-2.15-4.03l-105.15-65.06c-3.21-2.13-7.41.39-7.2,4.32l2.91,54.95Z"/>
  <path class="cls-2" d="M491.93,340.05l-2.34-168.43c.02-1.63-.77-3.16-2.08-4.07l-102.59-66.74c-3.17-2.18-7.41.27-7.27,4.2l2.21,62.04c.06,1.55.83,2.98,2.08,3.84l61.42,42.24c3.64,2.5,5.89,6.66,6.05,11.17l5.14,132.94c-.02,3.99,4.39,6.27,7.48,3.88l28.03-17.25c1.17-.9,1.86-2.32,1.88-3.82Z"/>
  <path class="cls-2" d="M628.78,247.74c0-36.07,22.65-57.46,51.15-57.46s51.38,21.39,51.38,57.46v63.68c0,5.72-4.2,10.2-9.35,10.2s-9.34-4.48-9.34-10.2v-64.18c0-25.37-14.48-38.56-32.69-38.56s-32.46,13.18-32.46,38.56v64.18c0,5.72-4.2,10.2-9.35,10.2s-9.34-4.48-9.34-10.2v-63.68Z"/>
  <path class="cls-2" d="M757.46,192.77c1.87-30.35,21.96-49.26,49.29-49.26,4.9,0,8.64,4.23,8.64,9.2,0,5.22-3.97,9.2-8.64,9.2-17.28,0-28.73,10.95-30.37,30.85h30.37c4.9,0,8.64,3.98,8.64,9.2s-3.74,9.2-8.64,9.2h-30.6v100.25c0,5.72-4.2,10.2-9.35,10.2s-9.34-4.48-9.34-10.2v-100.25h-12.38c-4.91,0-8.64-4.23-8.64-9.2,0-5.22,3.73-9.2,8.64-9.2h12.38Z"/>
  <path class="cls-2" d="M808.38,256.2c0-36.81,26.62-65.92,61.66-65.92s61.43,29.11,61.43,65.92-26.39,65.92-61.43,65.92-61.66-29.11-61.66-65.92ZM912.55,256.2c0-26.37-18.45-47.51-42.51-47.51s-42.74,21.15-42.74,47.51,18.69,47.51,42.74,47.51,42.51-21.39,42.51-47.51Z"/>
  <path class="cls-2" d="M946.18,244.01c0-32.09,19.15-53.73,48.11-53.73,4.67,0,8.64,3.98,8.64,9.2s-3.96,9.2-8.64,9.2c-17.28,0-29.42,12.19-29.42,35.32v67.42c0,5.72-4.2,10.2-9.35,10.2s-9.34-4.48-9.34-10.2v-67.42Z"/>
  <path class="cls-2" d="M1006.67,241.71c0-31.1,19.15-48.26,42.98-48.26,15.18,0,27.1,5.97,33.87,18.16,6.54-12.19,19.61-18.16,33.63-18.16,24.06,0,43.21,17.16,43.21,48.26v69.71c0,5.72-4.2,10.2-9.34,10.2s-9.34-4.48-9.34-10.2v-69.97c0-19.65-10.74-29.6-24.53-29.6s-24.29,9.95-24.29,29.6v69.97c0,5.72-4.2,10.2-9.34,10.2s-9.35-4.48-9.35-10.2v-69.97c0-19.65-10.74-29.6-24.52-29.6s-24.29,9.95-24.29,29.6v69.97c0,5.72-4.2,10.2-9.35,10.2s-9.34-4.48-9.34-10.2v-69.71Z"/>
  <path class="cls-2" d="M1279.01,302.22c-10.98,12.43-26.15,19.9-43.68,19.9-34.33,0-60.48-29.11-60.48-65.92s26.15-65.92,60.48-65.92c17.52,0,32.7,7.71,43.68,19.9v-9.45c0-5.48,4.2-9.95,9.34-9.95s9.35,4.47,9.35,9.95v110.7c0,5.72-3.97,10.2-9.35,10.2s-9.34-4.48-9.34-10.2v-9.2ZM1279.01,258.19v-3.98c-.93-25.87-19.38-45.52-42.51-45.52s-42.74,20.65-42.74,47.51,18.92,47.51,42.74,47.51,41.57-19.65,42.51-45.52Z"/>
  <path class="cls-2" d="M1305.4,201.97c0-5.22,3.97-9.2,8.65-9.2h12.38v-22.39c0-5.72,4.2-9.95,9.34-9.95s9.34,4.23,9.34,9.95v22.39h30.83c4.67,0,8.65,3.98,8.65,9.2s-3.97,9.2-8.65,9.2h-30.83v56.22c0,23.14,12.38,35.57,30.83,35.57,4.67,0,8.65,4.23,8.65,9.2,0,5.22-3.97,9.45-8.65,9.45-28.96,0-49.51-20.89-49.51-54.23v-56.22h-12.38c-4.67,0-8.65-4.23-8.65-9.2Z"/>
  <path class="cls-2" d="M1396.25,200.73c0-5.48,3.97-9.95,9.34-9.95s9.35,4.47,9.35,9.95v110.7c0,5.72-4.2,10.2-9.35,10.2s-9.34-4.48-9.34-10.2v-110.7Z"/>
  <path class="cls-2" d="M580.34,200.73c0-5.48,3.97-9.95,9.34-9.95s9.35,4.47,9.35,9.95v110.7c0,5.72-4.2,10.2-9.35,10.2s-9.34-4.48-9.34-10.2v-110.7Z"/>
  <path class="cls-2" d="M1429.42,256.2c0-36.81,26.62-65.92,61.66-65.92,19.38,0,35.73,8.95,45.54,21.39,1.64,1.99,2.8,4.73,2.8,6.97,0,5.47-3.97,9.2-9.34,9.2-3.5,0-5.38-1.99-7.94-4.23-7.23-8.71-17.75-14.92-31.06-14.92-23.83,0-42.74,20.89-42.74,47.51s18.92,47.51,42.74,47.51c13.08,0,23.83-6.22,31.06-14.92,2.34-2.24,4.44-4.48,7.94-4.48,5.37,0,9.34,3.98,9.34,9.45,0,1.99-1.16,4.73-2.8,6.72-9.81,12.44-25.92,21.64-45.54,21.64-35.03,0-61.66-29.11-61.66-65.92Z"/>
  <path class="cls-1" d="M1388.15,147.79l33.3,16.5c1.17.62,2.56-.26,2.55-1.61l-.18-38.37c-.01-1.42-1.55-2.26-2.71-1.48l-33.12,21.87c-1.12.75-1.03,2.47.16,3.09Z"/>
  <path class="cls-1" d="M716.02,486.7c0-61.05,55.04-119.83,124.45-119.83,30.32,0,53.05,11.76,66.62,25.03,3.19,3.03,4.78,6.45,4.78,10.62,0,3.79-1.99,8.72-6.38,12.51l-86.96,80.01c-3.59,3.41-9.17,5.31-13.56,5.31-8.78,0-13.16-6.44-13.16-12.13,0-4.93,1.99-9.86,5.58-13.27l74.6-68.26c-8.38-7.58-21.14-11.76-34.3-11.76-49.46,0-89.35,43.61-89.35,87.6,0,32.61,25.13,57.26,60.63,57.26,21.94,0,43.48-9.48,59.03-23.89,4.39-3.41,9.18-5.69,13.96-5.69,8.78,0,13.16,6.07,13.16,12.13,0,5.31-2.79,10.62-7.17,14.03-19.95,18.2-49.46,31.48-82.17,31.48-52.26,0-89.75-35.27-89.75-81.15Z"/>
  <path class="cls-1" d="M1363.35,488.37c0-61.05,55.04-119.83,124.45-119.83,30.32,0,53.05,11.76,66.62,25.03,3.19,3.03,4.78,6.45,4.78,10.62,0,3.79-1.99,8.72-6.38,12.51l-86.96,80.01c-3.59,3.41-9.17,5.31-13.56,5.31-8.78,0-13.16-6.44-13.16-12.13,0-4.93,1.99-9.86,5.58-13.27l74.6-68.26c-8.38-7.58-21.14-11.76-34.3-11.76-49.46,0-89.35,43.61-89.35,87.6,0,32.61,25.13,57.26,60.63,57.26,21.94,0,43.48-9.48,59.03-23.89,4.39-3.41,9.18-5.69,13.96-5.69,8.78,0,13.16,6.07,13.16,12.13,0,5.31-2.79,10.62-7.18,14.03-19.94,18.2-49.45,31.48-82.16,31.48-52.26,0-89.75-35.27-89.75-81.15Z"/>
  <path class="cls-1" d="M1346.45,466.91c-2.17-2.68-5.55-4.15-9.5-4.15h-74.8c-8.02,0-16.67,6.22-16.67,16.26,0,5.47,4.12,11,12.01,11h54.6c-16.11,33.68-48.89,55.21-84.58,55.21s-61.04-24.04-61.04-58.46c0-42.7,38.46-90.29,93.64-90.29,22.44,0,40.75,9.29,51.58,26.16l.22.3c3.08,3.59,7.33,5.64,11.65,5.64,9.03,0,16.38-7.17,16.38-15.98,0-2.69-.89-5.17-2.58-7.16-15.29-23.03-43.5-36.77-75.51-36.77-67.33,0-126.4,56.61-126.4,121.14,0,48.39,37.98,83.51,90.31,83.51,64.9,0,111.72-49.11,122.85-95.4.9-4.27.13-8.18-2.16-11Z"/>
  <path class="cls-1" d="M1030.57,403.25c38.97,0,61.58,18.22,61.58,50.89,0,39.42-39.59,83.92-96.88,85.25l-54.78-.09,25.09-94.17c2.2-9.37-4.91-18.35-14.54-18.35h0c-6.94,0-12.96,4.78-14.54,11.53l-29.21,111.99c-.65,3.36.18,6.56,2.33,9.04,2.41,2.77,6.24,4.36,10.54,4.36.47,0,.94-.03,1.38-.06.35.06.71.06,1.09.06h67.35c71.21,0,133.7-52.46,133.7-112.21,0-44.69-40.01-77.12-95.14-77.12h-65.35c-8.07,0-15.81,5.45-17.63,12.39h0c-1.99,8.51,4.47,16.65,13.21,16.65h13.61l58.2-.17Z"/>
</svg>