<?xml version="1.0" encoding="UTF-8" standalone="no"?>
<svg
   height="512"
   style="clip-rule:evenodd;fill-rule:evenodd;stroke-linejoin:round;stroke-miterlimit:2"
   version="1.1"
   viewBox="0 0 512 512"
   width="512"
   xml:space="preserve"
   id="svg8"
   sodipodi:docname="linkedin.svg"
   inkscape:version="1.1.2 (0a00cf5339, 2022-02-04)"
   xmlns:inkscape="http://www.inkscape.org/namespaces/inkscape"
   xmlns:sodipodi="http://sodipodi.sourceforge.net/DTD/sodipodi-0.dtd"
   xmlns="http://www.w3.org/2000/svg"
   xmlns:svg="http://www.w3.org/2000/svg"><defs
     id="defs12" /><sodipodi:namedview
     id="namedview10"
     pagecolor="#ffffff"
     bordercolor="#666666"
     borderopacity="1.0"
     inkscape:pageshadow="2"
     inkscape:pageopacity="0.0"
     inkscape:pagecheckerboard="0"
     showgrid="false"
     fit-margin-top="0"
     fit-margin-left="0"
     fit-margin-right="0"
     fit-margin-bottom="0"
     inkscape:zoom="1.3320312"
     inkscape:cx="249.99413"
     inkscape:cy="255.62463"
     inkscape:window-width="1920"
     inkscape:window-height="1005"
     inkscape:window-x="0"
     inkscape:window-y="0"
     inkscape:window-maximized="1"
     inkscape:current-layer="svg8" /><g
     id="g5891"><path
       d="M 512,64 C 512,28.677 483.323,0 448,0 H 64 C 28.677,0 0,28.677 0,64 v 384 c 0,35.323 28.677,64 64,64 h 384 c 35.323,0 64,-28.677 64,-64 z"
       id="background"
       style="fill:#2867b2" /><g
       id="shapes"><rect
         height="257.96201"
         id="rect11"
         style="fill:#ffffff"
         width="85.760002"
         x="61.053001"
         y="178.66701" /><path
         d="M 104.512,54.28 C 75.171,54.28 56,73.57 56,98.853 c 0,24.752 18.588,44.574 47.377,44.574 h 0.554 c 29.903,0 48.516,-19.822 48.516,-44.574 C 151.892,73.57 133.836,54.28 104.512,54.28 Z"
         id="path13-0"
         style="fill:#ffffff;fill-rule:nonzero" /><path
         d="m 357.278,172.601 c -45.49,0 -65.866,25.017 -77.276,42.589 v -36.523 h -85.738 c 1.137,24.197 0,257.961 0,257.961 h 85.737 V 292.564 c 0,-7.711 0.554,-15.42 2.827,-20.931 6.188,-15.4 20.305,-31.352 43.993,-31.352 31.012,0 43.436,23.664 43.436,58.327 v 138.02 h 85.741 v -147.93 c 0,-79.237 -42.305,-116.097 -98.72,-116.097 z"
         id="path15"
         style="fill:#ffffff;fill-rule:nonzero" /></g></g></svg>
