<?xml version="1.0" encoding="UTF-8" standalone="no"?>
<svg
   height="419.99988"
   version="1.1"
   viewBox="0 0 391.70743 419.99988"
   width="391.70743"
   xml:space="preserve"
   id="svg10"
   sodipodi:docname="mastodon.svg"
   inkscape:version="1.1.2 (0a00cf5339, 2022-02-04)"
   xmlns:inkscape="http://www.inkscape.org/namespaces/inkscape"
   xmlns:sodipodi="http://sodipodi.sourceforge.net/DTD/sodipodi-0.dtd"
   xmlns="http://www.w3.org/2000/svg"
   xmlns:svg="http://www.w3.org/2000/svg"><defs
     id="defs14" /><sodipodi:namedview
     id="namedview12"
     pagecolor="#ffffff"
     bordercolor="#666666"
     borderopacity="1.0"
     inkscape:pageshadow="2"
     inkscape:pageopacity="0.0"
     inkscape:pagecheckerboard="0"
     showgrid="false"
     fit-margin-top="0"
     fit-margin-left="0"
     fit-margin-right="0"
     fit-margin-bottom="0"
     inkscape:zoom="1.3320312"
     inkscape:cx="189.93548"
     inkscape:cy="209.82991"
     inkscape:window-width="1920"
     inkscape:window-height="1005"
     inkscape:window-x="0"
     inkscape:window-y="0"
     inkscape:window-maximized="1"
     inkscape:current-layer="svg10" /><g
     id="_x32_07-mastodon"
     transform="translate(-60.146407,-46.000363)"><g
       id="g6"><path
         d="m 451.839,183.897 c 0,-91.111 -59.709,-117.825 -59.709,-117.825 -58.584,-26.902 -214.185,-26.622 -272.206,0 0,0 -59.709,26.713 -59.709,117.825 0,108.451 -6.188,243.148 98.984,270.988 37.961,10.027 70.582,12.185 96.827,10.685 47.617,-2.624 74.331,-16.967 74.331,-16.967 l -1.593,-34.589 c 0,0 -34.026,10.688 -72.269,9.468 -37.87,-1.313 -77.801,-4.124 -83.988,-50.616 -0.563,-4.124 -0.843,-8.436 -0.843,-13.029 80.237,19.589 148.661,8.531 167.504,6.28 52.586,-6.28 98.422,-38.713 104.233,-68.333 9.189,-46.68 8.438,-113.887 8.438,-113.887 z"
         style="fill:#2b90d9"
         id="path2" /><path
         d="m 381.443,300 h -43.68 V 194.207 c 0,-46.586 -59.992,-48.367 -59.992,6.468 v 58.584 h -43.397 v -58.584 c 0,-54.835 -59.991,-53.054 -59.991,-6.468 V 300 H 130.61 c 0,-114.449 -4.874,-137.382 17.247,-162.784 24.277,-27.09 74.801,-28.87 97.297,5.718 l 10.873,18.278 10.873,-18.278 c 22.591,-34.777 73.207,-32.62 97.296,-5.718 22.216,25.59 17.247,48.428 17.247,162.784 z"
         style="fill:#ffffff"
         id="path4" /></g></g><g
     id="Layer_1"
     transform="translate(-60.146407,-46.000363)" /></svg>
