<svg width="458" height="144" viewBox="0 0 458 144" fill="none" xmlns="http://www.w3.org/2000/svg">
<g clip-path="url(#clip0_12_35)">
<mask id="mask0_12_35" style="mask-type:luminance" maskUnits="userSpaceOnUse" x="0" y="0" width="144" height="144">
<path d="M143.997 0H0.277222V144H143.997V0Z" fill="white"/>
</mask>
<g mask="url(#mask0_12_35)">
<path d="M14.9335 42.5444C13.5581 43.9228 12.7128 45.7436 12.5469 47.6857C12.3811 49.6277 12.9053 51.5661 14.027 53.1582C15.1893 54.8052 16.9121 55.9696 18.8714 56.4323C20.8307 56.8949 22.8912 56.6244 24.6651 55.6709L50.1679 79.9521C49.2466 81.5662 48.7537 83.3901 48.736 85.2494C48.7183 87.1088 49.1767 88.9417 50.0674 90.5729L14.4761 123.256C12.9221 122.304 11.1242 121.828 9.30373 121.887C7.48326 121.946 5.71973 122.537 4.23032 123.587C3.22847 124.296 2.37573 125.195 1.72076 126.233C1.06579 127.272 0.621429 128.43 0.413042 129.641C0.204654 130.852 0.236324 132.092 0.506243 133.29C0.776161 134.489 1.27904 135.622 1.98618 136.626C2.6933 137.63 3.59083 138.484 4.62752 139.141C5.6642 139.797 6.81974 140.242 8.02816 140.451C9.23658 140.66 10.4742 140.628 11.6704 140.357C12.8666 140.087 13.9979 139.583 14.9997 138.875C16.3357 137.928 17.3998 136.646 18.0855 135.157C18.7711 133.668 19.0543 132.025 18.9066 130.392L84.2737 104.956C85.6873 106.768 87.742 107.965 90.0121 108.301C92.2824 108.636 94.5943 108.084 96.4699 106.76C98.4073 105.389 99.7221 103.304 100.125 100.963C100.528 98.6209 99.9863 96.2151 98.6187 94.2736C98.2779 93.7946 97.8905 93.3503 97.4625 92.9472L110.388 67.1867C111.616 67.4176 112.877 67.3993 114.098 67.1327C115.319 66.8664 116.474 66.357 117.495 65.635C118.497 64.9266 119.349 64.0274 120.004 62.9888C120.659 61.9498 121.103 60.7922 121.312 59.5814C121.52 58.3706 121.489 57.1306 121.219 55.9319C120.949 54.7335 120.446 53.6001 119.739 52.5963C118.493 50.8312 116.675 49.5529 114.594 48.9789L114.486 39.1826C114.856 39.0159 115.209 38.8145 115.54 38.5813C116.48 37.9167 117.224 37.0114 117.695 35.9601C118.166 34.9088 118.346 33.75 118.217 32.605L130.69 25.3425C132.045 26.5263 133.758 27.2202 135.554 27.3133C137.35 27.4063 139.125 26.8931 140.595 25.8558C141.457 25.2462 142.191 24.4724 142.754 23.5786C143.318 22.6848 143.7 21.6886 143.88 20.6467C144.059 19.6049 144.032 18.5378 143.799 17.5065C143.567 16.4752 143.135 15.4999 142.526 14.6361C141.297 12.8918 139.427 11.708 137.327 11.3452C135.227 10.9823 133.069 11.4702 131.328 12.7015C130.691 13.1547 130.124 13.6986 129.643 14.316L116.695 9.76712C116.625 8.50982 116.205 7.29724 115.483 6.2668C114.973 5.54362 114.327 4.92805 113.58 4.45524C112.833 3.98243 112.001 3.66166 111.13 3.51119C110.259 3.36075 109.368 3.38356 108.506 3.57838C107.644 3.77321 106.829 4.13619 106.108 4.6466C104.697 5.64698 103.724 7.15307 103.392 8.85252C103.059 10.552 103.393 12.3144 104.322 13.7743L88.5833 36.4224C87.586 36.1766 86.5474 36.1479 85.5377 36.3381C84.5283 36.5282 83.5711 36.9329 82.731 37.5252C82.1162 37.9637 81.5739 38.4964 81.1245 39.1036L70.3357 36.0698C70.3237 34.1598 69.7286 32.2993 68.6305 30.7384C67.2023 28.7111 65.0291 27.3353 62.5886 26.9136C60.1482 26.4918 57.6404 27.0588 55.6171 28.4895C54.3764 29.367 53.3679 30.5345 52.6793 31.8907C51.9905 33.2469 51.6424 34.751 51.6648 36.2723L27.5149 43.6295C27.5134 43.6272 27.512 43.6253 27.5105 43.623C26.8856 42.736 26.0925 41.9808 25.1764 41.4009C24.2602 40.8209 23.2391 40.4274 22.1712 40.2429C21.1032 40.0584 20.0095 40.0863 18.9524 40.3254C17.8953 40.5644 16.8956 41.0096 16.0102 41.6357C15.6261 41.9074 15.2659 42.2114 14.9335 42.5444Z" fill="#0E0E0E"/>
<path d="M29.0085 48.5854L53.1789 41.2217C53.2412 41.3252 53.3061 41.4276 53.3726 41.5285C54.5454 43.1879 56.2259 44.4195 58.1597 45.0366L57.3044 74.711C56.0325 74.9886 54.8207 75.4931 53.7271 76.2005L28.2214 51.9165C28.7129 50.8733 28.981 49.7388 29.0085 48.5854Z" fill="#66C2A5"/>
<path d="M63.3255 45.1837C64.4225 44.9047 65.4594 44.4279 66.3863 43.7774C67.4092 43.0495 68.2754 42.1225 68.9331 41.0518L79.7255 44.0868C79.8417 45.3372 80.2821 46.5353 81.0033 47.5625C82.1025 49.1228 83.7755 50.1818 85.6542 50.5066C87.5329 50.8312 89.4633 50.3947 91.0207 49.293C91.1484 49.2024 91.2733 49.1074 91.3948 49.0084L103.057 55.748C102.724 57.0876 102.692 58.4843 102.962 59.8379L67.7376 78.1819C66.3419 76.5855 64.5106 75.4329 62.4694 74.8662L63.3255 45.1837Z" fill="#1B9E77"/>
<path d="M107.986 17.5613L108.794 27.6678C108.567 27.7886 108.347 27.923 108.136 28.0702C106.745 29.054 105.8 30.5511 105.511 32.2324C105.222 33.9137 105.611 35.6411 106.593 37.035C107.28 38.0081 108.224 38.7706 109.319 39.2375L109.427 49.0385C108.462 49.3262 107.55 49.768 106.725 50.3474C106.339 50.6236 105.974 50.929 105.634 51.2609L93.9699 44.5208C94.2504 42.7233 93.8414 40.8856 92.825 39.3778L107.986 17.5613Z" fill="#66C2A5"/>
<path d="M113.057 16.142C113.338 16.0007 113.608 15.8398 113.866 15.6605C114.276 15.3675 114.651 15.0293 114.985 14.6524L127.934 19.2019C127.928 19.7613 127.981 20.3198 128.09 20.8683L115.614 28.1332C115.104 27.7609 114.542 27.4661 113.946 27.2581L113.057 16.142Z" fill="#B3E2CD"/>
<path d="M21.498 123.83L53.5554 94.3931C55.38 95.6135 57.5307 96.2516 59.7244 96.2232C61.9181 96.1948 64.0517 95.5015 65.8442 94.2342C66.7256 93.6062 67.5085 92.8499 68.1668 91.9901L82.4506 98.3348C82.3767 98.9297 82.3627 99.5307 82.4087 100.128L21.498 123.83Z" fill="#1B9E77"/>
<path d="M70.1224 82.7744L105.348 64.4304C105.486 64.5753 105.629 64.7153 105.776 64.8512L92.8475 90.6187C91.6888 90.4157 90.5011 90.4438 89.353 90.7017C88.205 90.9593 87.1192 91.4414 86.1575 92.1203C85.5608 92.5459 85.0184 93.0431 84.5429 93.6008L70.2667 87.2603C70.5306 85.7711 70.4812 84.2434 70.1224 82.7744Z" fill="#0D4E3B"/>
</g>
</g>
<path d="M457.721 79.9723C456.749 80.4043 455.561 80.8363 454.157 81.2683C452.753 81.7003 451.277 81.9163 449.729 81.9163C448.721 81.9163 447.767 81.7903 446.867 81.5383C446.003 81.2863 445.229 80.8903 444.545 80.3503C443.897 79.7743 443.375 79.0543 442.979 78.1903C442.583 77.2903 442.385 76.2103 442.385 74.9503V58.6963H438.659V53.1343H442.385V43.9543H449.621V53.1343H455.561V58.6963H449.621V72.5203C449.621 73.5283 449.873 74.2483 450.377 74.6803C450.917 75.0763 451.565 75.2743 452.321 75.2743C453.077 75.2743 453.815 75.1483 454.535 74.8963C455.255 74.6443 455.831 74.4283 456.263 74.2483L457.721 79.9723Z" fill="#1B9E77"/>
<path d="M421.772 81.9704C419.504 81.9704 417.452 81.5924 415.616 80.8364C413.78 80.0444 412.214 78.9824 410.918 77.6504C409.622 76.3184 408.614 74.7704 407.894 73.0064C407.21 71.2424 406.868 69.3884 406.868 67.4444C406.868 65.4284 407.21 63.5384 407.894 61.7744C408.578 59.9744 409.568 58.4084 410.864 57.0764C412.16 55.7084 413.726 54.6284 415.562 53.8364C417.434 53.0444 419.522 52.6484 421.826 52.6484C424.13 52.6484 426.182 53.0444 427.982 53.8364C429.818 54.6284 431.366 55.6904 432.626 57.0224C433.922 58.3544 434.894 59.9024 435.542 61.6664C436.226 63.4304 436.568 65.2664 436.568 67.1744C436.568 67.6424 436.55 68.0924 436.514 68.5244C436.514 68.9564 436.478 69.3164 436.406 69.6044H414.536C414.644 70.7204 414.914 71.7104 415.346 72.5744C415.778 73.4384 416.336 74.1764 417.02 74.7884C417.704 75.4004 418.478 75.8684 419.342 76.1924C420.206 76.5164 421.106 76.6784 422.042 76.6784C423.482 76.6784 424.832 76.3364 426.092 75.6524C427.388 74.9324 428.27 73.9964 428.738 72.8444L434.948 74.5724C433.904 76.7324 432.23 78.5144 429.926 79.9184C427.658 81.2864 424.94 81.9704 421.772 81.9704ZM429.116 64.9064C428.936 62.7824 428.144 61.0904 426.74 59.8304C425.372 58.5344 423.698 57.8864 421.718 57.8864C420.746 57.8864 419.828 58.0664 418.964 58.4264C418.136 58.7504 417.398 59.2184 416.75 59.8304C416.102 60.4424 415.562 61.1804 415.13 62.0444C414.734 62.9084 414.5 63.8624 414.428 64.9064H429.116Z" fill="#1B9E77"/>
<path d="M402.358 81.4304H395.122V65.5544C395.122 63.2864 394.726 61.6304 393.934 60.5864C393.142 59.5424 392.044 59.0204 390.64 59.0204C389.92 59.0204 389.182 59.1644 388.426 59.4524C387.67 59.7404 386.95 60.1544 386.266 60.6944C385.618 61.1984 385.024 61.8104 384.484 62.5304C383.944 63.2504 383.548 64.0424 383.296 64.9064V81.4304H376.06V53.1344H382.594V58.3724C383.638 56.5724 385.15 55.1684 387.13 54.1604C389.11 53.1524 391.342 52.6484 393.826 52.6484C395.59 52.6484 397.03 52.9724 398.146 53.6204C399.262 54.2684 400.126 55.1144 400.738 56.1584C401.35 57.2024 401.764 58.3904 401.98 59.7224C402.232 61.0544 402.358 62.4044 402.358 63.7724V81.4304Z" fill="#1B9E77"/>
<path d="M363.77 81.4304V73.6544H369.71V81.4304H363.77Z" fill="#1B9E77"/>
<path d="M357.639 81.4304H350.403V65.5544C350.403 63.3224 349.989 61.6844 349.161 60.6404C348.333 59.5604 347.163 59.0204 345.651 59.0204C345.003 59.0204 344.319 59.1644 343.599 59.4524C342.879 59.7404 342.195 60.1544 341.547 60.6944C340.899 61.1984 340.305 61.8104 339.765 62.5304C339.225 63.2504 338.829 64.0424 338.577 64.9064V81.4304H331.341V42.0104H338.577V58.3724C339.621 56.5364 341.025 55.1324 342.789 54.1604C344.589 53.1524 346.569 52.6484 348.729 52.6484C350.565 52.6484 352.059 52.9724 353.211 53.6204C354.363 54.2324 355.263 55.0604 355.911 56.1044C356.559 57.1484 357.009 58.3364 357.261 59.6684C357.513 61.0004 357.639 62.3684 357.639 63.7724V81.4304Z" fill="#1B9E77"/>
<path d="M314.072 81.9704C311.84 81.9704 309.896 81.4844 308.24 80.5124C306.584 79.5044 305.288 78.1544 304.352 76.4624V92.9324H297.116V53.1344H303.434V57.9944C304.478 56.3384 305.828 55.0424 307.484 54.1064C309.14 53.1344 311.048 52.6484 313.208 52.6484C315.116 52.6484 316.88 53.0444 318.5 53.8364C320.12 54.5924 321.506 55.6364 322.658 56.9684C323.846 58.2644 324.764 59.8124 325.412 61.6124C326.096 63.3764 326.438 65.2484 326.438 67.2284C326.438 69.2804 326.132 71.2064 325.52 73.0064C324.908 74.8064 324.044 76.3724 322.928 77.7044C321.848 79.0364 320.552 80.0804 319.04 80.8364C317.528 81.5924 315.872 81.9704 314.072 81.9704ZM311.642 75.8144C312.722 75.8144 313.712 75.5804 314.612 75.1124C315.548 74.6444 316.34 74.0144 316.988 73.2224C317.636 72.4304 318.14 71.5124 318.5 70.4684C318.86 69.4244 319.04 68.3444 319.04 67.2284C319.04 66.0404 318.842 64.9424 318.446 63.9344C318.05 62.8904 317.492 61.9904 316.772 61.2344C316.088 60.4784 315.26 59.8844 314.288 59.4524C313.352 59.0204 312.326 58.8044 311.21 58.8044C310.526 58.8044 309.824 58.9304 309.104 59.1824C308.384 59.3984 307.718 59.7224 307.106 60.1544C306.494 60.5864 305.936 61.0904 305.432 61.6664C304.964 62.2424 304.604 62.8724 304.352 63.5564V70.1984C305 71.8184 305.99 73.1684 307.322 74.2484C308.654 75.2924 310.094 75.8144 311.642 75.8144Z" fill="#1B9E77"/>
<path d="M273.831 81.9704C272.463 81.9704 271.185 81.7544 269.997 81.3224C268.809 80.8544 267.783 80.2244 266.919 79.4324C266.055 78.6044 265.371 77.6504 264.867 76.5704C264.399 75.4904 264.165 74.3024 264.165 73.0064C264.165 71.6744 264.453 70.4504 265.029 69.3344C265.641 68.1824 266.469 67.2104 267.513 66.4184C268.593 65.6264 269.871 65.0144 271.347 64.5824C272.823 64.1144 274.443 63.8804 276.207 63.8804C277.467 63.8804 278.691 63.9884 279.879 64.2044C281.103 64.4204 282.183 64.7264 283.119 65.1224V63.5024C283.119 61.6304 282.579 60.1904 281.499 59.1824C280.455 58.1744 278.889 57.6704 276.801 57.6704C275.289 57.6704 273.813 57.9404 272.373 58.4804C270.933 59.0204 269.457 59.8124 267.945 60.8564L265.731 56.2664C269.367 53.8544 273.291 52.6484 277.503 52.6484C281.571 52.6484 284.721 53.6564 286.953 55.6724C289.221 57.6524 290.355 60.5324 290.355 64.3124V73.1144C290.355 73.8704 290.481 74.4104 290.733 74.7344C291.021 75.0584 291.471 75.2384 292.083 75.2744V81.4304C290.859 81.6824 289.797 81.8084 288.897 81.8084C287.529 81.8084 286.467 81.5024 285.711 80.8904C284.991 80.2784 284.541 79.4684 284.361 78.4604L284.199 76.8944C282.939 78.5504 281.409 79.8104 279.609 80.6744C277.809 81.5384 275.883 81.9704 273.831 81.9704ZM275.883 76.6784C277.107 76.6784 278.259 76.4624 279.339 76.0304C280.455 75.5984 281.319 75.0224 281.931 74.3024C282.723 73.6904 283.119 73.0064 283.119 72.2504V69.0104C282.255 68.6864 281.319 68.4344 280.311 68.2544C279.303 68.0384 278.331 67.9304 277.395 67.9304C275.523 67.9304 273.993 68.3624 272.805 69.2264C271.617 70.0544 271.023 71.1164 271.023 72.4124C271.023 73.6364 271.491 74.6624 272.427 75.4904C273.363 76.2824 274.515 76.6784 275.883 76.6784Z" fill="#1B9E77"/>
<path d="M262.443 59.3983C260.247 59.4343 258.285 59.8663 256.557 60.6943C254.829 61.4863 253.587 62.6923 252.831 64.3123V81.4303H245.595V53.1343H252.237V59.1823C252.741 58.2103 253.335 57.3463 254.019 56.5903C254.703 55.7983 255.441 55.1143 256.233 54.5383C257.025 53.9623 257.817 53.5303 258.609 53.2423C259.437 52.9183 260.229 52.7563 260.985 52.7563C261.381 52.7563 261.669 52.7563 261.849 52.7563C262.065 52.7563 262.263 52.7743 262.443 52.8103V59.3983Z" fill="#1B9E77"/>
<path d="M222.441 81.5924C220.533 81.5924 218.805 81.2144 217.257 80.4584C215.709 79.7024 214.359 78.6764 213.207 77.3804C212.091 76.0484 211.227 74.5184 210.615 72.7904C210.003 71.0624 209.697 69.2264 209.697 67.2824C209.697 65.2304 210.021 63.3224 210.669 61.5584C211.317 59.7944 212.217 58.2464 213.369 56.9144C214.521 55.5824 215.907 54.5384 217.527 53.7824C219.147 53.0264 220.929 52.6484 222.873 52.6484C225.069 52.6484 226.995 53.1524 228.651 54.1604C230.307 55.1324 231.675 56.4464 232.755 58.1024V53.1344H239.073V80.0804C239.073 82.1684 238.677 84.0404 237.885 85.6964C237.093 87.3524 235.995 88.7564 234.591 89.9084C233.223 91.0604 231.567 91.9424 229.623 92.5544C227.715 93.1664 225.627 93.4724 223.359 93.4724C220.263 93.4724 217.653 92.9504 215.529 91.9064C213.441 90.8984 211.641 89.4584 210.129 87.5864L214.071 83.7524C215.151 85.0844 216.501 86.1284 218.121 86.8844C219.777 87.6404 221.523 88.0184 223.359 88.0184C224.475 88.0184 225.537 87.8564 226.545 87.5324C227.589 87.2444 228.507 86.7764 229.299 86.1284C230.091 85.4804 230.703 84.6524 231.135 83.6444C231.603 82.6364 231.837 81.4484 231.837 80.0804V76.5164C230.901 78.1364 229.587 79.3964 227.895 80.2964C226.203 81.1604 224.385 81.5924 222.441 81.5924ZM224.871 75.8144C225.663 75.8144 226.419 75.6884 227.139 75.4364C227.859 75.1844 228.525 74.8424 229.137 74.4104C229.749 73.9784 230.289 73.4744 230.757 72.8984C231.225 72.3224 231.585 71.7104 231.837 71.0624V64.3124C231.189 62.6564 230.163 61.3244 228.759 60.3164C227.391 59.3084 225.951 58.8044 224.439 58.8044C223.323 58.8044 222.315 59.0564 221.415 59.5604C220.515 60.0284 219.741 60.6764 219.093 61.5044C218.445 62.2964 217.941 63.2144 217.581 64.2584C217.257 65.3024 217.095 66.3824 217.095 67.4984C217.095 68.6504 217.293 69.7304 217.689 70.7384C218.085 71.7464 218.625 72.6284 219.309 73.3844C220.029 74.1404 220.857 74.7344 221.793 75.1664C222.729 75.5984 223.755 75.8144 224.871 75.8144Z" fill="#1B9E77"/>
<path d="M197.607 81.4304V53.1344H204.843V81.4304H197.607ZM197.607 49.1924V42.0104H204.843V49.1924H197.607Z" fill="#1B9E77"/>
<path d="M193.572 59.3983C191.376 59.4343 189.414 59.8663 187.686 60.6943C185.958 61.4863 184.716 62.6923 183.96 64.3123V81.4303H176.724V53.1343H183.366V59.1823C183.87 58.2103 184.464 57.3463 185.148 56.5903C185.832 55.7983 186.57 55.1143 187.362 54.5383C188.154 53.9623 188.946 53.5303 189.738 53.2423C190.566 52.9183 191.358 52.7563 192.114 52.7563C192.51 52.7563 192.798 52.7563 192.978 52.7563C193.194 52.7563 193.392 52.7743 193.572 52.8103V59.3983Z" fill="#1B9E77"/>
<path d="M157.044 81.9704C154.74 81.9704 152.67 81.5744 150.834 80.7824C148.998 79.9904 147.432 78.9284 146.136 77.5964C144.876 76.2284 143.904 74.6624 143.22 72.8984C142.536 71.1344 142.194 69.2804 142.194 67.3364C142.194 65.3564 142.536 63.4844 143.22 61.7204C143.904 59.9564 144.876 58.4084 146.136 57.0764C147.432 55.7084 148.998 54.6284 150.834 53.8364C152.67 53.0444 154.74 52.6484 157.044 52.6484C159.348 52.6484 161.4 53.0444 163.2 53.8364C165.036 54.6284 166.584 55.7084 167.844 57.0764C169.14 58.4084 170.13 59.9564 170.814 61.7204C171.498 63.4844 171.84 65.3564 171.84 67.3364C171.84 69.2804 171.498 71.1344 170.814 72.8984C170.13 74.6624 169.158 76.2284 167.898 77.5964C166.638 78.9284 165.09 79.9904 163.254 80.7824C161.418 81.5744 159.348 81.9704 157.044 81.9704ZM149.646 67.3364C149.646 68.5964 149.826 69.7484 150.186 70.7924C150.582 71.8004 151.104 72.6824 151.752 73.4384C152.436 74.1944 153.228 74.7884 154.128 75.2204C155.028 75.6164 156 75.8144 157.044 75.8144C158.088 75.8144 159.06 75.6164 159.96 75.2204C160.86 74.7884 161.634 74.1944 162.282 73.4384C162.966 72.6824 163.488 71.7824 163.848 70.7384C164.244 69.6944 164.442 68.5424 164.442 67.2824C164.442 66.0584 164.244 64.9244 163.848 63.8804C163.488 62.8364 162.966 61.9364 162.282 61.1804C161.634 60.4244 160.86 59.8484 159.96 59.4524C159.06 59.0204 158.088 58.8044 157.044 58.8044C156 58.8044 155.028 59.0204 154.128 59.4524C153.228 59.8844 152.436 60.4784 151.752 61.2344C151.104 61.9904 150.582 62.8904 150.186 63.9344C149.826 64.9784 149.646 66.1124 149.646 67.3364Z" fill="#1B9E77"/>
<path d="M408.373 122.119C407.26 122.119 406.231 121.888 405.286 121.426C404.362 120.964 403.564 120.345 402.892 119.568C402.22 118.791 401.695 117.898 401.317 116.89C400.96 115.882 400.781 114.832 400.781 113.74C400.781 112.585 400.96 111.493 401.317 110.464C401.695 109.414 402.22 108.501 402.892 107.724C403.564 106.947 404.362 106.338 405.286 105.897C406.231 105.435 407.27 105.204 408.404 105.204C409.79 105.204 410.987 105.54 411.995 106.212C413.003 106.884 413.854 107.734 414.547 108.763V105.487H417.004V121.741C417.004 122.917 416.783 123.946 416.342 124.828C415.901 125.731 415.303 126.487 414.547 127.096C413.791 127.705 412.898 128.167 411.869 128.482C410.861 128.797 409.78 128.955 408.625 128.955C406.756 128.955 405.233 128.629 404.057 127.978C402.902 127.348 401.936 126.466 401.159 125.332L402.766 123.915C403.417 124.881 404.257 125.605 405.286 126.088C406.315 126.571 407.428 126.813 408.625 126.813C409.381 126.813 410.095 126.708 410.767 126.498C411.46 126.288 412.058 125.973 412.562 125.553C413.066 125.133 413.465 124.608 413.759 123.978C414.074 123.348 414.232 122.602 414.232 121.741V118.843C413.917 119.347 413.539 119.809 413.098 120.229C412.678 120.628 412.216 120.975 411.712 121.269C411.208 121.542 410.672 121.752 410.105 121.899C409.538 122.046 408.961 122.119 408.373 122.119ZM409.223 119.851C409.811 119.851 410.378 119.746 410.924 119.536C411.47 119.326 411.974 119.053 412.436 118.717C412.898 118.36 413.287 117.961 413.602 117.52C413.917 117.079 414.127 116.628 414.232 116.166V111.441C414.001 110.874 413.696 110.359 413.318 109.897C412.961 109.435 412.552 109.036 412.09 108.7C411.628 108.343 411.124 108.07 410.578 107.881C410.053 107.692 409.517 107.598 408.971 107.598C408.131 107.598 407.375 107.776 406.703 108.133C406.052 108.49 405.496 108.963 405.034 109.551C404.572 110.139 404.215 110.811 403.963 111.567C403.711 112.302 403.585 113.047 403.585 113.803C403.585 114.622 403.732 115.399 404.026 116.134C404.32 116.869 404.719 117.51 405.223 118.056C405.727 118.602 406.315 119.043 406.987 119.379C407.68 119.694 408.425 119.851 409.223 119.851Z" fill="black"/>
<path d="M397.51 121.93H394.738V112.732C394.738 110.968 394.465 109.687 393.919 108.889C393.394 108.091 392.585 107.692 391.493 107.692C390.926 107.692 390.359 107.808 389.792 108.039C389.225 108.249 388.69 108.543 388.186 108.921C387.682 109.299 387.241 109.75 386.863 110.275C386.485 110.8 386.201 111.378 386.012 112.008V121.93H383.24V105.487H385.76V109.015C386.411 107.86 387.346 106.936 388.564 106.243C389.803 105.55 391.147 105.204 392.596 105.204C393.541 105.204 394.328 105.382 394.958 105.739C395.588 106.075 396.092 106.558 396.47 107.188C396.848 107.797 397.111 108.522 397.258 109.362C397.426 110.202 397.51 111.115 397.51 112.102V121.93Z" fill="black"/>
<path d="M375.981 121.93V105.487H378.753V121.93H375.981ZM375.981 102.4V98.9354H378.753V102.4H375.981Z" fill="black"/>
<path d="M362.943 122.245C361.809 122.245 360.759 122.014 359.793 121.552C358.827 121.09 357.997 120.471 357.304 119.694C356.611 118.917 356.065 118.014 355.666 116.985C355.288 115.956 355.099 114.874 355.099 113.74C355.099 112.585 355.278 111.493 355.635 110.464C356.013 109.414 356.527 108.501 357.178 107.724C357.85 106.947 358.638 106.338 359.541 105.897C360.465 105.435 361.473 105.204 362.565 105.204C363.888 105.204 365.064 105.55 366.093 106.243C367.143 106.936 367.972 107.776 368.581 108.763V98.9354H371.353V118.528C371.353 119.179 371.647 119.515 372.235 119.536V121.93C371.941 121.972 371.7 122.004 371.511 122.025C371.343 122.046 371.175 122.056 371.007 122.056C370.461 122.056 369.978 121.878 369.558 121.521C369.159 121.143 368.959 120.712 368.959 120.229V118.843C368.308 119.914 367.437 120.754 366.345 121.363C365.274 121.951 364.14 122.245 362.943 122.245ZM363.604 119.851C364.108 119.851 364.623 119.757 365.148 119.568C365.694 119.379 366.198 119.116 366.66 118.78C367.143 118.444 367.552 118.056 367.888 117.615C368.245 117.153 368.476 116.67 368.581 116.166V111.441C368.392 110.916 368.109 110.422 367.731 109.96C367.353 109.477 366.922 109.068 366.439 108.732C365.977 108.375 365.473 108.102 364.927 107.913C364.402 107.703 363.877 107.598 363.352 107.598C362.533 107.598 361.788 107.776 361.116 108.133C360.465 108.469 359.898 108.931 359.415 109.519C358.953 110.086 358.596 110.748 358.344 111.504C358.092 112.239 357.966 112.995 357.966 113.772C357.966 114.591 358.113 115.378 358.407 116.134C358.701 116.869 359.1 117.51 359.604 118.056C360.108 118.602 360.696 119.043 361.368 119.379C362.061 119.694 362.806 119.851 363.604 119.851Z" fill="black"/>
<path d="M347.22 98.9354H349.992V117.678C349.992 118.287 350.15 118.77 350.465 119.127C350.801 119.463 351.263 119.631 351.851 119.631C352.082 119.631 352.355 119.599 352.67 119.536C352.985 119.452 353.279 119.358 353.552 119.253L353.993 121.489C353.531 121.678 352.985 121.836 352.355 121.962C351.725 122.088 351.168 122.151 350.685 122.151C349.614 122.151 348.764 121.846 348.134 121.237C347.525 120.628 347.22 119.778 347.22 118.686V98.9354Z" fill="black"/>
<path d="M335.482 122.245C334.243 122.245 333.109 122.014 332.08 121.552C331.072 121.09 330.201 120.471 329.466 119.694C328.752 118.917 328.195 118.014 327.796 116.985C327.397 115.956 327.198 114.874 327.198 113.74C327.198 112.585 327.397 111.493 327.796 110.464C328.216 109.435 328.783 108.532 329.497 107.755C330.232 106.978 331.104 106.359 332.112 105.897C333.141 105.435 334.264 105.204 335.482 105.204C336.7 105.204 337.824 105.435 338.853 105.897C339.882 106.359 340.753 106.978 341.467 107.755C342.202 108.532 342.769 109.435 343.168 110.464C343.588 111.493 343.798 112.585 343.798 113.74C343.798 114.874 343.599 115.956 343.2 116.985C342.801 118.014 342.234 118.917 341.499 119.694C340.764 120.471 339.882 121.09 338.853 121.552C337.845 122.014 336.721 122.245 335.482 122.245ZM330.033 113.772C330.033 114.633 330.169 115.431 330.442 116.166C330.736 116.901 331.125 117.541 331.608 118.087C332.112 118.633 332.689 119.064 333.34 119.379C334.012 119.694 334.726 119.851 335.482 119.851C336.238 119.851 336.942 119.694 337.593 119.379C338.265 119.064 338.853 118.633 339.357 118.087C339.861 117.52 340.249 116.869 340.522 116.134C340.816 115.378 340.963 114.57 340.963 113.709C340.963 112.869 340.816 112.081 340.522 111.346C340.249 110.59 339.861 109.939 339.357 109.393C338.853 108.826 338.265 108.385 337.593 108.07C336.942 107.755 336.238 107.598 335.482 107.598C334.726 107.598 334.012 107.766 333.34 108.102C332.689 108.417 332.112 108.858 331.608 109.425C331.125 109.971 330.736 110.622 330.442 111.378C330.169 112.113 330.033 112.911 330.033 113.772Z" fill="black"/>
<path d="M318.754 121.93V107.661H316.517V105.487H318.754V105.141C318.754 103.104 319.205 101.508 320.108 100.353C321.011 99.1979 322.24 98.6204 323.794 98.6204C324.445 98.6204 325.085 98.7149 325.715 98.9039C326.345 99.0719 326.912 99.3134 327.416 99.6284L326.723 101.676C326.429 101.466 326.062 101.298 325.621 101.172C325.201 101.046 324.781 100.983 324.361 100.983C323.437 100.983 322.733 101.329 322.25 102.022C321.767 102.715 321.526 103.723 321.526 105.046V105.487H325.904V107.661H321.526V121.93H318.754Z" fill="black"/>
<path d="M296.684 122.245C295.907 122.245 295.182 122.119 294.51 121.867C293.838 121.594 293.25 121.227 292.746 120.765C292.263 120.303 291.875 119.767 291.581 119.158C291.308 118.528 291.171 117.846 291.171 117.111C291.171 116.355 291.339 115.672 291.675 115.063C292.011 114.433 292.484 113.898 293.093 113.457C293.723 113.016 294.458 112.669 295.298 112.417C296.159 112.165 297.093 112.039 298.101 112.039C298.899 112.039 299.708 112.113 300.527 112.26C301.346 112.407 302.07 112.606 302.7 112.858V111.535C302.7 110.191 302.322 109.141 301.566 108.385C300.81 107.608 299.739 107.22 298.353 107.22C296.694 107.22 294.951 107.86 293.124 109.141L292.211 107.346C294.332 105.918 296.463 105.204 298.605 105.204C300.768 105.204 302.448 105.781 303.645 106.936C304.863 108.091 305.472 109.719 305.472 111.819V118.528C305.472 119.179 305.766 119.515 306.354 119.536V121.93C306.06 121.972 305.819 122.004 305.63 122.025C305.441 122.046 305.241 122.056 305.031 122.056C304.485 122.056 304.044 121.899 303.708 121.584C303.393 121.248 303.204 120.849 303.141 120.387L303.078 119.221C302.343 120.208 301.409 120.964 300.275 121.489C299.162 121.993 297.965 122.245 296.684 122.245ZM297.408 120.166C298.395 120.166 299.309 119.988 300.149 119.631C301.01 119.253 301.661 118.759 302.102 118.15C302.501 117.751 302.7 117.342 302.7 116.922V114.496C301.356 113.971 299.96 113.709 298.511 113.709C297.125 113.709 295.991 114.003 295.109 114.591C294.248 115.179 293.817 115.945 293.817 116.89C293.817 117.352 293.901 117.783 294.069 118.182C294.258 118.581 294.51 118.927 294.825 119.221C295.161 119.515 295.55 119.746 295.991 119.914C296.432 120.082 296.904 120.166 297.408 120.166Z" fill="black"/>
<path d="M289.893 121.111C289.725 121.195 289.505 121.3 289.232 121.426C288.959 121.531 288.644 121.647 288.287 121.773C287.951 121.878 287.573 121.962 287.153 122.025C286.754 122.109 286.334 122.151 285.893 122.151C284.885 122.151 284.013 121.878 283.278 121.332C282.543 120.765 282.176 119.893 282.176 118.717V107.661H279.939V105.487H282.176V100.006H284.948V105.487H288.633V107.661H284.948V117.867C284.99 118.476 285.189 118.917 285.546 119.19C285.903 119.463 286.323 119.599 286.806 119.599C287.352 119.599 287.846 119.515 288.287 119.347C288.749 119.158 289.064 119.011 289.232 118.906L289.893 121.111Z" fill="black"/>
<path d="M268.291 122.245C267.514 122.245 266.789 122.119 266.117 121.867C265.445 121.594 264.857 121.227 264.353 120.765C263.87 120.303 263.482 119.767 263.188 119.158C262.915 118.528 262.778 117.846 262.778 117.111C262.778 116.355 262.946 115.672 263.282 115.063C263.618 114.433 264.091 113.898 264.7 113.457C265.33 113.016 266.065 112.669 266.905 112.417C267.766 112.165 268.7 112.039 269.708 112.039C270.506 112.039 271.315 112.113 272.134 112.26C272.953 112.407 273.677 112.606 274.307 112.858V111.535C274.307 110.191 273.929 109.141 273.173 108.385C272.417 107.608 271.346 107.22 269.96 107.22C268.301 107.22 266.558 107.86 264.731 109.141L263.818 107.346C265.939 105.918 268.07 105.204 270.212 105.204C272.375 105.204 274.055 105.781 275.252 106.936C276.47 108.091 277.079 109.719 277.079 111.819V118.528C277.079 119.179 277.373 119.515 277.961 119.536V121.93C277.667 121.972 277.426 122.004 277.237 122.025C277.048 122.046 276.848 122.056 276.638 122.056C276.092 122.056 275.651 121.899 275.315 121.584C275 121.248 274.811 120.849 274.748 120.387L274.685 119.221C273.95 120.208 273.016 120.964 271.882 121.489C270.769 121.993 269.572 122.245 268.291 122.245ZM269.015 120.166C270.002 120.166 270.916 119.988 271.756 119.631C272.617 119.253 273.268 118.759 273.709 118.15C274.108 117.751 274.307 117.342 274.307 116.922V114.496C272.963 113.971 271.567 113.709 270.118 113.709C268.732 113.709 267.598 114.003 266.716 114.591C265.855 115.179 265.424 115.945 265.424 116.89C265.424 117.352 265.508 117.783 265.676 118.182C265.865 118.581 266.117 118.927 266.432 119.221C266.768 119.515 267.157 119.746 267.598 119.914C268.039 120.082 268.511 120.166 269.015 120.166Z" fill="black"/>
<path d="M251.031 122.245C249.897 122.245 248.847 122.014 247.881 121.552C246.915 121.09 246.086 120.471 245.393 119.694C244.7 118.917 244.154 118.014 243.755 116.985C243.377 115.956 243.188 114.874 243.188 113.74C243.188 112.585 243.366 111.493 243.723 110.464C244.101 109.414 244.616 108.501 245.267 107.724C245.939 106.947 246.726 106.338 247.629 105.897C248.553 105.435 249.561 105.204 250.653 105.204C251.976 105.204 253.152 105.55 254.181 106.243C255.231 106.936 256.061 107.776 256.67 108.763V98.9354H259.442V118.528C259.442 119.179 259.736 119.515 260.324 119.536V121.93C260.03 121.972 259.788 122.004 259.599 122.025C259.431 122.046 259.263 122.056 259.095 122.056C258.549 122.056 258.066 121.878 257.646 121.521C257.247 121.143 257.048 120.712 257.048 120.229V118.843C256.397 119.914 255.525 120.754 254.433 121.363C253.362 121.951 252.228 122.245 251.031 122.245ZM251.693 119.851C252.197 119.851 252.711 119.757 253.236 119.568C253.782 119.379 254.286 119.116 254.748 118.78C255.231 118.444 255.641 118.056 255.977 117.615C256.334 117.153 256.565 116.67 256.67 116.166V111.441C256.481 110.916 256.197 110.422 255.819 109.96C255.441 109.477 255.011 109.068 254.528 108.732C254.066 108.375 253.562 108.102 253.016 107.913C252.491 107.703 251.966 107.598 251.441 107.598C250.622 107.598 249.876 107.776 249.204 108.133C248.553 108.469 247.986 108.931 247.503 109.519C247.041 110.086 246.684 110.748 246.432 111.504C246.18 112.239 246.054 112.995 246.054 113.772C246.054 114.591 246.201 115.378 246.495 116.134C246.789 116.869 247.188 117.51 247.692 118.056C248.196 118.602 248.784 119.043 249.456 119.379C250.149 119.694 250.895 119.851 251.693 119.851Z" fill="black"/>
<path d="M224.957 122.245C223.718 122.245 222.584 122.025 221.555 121.584C220.526 121.122 219.644 120.502 218.909 119.725C218.174 118.948 217.597 118.045 217.177 117.016C216.778 115.966 216.578 114.864 216.578 113.709C216.578 112.554 216.778 111.462 217.177 110.433C217.597 109.404 218.174 108.501 218.909 107.724C219.665 106.947 220.558 106.338 221.587 105.897C222.616 105.435 223.75 105.204 224.989 105.204C226.228 105.204 227.351 105.435 228.359 105.897C229.388 106.359 230.26 106.978 230.974 107.755C231.688 108.511 232.234 109.404 232.612 110.433C233.011 111.441 233.21 112.491 233.21 113.583C233.21 113.814 233.2 114.024 233.179 114.213C233.179 114.402 233.168 114.549 233.147 114.654H219.508C219.571 115.473 219.76 116.218 220.075 116.89C220.39 117.562 220.799 118.14 221.303 118.623C221.807 119.106 222.374 119.484 223.004 119.757C223.655 120.03 224.338 120.166 225.052 120.166C225.556 120.166 226.049 120.103 226.532 119.977C227.015 119.83 227.467 119.641 227.887 119.41C228.307 119.179 228.674 118.896 228.989 118.56C229.325 118.224 229.577 117.846 229.745 117.426L232.139 118.087C231.866 118.696 231.488 119.253 231.005 119.757C230.543 120.261 229.997 120.702 229.367 121.08C228.758 121.437 228.076 121.72 227.32 121.93C226.564 122.14 225.776 122.245 224.957 122.245ZM230.596 112.606C230.533 111.829 230.333 111.115 229.997 110.464C229.682 109.792 229.273 109.225 228.769 108.763C228.286 108.301 227.719 107.944 227.068 107.692C226.417 107.419 225.724 107.283 224.989 107.283C224.254 107.283 223.561 107.419 222.91 107.692C222.259 107.944 221.681 108.312 221.177 108.795C220.694 109.257 220.295 109.813 219.98 110.464C219.686 111.115 219.508 111.829 219.445 112.606H230.596Z" fill="black"/>
<path d="M206.041 121.93L199.552 105.487H202.419L207.616 119.505L212.845 105.487H215.491L209.002 121.93H206.041Z" fill="black"/>
<path d="M194.025 121.93V105.487H196.797V121.93H194.025ZM194.025 102.4V98.9354H196.797V102.4H194.025Z" fill="black"/>
<path d="M191.456 121.111C191.288 121.195 191.067 121.3 190.794 121.426C190.521 121.531 190.206 121.647 189.849 121.773C189.513 121.878 189.135 121.962 188.715 122.025C188.316 122.109 187.896 122.151 187.455 122.151C186.447 122.151 185.576 121.878 184.841 121.332C184.106 120.765 183.738 119.893 183.738 118.717V107.661H181.502V105.487H183.738V100.006H186.51V105.487H190.196V107.661H186.51V117.867C186.552 118.476 186.752 118.917 187.109 119.19C187.466 119.463 187.886 119.599 188.369 119.599C188.915 119.599 189.408 119.515 189.849 119.347C190.311 119.158 190.626 119.011 190.794 118.906L191.456 121.111Z" fill="black"/>
<path d="M169.853 122.245C169.076 122.245 168.352 122.119 167.68 121.867C167.008 121.594 166.42 121.227 165.916 120.765C165.433 120.303 165.044 119.767 164.75 119.158C164.477 118.528 164.341 117.846 164.341 117.111C164.341 116.355 164.509 115.672 164.845 115.063C165.181 114.433 165.653 113.898 166.262 113.457C166.892 113.016 167.627 112.669 168.467 112.417C169.328 112.165 170.263 112.039 171.271 112.039C172.069 112.039 172.877 112.113 173.696 112.26C174.515 112.407 175.24 112.606 175.87 112.858V111.535C175.87 110.191 175.492 109.141 174.736 108.385C173.98 107.608 172.909 107.22 171.523 107.22C169.864 107.22 168.121 107.86 166.294 109.141L165.38 107.346C167.501 105.918 169.633 105.204 171.775 105.204C173.938 105.204 175.618 105.781 176.815 106.936C178.033 108.091 178.642 109.719 178.642 111.819V118.528C178.642 119.179 178.936 119.515 179.524 119.536V121.93C179.23 121.972 178.988 122.004 178.799 122.025C178.61 122.046 178.411 122.056 178.201 122.056C177.655 122.056 177.214 121.899 176.878 121.584C176.563 121.248 176.374 120.849 176.311 120.387L176.248 119.221C175.513 120.208 174.578 120.964 173.444 121.489C172.331 121.993 171.134 122.245 169.853 122.245ZM170.578 120.166C171.565 120.166 172.478 119.988 173.318 119.631C174.179 119.253 174.83 118.759 175.271 118.15C175.67 117.751 175.87 117.342 175.87 116.922V114.496C174.526 113.971 173.129 113.709 171.68 113.709C170.294 113.709 169.16 114.003 168.278 114.591C167.417 115.179 166.987 115.945 166.987 116.89C166.987 117.352 167.071 117.783 167.239 118.182C167.428 118.581 167.68 118.927 167.995 119.221C168.331 119.515 168.719 119.746 169.16 119.914C169.601 120.082 170.074 120.166 170.578 120.166Z" fill="black"/>
<path d="M154.298 122.245C153.059 122.245 151.925 122.025 150.896 121.584C149.867 121.122 148.985 120.502 148.25 119.725C147.515 118.948 146.937 118.045 146.517 117.016C146.118 115.966 145.919 114.864 145.919 113.709C145.919 112.554 146.118 111.462 146.517 110.433C146.937 109.404 147.515 108.501 148.25 107.724C149.006 106.947 149.898 106.338 150.927 105.897C151.956 105.435 153.09 105.204 154.329 105.204C155.568 105.204 156.692 105.435 157.7 105.897C158.729 106.359 159.6 106.978 160.314 107.755C161.028 108.511 161.574 109.404 161.952 110.433C162.351 111.441 162.551 112.491 162.551 113.583C162.551 113.814 162.54 114.024 162.519 114.213C162.519 114.402 162.509 114.549 162.488 114.654H148.848C148.911 115.473 149.1 116.218 149.415 116.89C149.73 117.562 150.14 118.14 150.644 118.623C151.148 119.106 151.715 119.484 152.345 119.757C152.996 120.03 153.678 120.166 154.392 120.166C154.896 120.166 155.39 120.103 155.873 119.977C156.356 119.83 156.807 119.641 157.227 119.41C157.647 119.179 158.015 118.896 158.33 118.56C158.666 118.224 158.918 117.846 159.086 117.426L161.48 118.087C161.207 118.696 160.829 119.253 160.346 119.757C159.884 120.261 159.338 120.702 158.708 121.08C158.099 121.437 157.416 121.72 156.66 121.93C155.904 122.14 155.117 122.245 154.298 122.245ZM159.936 112.606C159.873 111.829 159.674 111.115 159.338 110.464C159.023 109.792 158.613 109.225 158.109 108.763C157.626 108.301 157.059 107.944 156.408 107.692C155.757 107.419 155.064 107.283 154.329 107.283C153.594 107.283 152.901 107.419 152.25 107.692C151.599 107.944 151.022 108.312 150.518 108.795C150.035 109.257 149.636 109.813 149.321 110.464C149.027 111.115 148.848 111.829 148.785 112.606H159.936Z" fill="black"/>
<path d="M144.641 107.913C143.255 107.955 142.027 108.312 140.956 108.984C139.906 109.656 139.16 110.59 138.719 111.787V121.93H135.947V105.487H138.53V109.299C139.097 108.165 139.843 107.251 140.767 106.558C141.691 105.844 142.678 105.445 143.728 105.361C143.938 105.361 144.116 105.361 144.263 105.361C144.41 105.361 144.536 105.372 144.641 105.393V107.913Z" fill="black"/>
<path d="M117.403 113.677C117.403 112.522 117.602 111.43 118.001 110.401C118.4 109.372 118.967 108.48 119.702 107.724C120.437 106.947 121.309 106.338 122.317 105.897C123.346 105.435 124.49 105.204 125.75 105.204C127.388 105.204 128.795 105.571 129.971 106.306C131.168 107.02 132.071 107.986 132.68 109.204L129.971 110.055C129.551 109.278 128.963 108.679 128.207 108.259C127.451 107.818 126.611 107.598 125.687 107.598C124.931 107.598 124.217 107.755 123.545 108.07C122.873 108.364 122.296 108.784 121.813 109.33C121.33 109.876 120.941 110.517 120.647 111.252C120.374 111.987 120.238 112.795 120.238 113.677C120.238 114.538 120.385 115.347 120.679 116.103C120.973 116.859 121.361 117.52 121.844 118.087C122.348 118.633 122.926 119.064 123.577 119.379C124.249 119.694 124.963 119.851 125.719 119.851C126.202 119.851 126.674 119.788 127.136 119.662C127.619 119.515 128.05 119.326 128.428 119.095C128.827 118.864 129.173 118.602 129.467 118.308C129.761 117.993 129.971 117.657 130.097 117.3L132.806 118.119C132.554 118.728 132.197 119.284 131.735 119.788C131.294 120.292 130.769 120.723 130.16 121.08C129.551 121.437 128.869 121.72 128.113 121.93C127.378 122.14 126.601 122.245 125.782 122.245C124.543 122.245 123.409 122.014 122.38 121.552C121.351 121.09 120.469 120.471 119.734 119.694C118.999 118.917 118.421 118.014 118.001 116.985C117.602 115.935 117.403 114.832 117.403 113.677Z" fill="black"/>
<defs>
<clipPath id="clip0_12_35">
<rect width="144" height="144" fill="white"/>
</clipPath>
</defs>
</svg>
