<?xml version="1.0" encoding="UTF-8" standalone="no"?>
<svg
   height="511.99899"
   style="clip-rule:evenodd;fill-rule:evenodd;stroke-linejoin:round;stroke-miterlimit:2"
   version="1.1"
   viewBox="0 0 512.00098 511.99899"
   width="512.00098"
   xml:space="preserve"
   id="svg8"
   sodipodi:docname="pinterest.svg"
   inkscape:version="1.1.2 (0a00cf5339, 2022-02-04)"
   xmlns:inkscape="http://www.inkscape.org/namespaces/inkscape"
   xmlns:sodipodi="http://sodipodi.sourceforge.net/DTD/sodipodi-0.dtd"
   xmlns="http://www.w3.org/2000/svg"
   xmlns:svg="http://www.w3.org/2000/svg"><defs
     id="defs12" /><sodipodi:namedview
     id="namedview10"
     pagecolor="#ffffff"
     bordercolor="#666666"
     borderopacity="1.0"
     inkscape:pageshadow="2"
     inkscape:pageopacity="0.0"
     inkscape:pagecheckerboard="0"
     showgrid="false"
     fit-margin-top="0"
     fit-margin-left="0"
     fit-margin-right="0"
     fit-margin-bottom="0"
     inkscape:zoom="1.3320312"
     inkscape:cx="249.99413"
     inkscape:cy="255.62463"
     inkscape:window-width="1920"
     inkscape:window-height="1005"
     inkscape:window-x="0"
     inkscape:window-y="0"
     inkscape:window-maximized="1"
     inkscape:current-layer="svg8" /><g
     id="g6"
     transform="translate(0,-0.001)"><path
       d="m 511.999,256.002 c 0,141.373 -114.606,255.979 -255.98,255.979 C 114.646,511.981 0.04,397.375 0.04,256.002 0.04,114.628 114.646,0.022 256.019,0.022 c 141.374,0 255.98,114.606 255.98,255.98 z"
       style="fill:#ffffff;fill-rule:nonzero"
       id="path2" /><path
       d="M 255.998,0.001 C 114.614,0.001 0,114.618 0,255.999 0,364.455 67.475,457.17 162.707,494.47 c -2.24,-20.255 -4.261,-51.405 0.889,-73.518 4.65,-19.978 30.018,-127.248 30.018,-127.248 0,0 -7.659,-15.334 -7.659,-38.008 0,-35.596 20.632,-62.171 46.323,-62.171 21.839,0 32.391,16.399 32.391,36.061 0,21.966 -13.984,54.803 -21.203,85.235 -6.03,25.482 12.779,46.261 37.909,46.261 45.503,0 80.477,-47.976 80.477,-117.229 0,-61.293 -44.045,-104.149 -106.932,-104.149 -72.841,0 -115.597,54.634 -115.597,111.095 0,22.004 8.475,45.596 19.052,58.421 2.09,2.535 2.398,4.758 1.776,7.343 -1.945,8.087 -6.262,25.474 -7.111,29.032 -1.117,4.686 -3.711,5.681 -8.561,3.424 -31.974,-14.884 -51.963,-61.627 -51.963,-99.174 0,-80.755 58.672,-154.915 169.148,-154.915 88.806,0 157.821,63.279 157.821,147.85 0,88.229 -55.629,159.232 -132.842,159.232 -25.94,0 -50.328,-13.476 -58.674,-29.394 0,0 -12.838,48.878 -15.95,60.856 -5.782,22.237 -21.382,50.109 -31.818,67.11 C 204.156,508.001 229.61,512 255.998,512 397.387,512 512.001,397.388 512.001,255.999 512.001,114.618 397.387,0.001 255.998,0.001 Z"
       style="fill:#e71d27;fill-rule:nonzero"
       id="path4" /></g></svg>
