<svg id="Layer_3" data-name="Layer 3" xmlns="http://www.w3.org/2000/svg" xmlns:xlink="http://www.w3.org/1999/xlink" viewBox="0 0 420.22 71.69"><defs><style>.cls-1{fill:none;}.cls-2{fill:#fff;}.cls-3{clip-path:url(#clip-path);}.cls-4{fill:#bd2036;}.cls-5{fill:#00275b;}</style><clipPath id="clip-path" transform="translate(-1.53 -0.83)"><rect class="cls-1" x="1.53" y="0.83" width="420.22" height="71.69"/></clipPath></defs><title>Data Science Institute_Webheader</title><polygon class="cls-2" points="14.73 0 14.72 22.71 17.07 22.71 7.81 47.29 0 47.28 0 70 75.83 70 75.83 47.25 67.96 47.24 58.78 22.73 61.09 22.74 61.09 0.01 14.73 0"/><g class="cls-3"><path class="cls-4" d="M39.43,9.32,55.67,51.43s2.08,5.13,5.46,5.13H49.31s.59.09,1.18-.9a2,2,0,0,0,0-1.41l-3.65-9.4H32l-3.66,9.4a2,2,0,0,0,.06,1.41c.59,1,1.18.9,1.18.9H17.75c3.38,0,5.47-5.13,5.47-5.13Z" transform="translate(-1.53 -0.83)"/></g><polygon class="cls-5" points="37.91 8.44 52.56 8.44 52.56 14.29 46.48 14.29 62.47 55.52 67.2 55.52 67.2 61.59 47.38 61.59 47.38 55.69 41.81 55.69 41.81 67.26 73.1 67.26 73.1 50 66.08 50.02 54.81 19.99 58.35 19.99 58.35 2.74 37.91 2.74 17.48 2.74 17.48 19.99 21.02 19.99 9.75 49.98 2.73 50 2.73 67.26 34.02 67.26 34.02 55.69 28.45 55.69 28.45 61.59 8.63 61.59 8.63 55.52 13.36 55.52 29.35 14.29 23.27 14.29 23.27 8.44 37.91 8.44"/><g class="cls-3"><path class="cls-5" d="M83.68,63.08a2.89,2.89,0,0,1,0,4.11,3.07,3.07,0,0,1-4.2,0,2.82,2.82,0,0,1-.85-2.06,2.76,2.76,0,0,1,.86-2,3,3,0,0,1,4.19,0m-.42.35a2.37,2.37,0,0,0-3.36,0,2.48,2.48,0,0,0,0,3.41,2.39,2.39,0,0,0,3.36,0,2.45,2.45,0,0,0,0-3.41m-3,0h1.34a1.34,1.34,0,0,1,.85.24.79.79,0,0,1,.31.67.88.88,0,0,1-.31.72,1.1,1.1,0,0,1-.59.25l1,1.46h-.61l-.86-1.44h-.56V66.8H80.3Zm.53,1.46h.71a.85.85,0,0,0,.54-.14.45.45,0,0,0,.17-.41.4.4,0,0,0-.17-.37,1,1,0,0,0-.54-.11h-.71Z" transform="translate(-1.53 -0.83)"/></g><polygon class="cls-2" points="37.89 39.55 43.61 39.55 38 24.78 32.19 39.55 37.89 39.55"/><rect class="cls-5" x="92.76" width="1.36" height="71.69"/><g class="cls-3"><path class="cls-5" d="M411.05,46.44a4.3,4.3,0,0,1,2.88-1c2.38,0,3.81,1.25,4.28,3.77h-8.7a4.73,4.73,0,0,1,1.54-2.79m10.7,4.34a7.26,7.26,0,0,0-.58-2.93,6.92,6.92,0,0,0-1.6-2.33A7.6,7.6,0,0,0,417.14,44a8.39,8.39,0,0,0-3.05-.54,9.43,9.43,0,0,0-3.11.49,7.19,7.19,0,0,0-2.5,1.46A7.58,7.58,0,0,0,407,47.16a8.6,8.6,0,0,0-1,2.17,7.93,7.93,0,0,0-.34,2.31A7.74,7.74,0,0,0,407,55.9a8,8,0,0,0,3.39,2.93,11.25,11.25,0,0,0,4.93,1.05c.54,0,1.08,0,1.61-.08a10.16,10.16,0,0,0,1.53-.26c.48-.12,1-.28,1.52-.47l1.82-3.21a11.59,11.59,0,0,1-1.78,1,7.79,7.79,0,0,1-1.83.56,11,11,0,0,1-2,.18,7.76,7.76,0,0,1-3.49-.75,5.35,5.35,0,0,1-2.33-2.16,7.25,7.25,0,0,1-.92-3.36h12.38Zm-19.06-4.65a4.67,4.67,0,0,1,1.29.13,2.23,2.23,0,0,1,.81.47v-3a6.3,6.3,0,0,1-2,.2H400.2v-5h-1.31v.42a5.84,5.84,0,0,1-1.24,4.14,4.6,4.6,0,0,1-2.78,1.46v1.22h2.31v7.42a24,24,0,0,0,.09,2.43,4.28,4.28,0,0,0,.34,1.33,4.78,4.78,0,0,0,4.22,2.57,3.56,3.56,0,0,0,1.22-.21l1.74-2.38a3.92,3.92,0,0,1-1.4.28,3.12,3.12,0,0,1-2.58-1.15,2.59,2.59,0,0,1-.49-1.09,12.46,12.46,0,0,1-.12-2.06V46.13Zm-9,13.29a5.23,5.23,0,0,1-.88-.83,1.79,1.79,0,0,1-.32-.83,12.49,12.49,0,0,1-.08-1.65V43.26a2.51,2.51,0,0,1-1.93.64h-2.37a4.26,4.26,0,0,1,.88.81,1.91,1.91,0,0,1,.32.88,12.91,12.91,0,0,1,.08,1.63v6a4,4,0,0,1-1.06,2.92,3.77,3.77,0,0,1-2.83,1.1,3.41,3.41,0,0,1-3.64-2.63,8.31,8.31,0,0,1-.19-2V43.26a2.65,2.65,0,0,1-2,.64h-2.29a4.36,4.36,0,0,1,.89.83,1.65,1.65,0,0,1,.32.79,15.05,15.05,0,0,1,.07,1.7v6a7.7,7.7,0,0,0,.95,4.27,4.83,4.83,0,0,0,2.06,1.74,6.82,6.82,0,0,0,3,.63,6.51,6.51,0,0,0,1.91-.25,4.21,4.21,0,0,0,1.41-.76,10.55,10.55,0,0,0,1.55-1.64v2.19ZM373.76,46.13a4.67,4.67,0,0,1,1.29.13,2.23,2.23,0,0,1,.81.47v-3a6.3,6.3,0,0,1-2,.2h-2.61v-5H370v.42a5.84,5.84,0,0,1-1.25,4.14,4.57,4.57,0,0,1-2.77,1.46v1.22h2.31v7.42a24,24,0,0,0,.09,2.43,4.28,4.28,0,0,0,.34,1.33,4.78,4.78,0,0,0,4.22,2.57,3.56,3.56,0,0,0,1.22-.21l1.74-2.38a4,4,0,0,1-1.4.28,3.16,3.16,0,0,1-2.59-1.15,2.58,2.58,0,0,1-.48-1.09,12.46,12.46,0,0,1-.12-2.06V46.13Zm-13.3-7.85a2,2,0,0,0-.62,1.46,2.07,2.07,0,0,0,.6,1.51,2,2,0,0,0,1.47.61,2,2,0,0,0,1.5-.61,2.07,2.07,0,0,0,.6-1.51,2,2,0,0,0-.59-1.45,1.94,1.94,0,0,0-1.45-.62,2.08,2.08,0,0,0-1.51.61m1.08,5.62H359.2a4.77,4.77,0,0,1,.9.83,1.75,1.75,0,0,1,.31.79,15.05,15.05,0,0,1,.07,1.7v8.89a15.1,15.1,0,0,1-.07,1.69,1.84,1.84,0,0,1-.31.8,4.8,4.8,0,0,1-.9.82h5.57a6.17,6.17,0,0,1-.88-.83,1.78,1.78,0,0,1-.31-.83,10.94,10.94,0,0,1-.08-1.65V43.26a2.57,2.57,0,0,1-2,.64m-6,2.23a4.67,4.67,0,0,1,1.29.13,2.23,2.23,0,0,1,.81.47v-3a6.3,6.3,0,0,1-2,.2H353v-5h-1.3v.42a5.84,5.84,0,0,1-1.25,4.14,4.57,4.57,0,0,1-2.77,1.46v1.22H350v7.42a20.83,20.83,0,0,0,.1,2.43,4,4,0,0,0,.34,1.33,4.78,4.78,0,0,0,4.22,2.57,3.5,3.5,0,0,0,1.21-.21l1.75-2.38a4,4,0,0,1-1.4.28,3.14,3.14,0,0,1-2.59-1.15,2.46,2.46,0,0,1-.48-1.09,12.2,12.2,0,0,1-.13-2.06V46.13Zm-14.2-2.68a10.36,10.36,0,0,0-3.53.54,4.87,4.87,0,0,0-2.28,1.56A3.87,3.87,0,0,0,334.7,48a3.41,3.41,0,0,0,.46,1.83,4.2,4.2,0,0,0,1.53,1.39,18,18,0,0,0,3,1.34A18.92,18.92,0,0,1,343,53.91a1.77,1.77,0,0,1,.76,1.53,2,2,0,0,1-1,1.69,4.69,4.69,0,0,1-2.59.67,10.21,10.21,0,0,1-2-.19,9.65,9.65,0,0,1-2-.65,19.3,19.3,0,0,1-2.29-1.24L335,59a13.35,13.35,0,0,0,2.27.67,11.94,11.94,0,0,0,2.26.18,11.16,11.16,0,0,0,3.93-.64A5.7,5.7,0,0,0,346,57.4a4.42,4.42,0,0,0,.91-2.76,3.9,3.9,0,0,0-1.3-2.94,5.86,5.86,0,0,0-1.46-1,27.82,27.82,0,0,0-2.75-1c-.91-.29-1.62-.55-2.13-.77a3.28,3.28,0,0,1-1.11-.74,1.28,1.28,0,0,1-.34-.87,1.55,1.55,0,0,1,.85-1.36,4.21,4.21,0,0,1,2.25-.52,8,8,0,0,1,4.14,1.31V43.9a13.55,13.55,0,0,0-3.75-.45m-23.13.45H316a4.65,4.65,0,0,1,.89.83,1.64,1.64,0,0,1,.31.79,12.94,12.94,0,0,1,.07,1.7v8.89a13,13,0,0,1-.07,1.69,1.72,1.72,0,0,1-.31.8,4.67,4.67,0,0,1-.89.82h5.57a5.23,5.23,0,0,1-.88-.83,1.79,1.79,0,0,1-.32-.83,12.49,12.49,0,0,1-.08-1.65V49.32a3.36,3.36,0,0,1,.45-1.92,3.48,3.48,0,0,1,1.34-1.07,4.36,4.36,0,0,1,1.86-.39,4.89,4.89,0,0,1,2,.4,3.39,3.39,0,0,1,1.4,1,2.83,2.83,0,0,1,.56,1.26,9.87,9.87,0,0,1,.18,2.12v5.36a12.61,12.61,0,0,1-.08,1.62,1.81,1.81,0,0,1-.33.86,4.77,4.77,0,0,1-.9.83h5.62a3.34,3.34,0,0,1-1.08-1.2,7.11,7.11,0,0,1-.2-2.11V50.39a17.11,17.11,0,0,0-.17-2.87,4.5,4.5,0,0,0-.62-1.67A5,5,0,0,0,329,44.59a6.42,6.42,0,0,0-1.83-.85,7.76,7.76,0,0,0-2.06-.29,5.59,5.59,0,0,0-2.62.58,8.62,8.62,0,0,0-2.36,2v-2.8a2.6,2.6,0,0,1-2,.64m-9.45,13.48a2.79,2.79,0,0,1-.44,1.26,2.59,2.59,0,0,1-.95.78h6.38a2.49,2.49,0,0,1-.95-.77,3.06,3.06,0,0,1-.42-1.27,16.25,16.25,0,0,1-.12-2.25V41.57a16.32,16.32,0,0,1,.12-2.26,3,3,0,0,1,.42-1.26,2.61,2.61,0,0,1,.95-.78h-6.38a2.69,2.69,0,0,1,.95.78,2.79,2.79,0,0,1,.44,1.27,16.06,16.06,0,0,1,.12,2.25V55.13a16.25,16.25,0,0,1-.12,2.25M286,46.44a4.26,4.26,0,0,1,2.88-1c2.37,0,3.8,1.25,4.28,3.77h-8.71A4.74,4.74,0,0,1,286,46.44m10.69,4.34a7.43,7.43,0,0,0-.57-2.93,7,7,0,0,0-1.61-2.33A7.39,7.39,0,0,0,292.1,44a8.39,8.39,0,0,0-3.05-.54,9.33,9.33,0,0,0-3.1.49,7.1,7.1,0,0,0-2.5,1.46A7.61,7.61,0,0,0,282,47.16a8.6,8.6,0,0,0-1,2.17,8.27,8.27,0,0,0-.33,2.31,7.73,7.73,0,0,0,1.2,4.26,8,8,0,0,0,3.4,2.93,11.21,11.21,0,0,0,4.92,1.05c.54,0,1.08,0,1.62-.08a10.25,10.25,0,0,0,1.52-.26c.48-.12,1-.28,1.52-.47l1.82-3.21a11.52,11.52,0,0,1-1.77,1,7.79,7.79,0,0,1-1.83.56,11.19,11.19,0,0,1-2,.18,7.73,7.73,0,0,1-3.49-.75,5.32,5.32,0,0,1-2.34-2.16,7.37,7.37,0,0,1-.92-3.36h12.38ZM274,43.45a11.49,11.49,0,0,0-3.84.58,8.44,8.44,0,0,0-3,1.82A8,8,0,0,0,264.41,52a7.32,7.32,0,0,0,.69,3.15A7.49,7.49,0,0,0,267,57.66a8.88,8.88,0,0,0,2.9,1.64,11.25,11.25,0,0,0,3.67.58,12.3,12.3,0,0,0,4.3-.61l2-3.29a10.09,10.09,0,0,1-1.71.91,8.6,8.6,0,0,1-3.43.71,7.39,7.39,0,0,1-3.51-.82,6.11,6.11,0,0,1-2.47-2.28,6.37,6.37,0,0,1-.21-6.15,4.7,4.7,0,0,1,2-2,6.31,6.31,0,0,1,2.94-.68,5.78,5.78,0,0,1,4.2,1.63V43.87a16.14,16.14,0,0,0-3.67-.42m-25.46.45h-2.16a4.65,4.65,0,0,1,.89.83,1.76,1.76,0,0,1,.32.79,15.05,15.05,0,0,1,.07,1.7v8.89a15.1,15.1,0,0,1-.07,1.69,1.85,1.85,0,0,1-.32.8,4.67,4.67,0,0,1-.89.82H252a5.66,5.66,0,0,1-.88-.83,1.9,1.9,0,0,1-.32-.83,13,13,0,0,1-.07-1.65V49.32a3.36,3.36,0,0,1,.45-1.92,3.41,3.41,0,0,1,1.34-1.07,4.32,4.32,0,0,1,1.85-.39,4.89,4.89,0,0,1,2,.4,3.36,3.36,0,0,1,1.41,1,2.94,2.94,0,0,1,.56,1.26,10.68,10.68,0,0,1,.17,2.12v5.36a12.61,12.61,0,0,1-.08,1.62,1.81,1.81,0,0,1-.33.86,4.47,4.47,0,0,1-.9.83h5.62a3.34,3.34,0,0,1-1.08-1.2,7.22,7.22,0,0,1-.19-2.11V50.39a16.89,16.89,0,0,0-.18-2.87,4.5,4.5,0,0,0-.62-1.67,5,5,0,0,0-1.28-1.26,6.24,6.24,0,0,0-1.82-.85,7.83,7.83,0,0,0-2.07-.29,5.55,5.55,0,0,0-2.61.58,8.5,8.5,0,0,0-2.37,2v-2.8a2.57,2.57,0,0,1-2,.64M233.7,46.44a4.3,4.3,0,0,1,2.88-1c2.38,0,3.8,1.25,4.28,3.77h-8.7a4.73,4.73,0,0,1,1.54-2.79m10.69,4.34a7.43,7.43,0,0,0-.57-2.93,7,7,0,0,0-1.61-2.33A7.45,7.45,0,0,0,239.79,44a8.49,8.49,0,0,0-3.06-.54,9.37,9.37,0,0,0-3.1.49,7.19,7.19,0,0,0-2.5,1.46,7.88,7.88,0,0,0-1.45,1.76,9.37,9.37,0,0,0-1,2.17,8.27,8.27,0,0,0-.33,2.31,7.66,7.66,0,0,0,1.21,4.26A7.91,7.91,0,0,0,233,58.83a11.25,11.25,0,0,0,4.93,1.05c.54,0,1.07,0,1.61-.08a10.25,10.25,0,0,0,1.52-.26,15.32,15.32,0,0,0,1.52-.47l1.82-3.21a11.52,11.52,0,0,1-1.77,1,7.79,7.79,0,0,1-1.83.56,11.19,11.19,0,0,1-2,.18,7.76,7.76,0,0,1-3.49-.75,5.3,5.3,0,0,1-2.33-2.16,7.13,7.13,0,0,1-.92-3.36h12.37Zm-22.08-12.5a2,2,0,0,0-.62,1.46,2.07,2.07,0,0,0,.6,1.51,2,2,0,0,0,1.47.61,2,2,0,0,0,1.5-.61,2.07,2.07,0,0,0,.6-1.51,2,2,0,0,0-.59-1.45,1.94,1.94,0,0,0-1.45-.62,2.08,2.08,0,0,0-1.51.61m1.08,5.62h-2.34a4.47,4.47,0,0,1,.9.83,1.75,1.75,0,0,1,.31.79,15.05,15.05,0,0,1,.07,1.7v8.89a15.1,15.1,0,0,1-.07,1.69,1.84,1.84,0,0,1-.31.8,4.49,4.49,0,0,1-.9.82h5.58a5.23,5.23,0,0,1-.88-.83,1.68,1.68,0,0,1-.32-.83,10.94,10.94,0,0,1-.08-1.65V43.26a2.57,2.57,0,0,1-2,.64m-8.95-.45a11.57,11.57,0,0,0-3.84.58,8.53,8.53,0,0,0-3,1.82A8,8,0,0,0,204.85,52a7.39,7.39,0,0,0,2.61,5.69,8.83,8.83,0,0,0,2.91,1.64,11.19,11.19,0,0,0,3.66.58,12.3,12.3,0,0,0,4.3-.61l2-3.29a10.09,10.09,0,0,1-1.71.91,8.13,8.13,0,0,1-1.72.54,8.27,8.27,0,0,1-1.71.17,7.39,7.39,0,0,1-3.51-.82,6.17,6.17,0,0,1-2.47-2.28,6.37,6.37,0,0,1-.21-6.15,4.76,4.76,0,0,1,2-2,6.31,6.31,0,0,1,2.94-.68,5.78,5.78,0,0,1,4.2,1.63V43.87a16.14,16.14,0,0,0-3.67-.42m-18.72-6.73a12.42,12.42,0,0,0-4.43.73,6.63,6.63,0,0,0-2.92,2.08,5.09,5.09,0,0,0-1,3.16,5,5,0,0,0,.47,2.11,5.49,5.49,0,0,0,1.27,1.78,10.52,10.52,0,0,0,1.74,1.25,32.37,32.37,0,0,0,2.92,1.43c1.39.63,2.37,1.1,2.95,1.42a6.61,6.61,0,0,1,1.36.93,3.09,3.09,0,0,1,1.1,2.4,2.62,2.62,0,0,1-.66,1.75A4.41,4.41,0,0,1,196.67,57a6.79,6.79,0,0,1-2.54.46,11.68,11.68,0,0,1-7.39-2.68l1,4.17a20.67,20.67,0,0,0,3,.81,16.06,16.06,0,0,0,3,.25,9.77,9.77,0,0,0,7.06-2.49,7.27,7.27,0,0,0,1.51-2.13,5.68,5.68,0,0,0,.56-2.43A4.6,4.6,0,0,0,201,49.29a9.6,9.6,0,0,0-1.69-1.14c-.64-.34-1.71-.87-3.22-1.57S193.64,45.39,193,45a4.62,4.62,0,0,1-1.44-1.26,2.67,2.67,0,0,1-.41-1.48A2.71,2.71,0,0,1,192.32,40a5.45,5.45,0,0,1,3.22-.88,7.4,7.4,0,0,1,2.85.57,7.78,7.78,0,0,1,2.47,1.64V37.45a19.21,19.21,0,0,0-5.14-.73M172,57.7a2.38,2.38,0,0,0,1,1.18,4.16,4.16,0,0,0,1.28.52,13.79,13.79,0,0,0,1.88.24l1.47-2.19a3.4,3.4,0,0,1-2-.55A1.77,1.77,0,0,1,175,56a8.67,8.67,0,0,1-.14-1.92V49.72a20.62,20.62,0,0,0-.11-2.57,4,4,0,0,0-.56-1.44c-.94-1.51-2.84-2.26-5.68-2.26a11.91,11.91,0,0,0-2.34.22l-2.22,3.38A17.37,17.37,0,0,1,166.5,46a7.24,7.24,0,0,1,2-.27,4.84,4.84,0,0,1,1.67.26,2.55,2.55,0,0,1,1.15.76,1.7,1.7,0,0,1,.4,1.13,1.53,1.53,0,0,1-.75,1.37,10.68,10.68,0,0,1-3.05.91,16.49,16.49,0,0,0-4.42,1.31,3.37,3.37,0,0,0-1.37,1.4,4.08,4.08,0,0,0-.51,2,4.86,4.86,0,0,0,1.71,3.74,5.8,5.8,0,0,0,4,1.31,7.88,7.88,0,0,0,1.85-.21l2-2.5a8.86,8.86,0,0,1-2.52.43,4.18,4.18,0,0,1-2.63-.73,2.4,2.4,0,0,1-.94-2q0-2,2.43-2.58l2.34-.56c.35-.1.67-.19,1-.29a9.14,9.14,0,0,0,1-.43v4.34A7.73,7.73,0,0,0,172,57.7M158.24,46.13a4.67,4.67,0,0,1,1.29.13,2.23,2.23,0,0,1,.81.47v-3a6.3,6.3,0,0,1-2,.2h-2.61v-5h-1.31v.42a5.84,5.84,0,0,1-1.25,4.14,4.57,4.57,0,0,1-2.77,1.46v1.22h2.31v7.42a24,24,0,0,0,.09,2.43,4,4,0,0,0,.34,1.33,4.78,4.78,0,0,0,4.22,2.57,3.46,3.46,0,0,0,1.21-.21l1.75-2.38a4,4,0,0,1-1.4.28,3.16,3.16,0,0,1-2.59-1.15,2.46,2.46,0,0,1-.48-1.09,12.46,12.46,0,0,1-.12-2.06V46.13ZM144.78,57.7a2.38,2.38,0,0,0,1,1.18,4.06,4.06,0,0,0,1.28.52,13.57,13.57,0,0,0,1.88.24l1.46-2.19a3.45,3.45,0,0,1-2-.55,1.75,1.75,0,0,1-.71-.91,8.67,8.67,0,0,1-.14-1.92V49.72a18.32,18.32,0,0,0-.12-2.57,3.93,3.93,0,0,0-.55-1.44q-1.42-2.26-5.68-2.26a11.91,11.91,0,0,0-2.34.22l-2.23,3.38a17.81,17.81,0,0,1,2.6-1.07,7.32,7.32,0,0,1,2-.27,4.84,4.84,0,0,1,1.67.26,2.61,2.61,0,0,1,1.15.76,1.7,1.7,0,0,1,.4,1.13,1.53,1.53,0,0,1-.75,1.37,10.68,10.68,0,0,1-3.05.91,16.37,16.37,0,0,0-4.42,1.31,3.31,3.31,0,0,0-1.37,1.4,4.08,4.08,0,0,0-.51,2,4.86,4.86,0,0,0,1.71,3.74,5.75,5.75,0,0,0,4,1.31,7.91,7.91,0,0,0,1.86-.21l2-2.5a8.75,8.75,0,0,1-2.52.43,4.16,4.16,0,0,1-2.62-.73,2.4,2.4,0,0,1-.94-2q0-2,2.43-2.58l2.34-.56c.35-.1.66-.19,1-.29a9.09,9.09,0,0,0,1-.43v4.34a7.65,7.65,0,0,0,.26,2.36M120.05,39.49a11.17,11.17,0,0,1,3.91.65,7.17,7.17,0,0,1,2.86,1.91,8.41,8.41,0,0,1,1.71,2.88,10.22,10.22,0,0,1,.61,3.52,8,8,0,0,1-3.28,6.83,7.81,7.81,0,0,1-2.69,1.23,15.24,15.24,0,0,1-3.71.39,13.26,13.26,0,0,1-2.49-.22V39.85a15.77,15.77,0,0,1,3.08-.36m3,19.68a11.16,11.16,0,0,0,3.37-.87,10.21,10.21,0,0,0,3.38-2.39,11.07,11.07,0,0,0,2.27-3.59,11.5,11.5,0,0,0,.8-4.22,11.06,11.06,0,0,0-.44-3.13,10.21,10.21,0,0,0-1.28-2.76,10.1,10.1,0,0,0-2-2.23,10.67,10.67,0,0,0-2.45-1.58,12,12,0,0,0-2.85-.91,19.16,19.16,0,0,0-3.44-.28q-1.64,0-2.64,0c-.61,0-1.36,0-2.23,0h-3.39a2.79,2.79,0,0,1,1,.78,3,3,0,0,1,.44,1.27,16.06,16.06,0,0,1,.12,2.25V55a9.83,9.83,0,0,1-.3,3,1.74,1.74,0,0,1-.26.59c-.1.11-.41.42-1,.9h5.43a46.51,46.51,0,0,0,5.52-.25" transform="translate(-1.53 -0.83)"/><path class="cls-5" d="M347.49,26.21H349v-9h3V16h-7.25v1.21h2.83Zm-6.51.13a6.12,6.12,0,0,0,2.51-.46V24.55a4.65,4.65,0,0,1-2.26.54c-2.19,0-3.42-1.48-3.42-3.86,0-2.57,1.07-4.15,3.27-4.15a4.14,4.14,0,0,1,2.23.53V16.26a5.71,5.71,0,0,0-2.35-.43c-3.15,0-4.72,2.4-4.72,5.4s1.68,5.11,4.74,5.11m-15-.13h1.48l.88-2.55h4.34l.86,2.55h1.59L331.46,16h-1.73Zm2.78-3.75,1.08-3.11c.26-.74.58-1.66.71-2.17h0c.1.46.38,1.28.61,2l1.1,3.29Zm-8-1.33v-4h1.59a1.78,1.78,0,0,1,1.94,2,1.81,1.81,0,0,1-1.94,2Zm-1.46,5.08h1.46v-4h1.91a3,3,0,0,0,3.14-3.12A2.94,2.94,0,0,0,322.63,16h-3.38Zm-13.86,0h1.33l.8-6.5c.09-.69.17-1.77.2-2.25h0c.09.46.3,1.37.48,2l1.88,6.74h1.67l1.89-6.69c.18-.68.35-1.5.46-2h0c.05.54.08,1.38.18,2.14l.87,6.59h1.36L315.22,16h-1.86l-1.84,6.64c-.18.69-.4,1.69-.53,2.41h0c-.12-.72-.33-1.75-.53-2.45L308.59,16h-1.87Zm-4.19,0h1.46V16H301.2Zm-11.51-1c-1.35,0-2.11-.73-2.11-1.69a2.37,2.37,0,0,1,1.48-2.07c.68.79,2.73,3,2.73,3a3.4,3.4,0,0,1-2.1.8m-.18-5.12c-.83-.86-1.09-1.35-1.09-1.93a1.34,1.34,0,0,1,1.46-1.3,1.28,1.28,0,0,1,1.37,1.22c0,.76-.54,1.33-1.74,2m.13,6.26a4.57,4.57,0,0,0,2.94-1.09,2.75,2.75,0,0,0,1.92,1.09,2,2,0,0,0,.89-.18V25.11a1.46,1.46,0,0,1-.52.08c-.5,0-.88-.36-1.4-.87a6.81,6.81,0,0,0,1.26-2.9l-1.24-.21a7.21,7.21,0,0,1-.86,2.24S291,21.67,290.2,20.8c1.59-.87,2.35-1.66,2.35-2.76a2.38,2.38,0,0,0-2.65-2.21c-1.64,0-2.83.94-2.83,2.39a3.52,3.52,0,0,0,1.27,2.46c-1.51.83-2.2,1.62-2.2,2.88,0,1.55,1.26,2.78,3.5,2.78m-17.51-.13h1.33V19.43c0-.54,0-.93,0-1.38h0c.25.5.54,1.06.86,1.57l4.12,6.59H280V16h-1.33v6.77c0,.54,0,1,0,1.45h0a13.29,13.29,0,0,0-.88-1.62L273.66,16h-1.53ZM265,25.12c-2.09,0-3-1.64-3-4s.92-4,3-4,3,1.64,3,4-.93,4-3,4m0,1.22c3.15,0,4.58-2.48,4.58-5.26s-1.43-5.25-4.58-5.25-4.59,2.49-4.59,5.26c0,2.93,1.43,5.25,4.59,5.25m-8.58-.13h1.46V16h-1.46Zm-6.28,0h1.46v-9h3V16h-7.25v1.21h2.83Zm-12,0h1.48l.88-2.55h4.35l.85,2.55h1.59L243.72,16H242ZM241,22.46l1.08-3.11c.26-.74.58-1.66.71-2.17h0c.1.46.38,1.28.61,2l1.1,3.29Zm-8,3.75h1.58L238.18,16H236.7l-2.19,6.44c-.26.76-.57,1.86-.7,2.37h0c-.12-.51-.43-1.6-.68-2.37L231,16h-1.61Zm-9.17-1.09c-2.09,0-3-1.64-3-4s.92-4,3-4,3,1.64,3,4-.93,4-3,4m0,1.22c3.16,0,4.59-2.48,4.59-5.26s-1.43-5.25-4.59-5.25-4.59,2.49-4.59,5.26c0,2.93,1.43,5.25,4.59,5.25m-15-.13h1.33V19.43c0-.54,0-.93,0-1.38h0c.25.5.54,1.06.86,1.57l4.12,6.59h1.56V16h-1.33v6.77c0,.54,0,1,0,1.45h-.05a13.29,13.29,0,0,0-.88-1.62L210.35,16h-1.53Zm-11,0h1.33V19.43c0-.54,0-.93,0-1.38h0c.25.5.54,1.06.86,1.57l4.12,6.59h1.57V16h-1.34v6.77c0,.54,0,1,0,1.45h-.05a14.74,14.74,0,0,0-.87-1.62L199.35,16h-1.53Zm-4.62,0h1.46V16H193.2Zm-8.28,2.25a4,4,0,0,0,1.57-2.86,5.7,5.7,0,0,0-.08-1h-1.53a4.08,4.08,0,0,1,.13,1.11,2.73,2.73,0,0,1-.78,2.14Zm-10.81-2.25h1.47V21.46h5v4.75h1.47V16h-1.47v4.32h-5V16h-1.47Zm-4.94.13a6.18,6.18,0,0,0,2.51-.46V24.55a4.66,4.66,0,0,1-2.27.54c-2.18,0-3.42-1.48-3.42-3.86,0-2.57,1.07-4.15,3.28-4.15a4.16,4.16,0,0,1,2.23.53V16.26a5.75,5.75,0,0,0-2.35-.43c-3.16,0-4.72,2.4-4.72,5.4s1.68,5.11,4.74,5.11m-12-5.72v-3.5h1.61c1.32,0,1.92.59,1.92,1.76s-.64,1.74-1.92,1.74Zm5.47,5.69a2.35,2.35,0,0,0,.6-.07V25.09l-.37,0a1,1,0,0,1-.88-.54l-2.06-3a2.82,2.82,0,0,0-.82-5.57h-3.4V26.21h1.46V21.69h1.28l2.3,3.51a2.06,2.06,0,0,0,1.89,1.11m-18-.1h1.48l.89-2.55h4.34l.85,2.55h1.6L150.15,16h-1.73Zm2.78-3.75,1.08-3.11c.27-.74.58-1.66.71-2.17h0c.1.46.38,1.28.61,2l1.1,3.29Zm-9.78,3.75h5.6V25h-4.14V21.33h3.54V20.16h-3.54v-3h4.14V16h-5.6Zm-5.76.13c2,0,3.36-1.14,3.36-2.91,0-2-1.43-2.58-2.71-3.14s-1.93-.82-1.93-1.78.64-1.48,1.84-1.48a5.55,5.55,0,0,1,2.32.53V16.28a7.7,7.7,0,0,0-2.38-.45c-1.91,0-3.24.91-3.24,2.7s1.07,2.33,2.15,2.83c1.5.69,2.4.95,2.4,2.14s-.79,1.64-2,1.64a6.88,6.88,0,0,1-2.57-.63v1.3a7.21,7.21,0,0,0,2.81.53m-10.4-.13h5.6V25h-4.14V21.33h3.54V20.16h-3.54v-3h4.14V16h-5.6Zm-8-5.59v-3.5H115c1.32,0,1.92.59,1.92,1.76s-.64,1.74-1.92,1.74Zm5.47,5.69a2.35,2.35,0,0,0,.6-.07V25.09l-.37,0a1,1,0,0,1-.88-.54l-2.06-3a2.82,2.82,0,0,0-.82-5.57H112V26.21h1.46V21.69h1.28L117,25.2a2.06,2.06,0,0,0,1.89,1.11" transform="translate(-1.53 -0.83)"/></g></svg>