<?xml version="1.0" encoding="UTF-8" standalone="no"?>
<svg
   id="Layer_3"
   data-name="Layer 3"
   viewBox="0 0 309.82999 44.210234"
   version="1.1"
   sodipodi:docname="ua_dsi.svg"
   width="309.82999"
   height="44.210236"
   inkscape:version="1.1.2 (0a00cf5339, 2022-02-04)"
   xmlns:inkscape="http://www.inkscape.org/namespaces/inkscape"
   xmlns:sodipodi="http://sodipodi.sourceforge.net/DTD/sodipodi-0.dtd"
   xmlns="http://www.w3.org/2000/svg"
   xmlns:svg="http://www.w3.org/2000/svg"
   xmlns:rdf="http://www.w3.org/1999/02/22-rdf-syntax-ns#"
   xmlns:cc="http://creativecommons.org/ns#"
   xmlns:dc="http://purl.org/dc/elements/1.1/">
  <sodipodi:namedview
     id="namedview34"
     pagecolor="#ffffff"
     bordercolor="#666666"
     borderopacity="1.0"
     inkscape:pageshadow="2"
     inkscape:pageopacity="0.0"
     inkscape:pagecheckerboard="0"
     showgrid="false"
     inkscape:zoom="2.6795488"
     inkscape:cx="96.658064"
     inkscape:cy="21.085639"
     inkscape:window-width="1920"
     inkscape:window-height="1005"
     inkscape:window-x="0"
     inkscape:window-y="0"
     inkscape:window-maximized="1"
     inkscape:current-layer="Layer_3"
     fit-margin-top="0"
     fit-margin-left="0"
     fit-margin-right="0"
     fit-margin-bottom="0" />
  <defs
     id="defs7">
    <style
       id="style2">.cls-1{fill:none;}.cls-2{fill:#fff;}.cls-3{clip-path:url(#clip-path);}.cls-4{fill:#bd2036;}.cls-5{fill:#00275b;}</style>
    <clipPath
       id="clip-path"
       transform="translate(-1.53 -0.83)">
      <rect
         class="cls-1"
         x="1.53"
         y="0.82999998"
         width="420.22"
         height="71.690002"
         id="rect4" />
    </clipPath>
  </defs>
  <title
     id="title9">Data Science Institute_Webheader</title>
  <g
     class="cls-3"
     clip-path="url(#clip-path)"
     id="g31"
     transform="translate(-110.47,-14.98406)">
    <path
       class="cls-5"
       d="m 411.05,46.44 a 4.3,4.3 0 0 1 2.88,-1 c 2.38,0 3.81,1.25 4.28,3.77 h -8.7 a 4.73,4.73 0 0 1 1.54,-2.79 m 10.7,4.34 a 7.26,7.26 0 0 0 -0.58,-2.93 6.92,6.92 0 0 0 -1.6,-2.33 7.6,7.6 0 0 0 -2.43,-1.5 8.39,8.39 0 0 0 -3.05,-0.54 9.43,9.43 0 0 0 -3.11,0.49 7.19,7.19 0 0 0 -2.5,1.46 7.58,7.58 0 0 0 -1.48,1.75 8.6,8.6 0 0 0 -1,2.17 7.93,7.93 0 0 0 -0.34,2.31 7.74,7.74 0 0 0 1.34,4.26 8,8 0 0 0 3.39,2.93 11.25,11.25 0 0 0 4.93,1.05 c 0.54,0 1.08,0 1.61,-0.08 a 10.16,10.16 0 0 0 1.53,-0.26 c 0.48,-0.12 1,-0.28 1.52,-0.47 l 1.82,-3.21 a 11.59,11.59 0 0 1 -1.78,1 7.79,7.79 0 0 1 -1.83,0.56 11,11 0 0 1 -2,0.18 7.76,7.76 0 0 1 -3.49,-0.75 5.35,5.35 0 0 1 -2.33,-2.16 7.25,7.25 0 0 1 -0.92,-3.36 h 12.38 z m -19.06,-4.65 a 4.67,4.67 0 0 1 1.29,0.13 2.23,2.23 0 0 1 0.81,0.47 v -3 a 6.3,6.3 0 0 1 -2,0.2 h -2.59 v -5 h -1.31 v 0.42 a 5.84,5.84 0 0 1 -1.24,4.14 4.6,4.6 0 0 1 -2.78,1.46 v 1.22 h 2.31 v 7.42 a 24,24 0 0 0 0.09,2.43 4.28,4.28 0 0 0 0.34,1.33 4.78,4.78 0 0 0 4.22,2.57 3.56,3.56 0 0 0 1.22,-0.21 l 1.74,-2.38 a 3.92,3.92 0 0 1 -1.4,0.28 3.12,3.12 0 0 1 -2.58,-1.15 2.59,2.59 0 0 1 -0.49,-1.09 12.46,12.46 0 0 1 -0.12,-2.06 v -7.16 z m -9,13.29 a 5.23,5.23 0 0 1 -0.88,-0.83 1.79,1.79 0 0 1 -0.32,-0.83 12.49,12.49 0 0 1 -0.08,-1.65 V 43.26 a 2.51,2.51 0 0 1 -1.93,0.64 h -2.37 a 4.26,4.26 0 0 1 0.88,0.81 1.91,1.91 0 0 1 0.32,0.88 12.91,12.91 0 0 1 0.08,1.63 v 6 a 4,4 0 0 1 -1.06,2.92 3.77,3.77 0 0 1 -2.83,1.1 3.41,3.41 0 0 1 -3.64,-2.63 8.31,8.31 0 0 1 -0.19,-2 v -9.35 a 2.65,2.65 0 0 1 -2,0.64 h -2.29 a 4.36,4.36 0 0 1 0.89,0.83 1.65,1.65 0 0 1 0.32,0.79 15.05,15.05 0 0 1 0.07,1.7 v 6 a 7.7,7.7 0 0 0 0.95,4.27 4.83,4.83 0 0 0 2.06,1.74 6.82,6.82 0 0 0 3,0.63 6.51,6.51 0 0 0 1.91,-0.25 4.21,4.21 0 0 0 1.41,-0.76 10.55,10.55 0 0 0 1.55,-1.64 V 59.4 Z M 373.76,46.13 a 4.67,4.67 0 0 1 1.29,0.13 2.23,2.23 0 0 1 0.81,0.47 v -3 a 6.3,6.3 0 0 1 -2,0.2 h -2.61 v -5 H 370 v 0.42 a 5.84,5.84 0 0 1 -1.25,4.14 4.57,4.57 0 0 1 -2.77,1.46 v 1.22 h 2.31 v 7.42 a 24,24 0 0 0 0.09,2.43 4.28,4.28 0 0 0 0.34,1.33 4.78,4.78 0 0 0 4.22,2.57 3.56,3.56 0 0 0 1.22,-0.21 l 1.74,-2.38 a 4,4 0 0 1 -1.4,0.28 3.16,3.16 0 0 1 -2.59,-1.15 2.58,2.58 0 0 1 -0.48,-1.09 12.46,12.46 0 0 1 -0.12,-2.06 v -7.18 z m -13.3,-7.85 a 2,2 0 0 0 -0.62,1.46 2.07,2.07 0 0 0 0.6,1.51 2,2 0 0 0 1.47,0.61 2,2 0 0 0 1.5,-0.61 2.07,2.07 0 0 0 0.6,-1.51 2,2 0 0 0 -0.59,-1.45 1.94,1.94 0 0 0 -1.45,-0.62 2.08,2.08 0 0 0 -1.51,0.61 m 1.08,5.62 h -2.34 a 4.77,4.77 0 0 1 0.9,0.83 1.75,1.75 0 0 1 0.31,0.79 15.05,15.05 0 0 1 0.07,1.7 v 8.89 a 15.1,15.1 0 0 1 -0.07,1.69 1.84,1.84 0 0 1 -0.31,0.8 4.8,4.8 0 0 1 -0.9,0.82 h 5.57 a 6.17,6.17 0 0 1 -0.88,-0.83 1.78,1.78 0 0 1 -0.31,-0.83 10.94,10.94 0 0 1 -0.08,-1.65 V 43.26 a 2.57,2.57 0 0 1 -2,0.64 m -6,2.23 a 4.67,4.67 0 0 1 1.29,0.13 2.23,2.23 0 0 1 0.81,0.47 v -3 a 6.3,6.3 0 0 1 -2,0.2 H 353 v -5 h -1.3 v 0.42 a 5.84,5.84 0 0 1 -1.25,4.14 4.57,4.57 0 0 1 -2.77,1.46 v 1.22 H 350 v 7.42 a 20.83,20.83 0 0 0 0.1,2.43 4,4 0 0 0 0.34,1.33 4.78,4.78 0 0 0 4.22,2.57 3.5,3.5 0 0 0 1.21,-0.21 l 1.75,-2.38 a 4,4 0 0 1 -1.4,0.28 3.14,3.14 0 0 1 -2.59,-1.15 2.46,2.46 0 0 1 -0.48,-1.09 12.2,12.2 0 0 1 -0.13,-2.06 v -7.18 z m -14.2,-2.68 a 10.36,10.36 0 0 0 -3.53,0.54 4.87,4.87 0 0 0 -2.28,1.56 3.87,3.87 0 0 0 -0.79,2.45 3.41,3.41 0 0 0 0.46,1.83 4.2,4.2 0 0 0 1.53,1.39 18,18 0 0 0 3,1.34 18.92,18.92 0 0 1 3.31,1.35 1.77,1.77 0 0 1 0.76,1.53 2,2 0 0 1 -1,1.69 4.69,4.69 0 0 1 -2.59,0.67 10.21,10.21 0 0 1 -2,-0.19 9.65,9.65 0 0 1 -2,-0.65 19.3,19.3 0 0 1 -2.29,-1.24 L 335,59 a 13.35,13.35 0 0 0 2.27,0.67 11.94,11.94 0 0 0 2.26,0.18 11.16,11.16 0 0 0 3.93,-0.64 5.7,5.7 0 0 0 2.54,-1.81 4.42,4.42 0 0 0 0.91,-2.76 3.9,3.9 0 0 0 -1.3,-2.94 5.86,5.86 0 0 0 -1.46,-1 27.82,27.82 0 0 0 -2.75,-1 c -0.91,-0.29 -1.62,-0.55 -2.13,-0.77 a 3.28,3.28 0 0 1 -1.11,-0.74 1.28,1.28 0 0 1 -0.34,-0.87 1.55,1.55 0 0 1 0.85,-1.36 4.21,4.21 0 0 1 2.25,-0.52 8,8 0 0 1 4.14,1.31 V 43.9 a 13.55,13.55 0 0 0 -3.75,-0.45 M 318.18,43.9 H 316 a 4.65,4.65 0 0 1 0.89,0.83 1.64,1.64 0 0 1 0.31,0.79 12.94,12.94 0 0 1 0.07,1.7 v 8.89 a 13,13 0 0 1 -0.07,1.69 1.72,1.72 0 0 1 -0.31,0.8 4.67,4.67 0 0 1 -0.89,0.82 h 5.57 a 5.23,5.23 0 0 1 -0.88,-0.83 1.79,1.79 0 0 1 -0.32,-0.83 12.49,12.49 0 0 1 -0.08,-1.65 v -6.79 a 3.36,3.36 0 0 1 0.45,-1.92 3.48,3.48 0 0 1 1.34,-1.07 4.36,4.36 0 0 1 1.86,-0.39 4.89,4.89 0 0 1 2,0.4 3.39,3.39 0 0 1 1.4,1 2.83,2.83 0 0 1 0.56,1.26 9.87,9.87 0 0 1 0.18,2.12 v 5.36 a 12.61,12.61 0 0 1 -0.08,1.62 1.81,1.81 0 0 1 -0.33,0.86 4.77,4.77 0 0 1 -0.9,0.83 h 5.62 a 3.34,3.34 0 0 1 -1.08,-1.2 7.11,7.11 0 0 1 -0.2,-2.11 v -5.69 a 17.11,17.11 0 0 0 -0.17,-2.87 4.5,4.5 0 0 0 -0.62,-1.67 5,5 0 0 0 -1.32,-1.26 6.42,6.42 0 0 0 -1.83,-0.85 7.76,7.76 0 0 0 -2.06,-0.29 5.59,5.59 0 0 0 -2.62,0.58 8.62,8.62 0 0 0 -2.36,2 v -2.8 a 2.6,2.6 0 0 1 -2,0.64 m -9.45,13.48 a 2.79,2.79 0 0 1 -0.44,1.26 2.59,2.59 0 0 1 -0.95,0.78 h 6.38 a 2.49,2.49 0 0 1 -0.95,-0.77 3.06,3.06 0 0 1 -0.42,-1.27 16.25,16.25 0 0 1 -0.12,-2.25 V 41.57 a 16.32,16.32 0 0 1 0.12,-2.26 3,3 0 0 1 0.42,-1.26 2.61,2.61 0 0 1 0.95,-0.78 h -6.38 a 2.69,2.69 0 0 1 0.95,0.78 2.79,2.79 0 0 1 0.44,1.27 16.06,16.06 0 0 1 0.12,2.25 v 13.56 a 16.25,16.25 0 0 1 -0.12,2.25 M 286,46.44 a 4.26,4.26 0 0 1 2.88,-1 c 2.37,0 3.8,1.25 4.28,3.77 h -8.71 A 4.74,4.74 0 0 1 286,46.44 m 10.69,4.34 a 7.43,7.43 0 0 0 -0.57,-2.93 7,7 0 0 0 -1.61,-2.33 7.39,7.39 0 0 0 -2.41,-1.52 8.39,8.39 0 0 0 -3.05,-0.54 9.33,9.33 0 0 0 -3.1,0.49 7.1,7.1 0 0 0 -2.5,1.46 7.61,7.61 0 0 0 -1.45,1.75 8.6,8.6 0 0 0 -1,2.17 8.27,8.27 0 0 0 -0.33,2.31 7.73,7.73 0 0 0 1.2,4.26 8,8 0 0 0 3.4,2.93 11.21,11.21 0 0 0 4.92,1.05 c 0.54,0 1.08,0 1.62,-0.08 a 10.25,10.25 0 0 0 1.52,-0.26 c 0.48,-0.12 1,-0.28 1.52,-0.47 l 1.82,-3.21 a 11.52,11.52 0 0 1 -1.77,1 7.79,7.79 0 0 1 -1.83,0.56 11.19,11.19 0 0 1 -2,0.18 7.73,7.73 0 0 1 -3.49,-0.75 5.32,5.32 0 0 1 -2.34,-2.16 7.37,7.37 0 0 1 -0.92,-3.36 H 296.7 Z M 274,43.45 a 11.49,11.49 0 0 0 -3.84,0.58 8.44,8.44 0 0 0 -3,1.82 8,8 0 0 0 -2.75,6.15 7.32,7.32 0 0 0 0.69,3.15 7.49,7.49 0 0 0 1.9,2.51 8.88,8.88 0 0 0 2.9,1.64 11.25,11.25 0 0 0 3.67,0.58 12.3,12.3 0 0 0 4.3,-0.61 l 2,-3.29 a 10.09,10.09 0 0 1 -1.71,0.91 8.6,8.6 0 0 1 -3.43,0.71 7.39,7.39 0 0 1 -3.51,-0.82 6.11,6.11 0 0 1 -2.47,-2.28 6.37,6.37 0 0 1 -0.21,-6.15 4.7,4.7 0 0 1 2,-2 6.31,6.31 0 0 1 2.94,-0.68 5.78,5.78 0 0 1 4.2,1.63 v -3.43 a 16.14,16.14 0 0 0 -3.67,-0.42 m -25.46,0.45 h -2.16 a 4.65,4.65 0 0 1 0.89,0.83 1.76,1.76 0 0 1 0.32,0.79 15.05,15.05 0 0 1 0.07,1.7 v 8.89 a 15.1,15.1 0 0 1 -0.07,1.69 1.85,1.85 0 0 1 -0.32,0.8 4.67,4.67 0 0 1 -0.89,0.82 H 252 a 5.66,5.66 0 0 1 -0.88,-0.83 1.9,1.9 0 0 1 -0.32,-0.83 13,13 0 0 1 -0.07,-1.65 v -6.79 a 3.36,3.36 0 0 1 0.45,-1.92 3.41,3.41 0 0 1 1.34,-1.07 4.32,4.32 0 0 1 1.85,-0.39 4.89,4.89 0 0 1 2,0.4 3.36,3.36 0 0 1 1.41,1 2.94,2.94 0 0 1 0.56,1.26 10.68,10.68 0 0 1 0.17,2.12 v 5.36 a 12.61,12.61 0 0 1 -0.08,1.62 1.81,1.81 0 0 1 -0.33,0.86 4.47,4.47 0 0 1 -0.9,0.83 h 5.62 a 3.34,3.34 0 0 1 -1.08,-1.2 7.22,7.22 0 0 1 -0.19,-2.11 v -5.69 a 16.89,16.89 0 0 0 -0.18,-2.87 4.5,4.5 0 0 0 -0.62,-1.67 5,5 0 0 0 -1.28,-1.26 6.24,6.24 0 0 0 -1.82,-0.85 7.83,7.83 0 0 0 -2.07,-0.29 5.55,5.55 0 0 0 -2.61,0.58 8.5,8.5 0 0 0 -2.37,2 v -2.8 a 2.57,2.57 0 0 1 -2,0.64 m -14.9,2.57 a 4.3,4.3 0 0 1 2.88,-1 c 2.38,0 3.8,1.25 4.28,3.77 h -8.7 a 4.73,4.73 0 0 1 1.54,-2.79 m 10.69,4.34 a 7.43,7.43 0 0 0 -0.57,-2.93 7,7 0 0 0 -1.61,-2.33 7.45,7.45 0 0 0 -2.42,-1.5 8.49,8.49 0 0 0 -3.06,-0.54 9.37,9.37 0 0 0 -3.1,0.49 7.19,7.19 0 0 0 -2.5,1.46 7.88,7.88 0 0 0 -1.45,1.76 9.37,9.37 0 0 0 -1,2.17 8.27,8.27 0 0 0 -0.33,2.31 7.66,7.66 0 0 0 1.21,4.26 7.91,7.91 0 0 0 3.44,2.92 11.25,11.25 0 0 0 4.93,1.05 c 0.54,0 1.07,0 1.61,-0.08 a 10.25,10.25 0 0 0 1.52,-0.26 15.32,15.32 0 0 0 1.52,-0.47 l 1.82,-3.21 a 11.52,11.52 0 0 1 -1.77,1 7.79,7.79 0 0 1 -1.83,0.56 11.19,11.19 0 0 1 -2,0.18 7.76,7.76 0 0 1 -3.49,-0.75 5.3,5.3 0 0 1 -2.33,-2.16 7.13,7.13 0 0 1 -0.92,-3.36 h 12.37 z m -22.08,-12.5 a 2,2 0 0 0 -0.62,1.46 2.07,2.07 0 0 0 0.6,1.51 2,2 0 0 0 1.47,0.61 2,2 0 0 0 1.5,-0.61 2.07,2.07 0 0 0 0.6,-1.51 2,2 0 0 0 -0.59,-1.45 1.94,1.94 0 0 0 -1.45,-0.62 2.08,2.08 0 0 0 -1.51,0.61 m 1.08,5.62 h -2.34 a 4.47,4.47 0 0 1 0.9,0.83 1.75,1.75 0 0 1 0.31,0.79 15.05,15.05 0 0 1 0.07,1.7 v 8.89 a 15.1,15.1 0 0 1 -0.07,1.69 1.84,1.84 0 0 1 -0.31,0.8 4.49,4.49 0 0 1 -0.9,0.82 h 5.58 a 5.23,5.23 0 0 1 -0.88,-0.83 1.68,1.68 0 0 1 -0.32,-0.83 10.94,10.94 0 0 1 -0.08,-1.65 V 43.26 a 2.57,2.57 0 0 1 -2,0.64 m -8.95,-0.45 a 11.57,11.57 0 0 0 -3.84,0.58 8.53,8.53 0 0 0 -3,1.82 8,8 0 0 0 -2.71,6.15 7.39,7.39 0 0 0 2.61,5.69 8.83,8.83 0 0 0 2.91,1.64 11.19,11.19 0 0 0 3.66,0.58 12.3,12.3 0 0 0 4.3,-0.61 l 2,-3.29 a 10.09,10.09 0 0 1 -1.71,0.91 8.13,8.13 0 0 1 -1.72,0.54 8.27,8.27 0 0 1 -1.71,0.17 7.39,7.39 0 0 1 -3.51,-0.82 6.17,6.17 0 0 1 -2.47,-2.28 6.37,6.37 0 0 1 -0.21,-6.15 4.76,4.76 0 0 1 2,-2 6.31,6.31 0 0 1 2.94,-0.68 5.78,5.78 0 0 1 4.2,1.63 v -3.46 a 16.14,16.14 0 0 0 -3.67,-0.42 m -18.72,-6.73 a 12.42,12.42 0 0 0 -4.43,0.73 6.63,6.63 0 0 0 -2.92,2.08 5.09,5.09 0 0 0 -1,3.16 5,5 0 0 0 0.47,2.11 5.49,5.49 0 0 0 1.27,1.78 10.52,10.52 0 0 0 1.74,1.25 32.37,32.37 0 0 0 2.92,1.43 c 1.39,0.63 2.37,1.1 2.95,1.42 a 6.61,6.61 0 0 1 1.36,0.93 3.09,3.09 0 0 1 1.1,2.4 2.62,2.62 0 0 1 -0.66,1.75 4.41,4.41 0 0 1 -1.88,1.24 6.79,6.79 0 0 1 -2.54,0.46 11.68,11.68 0 0 1 -7.39,-2.68 l 1,4.17 a 20.67,20.67 0 0 0 3,0.81 16.06,16.06 0 0 0 3,0.25 9.77,9.77 0 0 0 7.06,-2.49 7.27,7.27 0 0 0 1.51,-2.13 5.68,5.68 0 0 0 0.56,-2.43 4.6,4.6 0 0 0 -1.87,-3.67 9.6,9.6 0 0 0 -1.69,-1.14 c -0.64,-0.34 -1.71,-0.87 -3.22,-1.57 -1.51,-0.7 -2.45,-1.19 -3.09,-1.58 a 4.62,4.62 0 0 1 -1.44,-1.26 2.67,2.67 0 0 1 -0.41,-1.48 2.71,2.71 0 0 1 1.17,-2.26 5.45,5.45 0 0 1 3.22,-0.88 7.4,7.4 0 0 1 2.85,0.57 7.78,7.78 0 0 1 2.47,1.64 v -3.88 a 19.21,19.21 0 0 0 -5.14,-0.73 M 172,57.7 a 2.38,2.38 0 0 0 1,1.18 4.16,4.16 0 0 0 1.28,0.52 13.79,13.79 0 0 0 1.88,0.24 l 1.47,-2.19 a 3.4,3.4 0 0 1 -2,-0.55 A 1.77,1.77 0 0 1 175,56 8.67,8.67 0 0 1 174.86,54.08 v -4.36 a 20.62,20.62 0 0 0 -0.11,-2.57 4,4 0 0 0 -0.56,-1.44 c -0.94,-1.51 -2.84,-2.26 -5.68,-2.26 a 11.91,11.91 0 0 0 -2.34,0.22 l -2.22,3.38 a 17.37,17.37 0 0 1 2.55,-1.05 7.24,7.24 0 0 1 2,-0.27 4.84,4.84 0 0 1 1.67,0.26 2.55,2.55 0 0 1 1.15,0.76 1.7,1.7 0 0 1 0.4,1.13 1.53,1.53 0 0 1 -0.75,1.37 10.68,10.68 0 0 1 -3.05,0.91 16.49,16.49 0 0 0 -4.42,1.31 3.37,3.37 0 0 0 -1.37,1.4 4.08,4.08 0 0 0 -0.51,2 4.86,4.86 0 0 0 1.71,3.74 5.8,5.8 0 0 0 4,1.31 7.88,7.88 0 0 0 1.85,-0.21 l 2,-2.5 a 8.86,8.86 0 0 1 -2.52,0.43 4.18,4.18 0 0 1 -2.63,-0.73 2.4,2.4 0 0 1 -0.94,-2 q 0,-2 2.43,-2.58 l 2.34,-0.56 c 0.35,-0.1 0.67,-0.19 1,-0.29 a 9.14,9.14 0 0 0 1,-0.43 v 4.34 A 7.73,7.73 0 0 0 172,57.7 M 158.24,46.13 a 4.67,4.67 0 0 1 1.29,0.13 2.23,2.23 0 0 1 0.81,0.47 v -3 a 6.3,6.3 0 0 1 -2,0.2 h -2.61 v -5 h -1.31 v 0.42 a 5.84,5.84 0 0 1 -1.25,4.14 4.57,4.57 0 0 1 -2.77,1.46 v 1.22 h 2.31 v 7.42 a 24,24 0 0 0 0.09,2.43 4,4 0 0 0 0.34,1.33 4.78,4.78 0 0 0 4.22,2.57 3.46,3.46 0 0 0 1.21,-0.21 l 1.75,-2.38 a 4,4 0 0 1 -1.4,0.28 3.16,3.16 0 0 1 -2.59,-1.15 2.46,2.46 0 0 1 -0.48,-1.09 12.46,12.46 0 0 1 -0.12,-2.06 V 46.13 Z M 144.78,57.7 a 2.38,2.38 0 0 0 1,1.18 4.06,4.06 0 0 0 1.28,0.52 13.57,13.57 0 0 0 1.88,0.24 l 1.46,-2.19 a 3.45,3.45 0 0 1 -2,-0.55 1.75,1.75 0 0 1 -0.71,-0.91 8.67,8.67 0 0 1 -0.14,-1.92 v -4.35 a 18.32,18.32 0 0 0 -0.12,-2.57 3.93,3.93 0 0 0 -0.55,-1.44 q -1.42,-2.26 -5.68,-2.26 a 11.91,11.91 0 0 0 -2.34,0.22 l -2.23,3.38 a 17.81,17.81 0 0 1 2.6,-1.07 7.32,7.32 0 0 1 2,-0.27 4.84,4.84 0 0 1 1.67,0.26 2.61,2.61 0 0 1 1.15,0.76 1.7,1.7 0 0 1 0.4,1.13 1.53,1.53 0 0 1 -0.75,1.37 10.68,10.68 0 0 1 -3.05,0.91 16.37,16.37 0 0 0 -4.42,1.31 3.31,3.31 0 0 0 -1.37,1.4 4.08,4.08 0 0 0 -0.51,2 4.86,4.86 0 0 0 1.71,3.74 5.75,5.75 0 0 0 4,1.31 7.91,7.91 0 0 0 1.86,-0.21 l 2,-2.5 a 8.75,8.75 0 0 1 -2.52,0.43 4.16,4.16 0 0 1 -2.62,-0.73 2.4,2.4 0 0 1 -0.94,-2 q 0,-2 2.43,-2.58 l 2.34,-0.56 c 0.35,-0.1 0.66,-0.19 1,-0.29 a 9.09,9.09 0 0 0 1,-0.43 v 4.34 a 7.65,7.65 0 0 0 0.26,2.36 M 120.05,39.49 a 11.17,11.17 0 0 1 3.91,0.65 7.17,7.17 0 0 1 2.86,1.91 8.41,8.41 0 0 1 1.71,2.88 10.22,10.22 0 0 1 0.61,3.52 8,8 0 0 1 -3.28,6.83 7.81,7.81 0 0 1 -2.69,1.23 15.24,15.24 0 0 1 -3.71,0.39 13.26,13.26 0 0 1 -2.49,-0.22 V 39.85 a 15.77,15.77 0 0 1 3.08,-0.36 m 3,19.68 a 11.16,11.16 0 0 0 3.37,-0.87 10.21,10.21 0 0 0 3.38,-2.39 11.07,11.07 0 0 0 2.27,-3.59 11.5,11.5 0 0 0 0.8,-4.22 11.06,11.06 0 0 0 -0.44,-3.13 10.21,10.21 0 0 0 -1.28,-2.76 10.1,10.1 0 0 0 -2,-2.23 10.67,10.67 0 0 0 -2.45,-1.58 12,12 0 0 0 -2.85,-0.91 19.16,19.16 0 0 0 -3.44,-0.28 q -1.64,0 -2.64,0 c -0.61,0 -1.36,0 -2.23,0 h -3.39 a 2.79,2.79 0 0 1 1,0.78 3,3 0 0 1 0.44,1.27 16.06,16.06 0 0 1 0.12,2.25 V 55 a 9.83,9.83 0 0 1 -0.3,3 1.74,1.74 0 0 1 -0.26,0.59 c -0.1,0.11 -0.41,0.42 -1,0.9 h 5.43 a 46.51,46.51 0 0 0 5.52,-0.25"
       transform="translate(-1.53,-0.83)"
       id="path27" />
    <path
       class="cls-5"
       d="M 347.49,26.21 H 349 v -9 h 3 V 16 h -7.25 v 1.21 h 2.83 z m -6.51,0.13 a 6.12,6.12 0 0 0 2.51,-0.46 v -1.33 a 4.65,4.65 0 0 1 -2.26,0.54 c -2.19,0 -3.42,-1.48 -3.42,-3.86 0,-2.57 1.07,-4.15 3.27,-4.15 a 4.14,4.14 0 0 1 2.23,0.53 v -1.35 a 5.71,5.71 0 0 0 -2.35,-0.43 c -3.15,0 -4.72,2.4 -4.72,5.4 0,3 1.68,5.11 4.74,5.11 m -15,-0.13 h 1.48 l 0.88,-2.55 h 4.34 l 0.86,2.55 h 1.59 L 331.46,16 h -1.73 z m 2.78,-3.75 1.08,-3.11 c 0.26,-0.74 0.58,-1.66 0.71,-2.17 v 0 c 0.1,0.46 0.38,1.28 0.61,2 l 1.1,3.29 z m -8,-1.33 v -4 h 1.59 a 1.78,1.78 0 0 1 1.94,2 1.81,1.81 0 0 1 -1.94,2 z m -1.46,5.08 h 1.46 v -4 h 1.91 a 3,3 0 0 0 3.14,-3.12 2.94,2.94 0 0 0 -3.18,-3.09 h -3.38 z m -13.86,0 h 1.33 l 0.8,-6.5 c 0.09,-0.69 0.17,-1.77 0.2,-2.25 v 0 c 0.09,0.46 0.3,1.37 0.48,2 l 1.88,6.74 h 1.67 l 1.89,-6.69 c 0.18,-0.68 0.35,-1.5 0.46,-2 v 0 c 0.05,0.54 0.08,1.38 0.18,2.14 l 0.87,6.59 h 1.36 L 315.22,16 h -1.86 l -1.84,6.64 c -0.18,0.69 -0.4,1.69 -0.53,2.41 v 0 c -0.12,-0.72 -0.33,-1.75 -0.53,-2.45 L 308.59,16 h -1.87 z m -4.19,0 h 1.46 V 16 h -1.51 z m -11.51,-1 c -1.35,0 -2.11,-0.73 -2.11,-1.69 a 2.37,2.37 0 0 1 1.48,-2.07 c 0.68,0.79 2.73,3 2.73,3 a 3.4,3.4 0 0 1 -2.1,0.8 m -0.18,-5.12 c -0.83,-0.86 -1.09,-1.35 -1.09,-1.93 a 1.34,1.34 0 0 1 1.46,-1.3 1.28,1.28 0 0 1 1.37,1.22 c 0,0.76 -0.54,1.33 -1.74,2 m 0.13,6.26 a 4.57,4.57 0 0 0 2.94,-1.09 2.75,2.75 0 0 0 1.92,1.09 2,2 0 0 0 0.89,-0.18 v -1.09 a 1.46,1.46 0 0 1 -0.52,0.08 c -0.5,0 -0.88,-0.36 -1.4,-0.87 a 6.81,6.81 0 0 0 1.26,-2.9 l -1.24,-0.21 a 7.21,7.21 0 0 1 -0.86,2.24 c 0,0 -1.68,-1.78 -2.48,-2.65 1.59,-0.87 2.35,-1.66 2.35,-2.76 a 2.38,2.38 0 0 0 -2.65,-2.21 c -1.64,0 -2.83,0.94 -2.83,2.39 a 3.52,3.52 0 0 0 1.27,2.46 c -1.51,0.83 -2.2,1.62 -2.2,2.88 0,1.55 1.26,2.78 3.5,2.78 m -17.51,-0.13 h 1.33 v -6.78 c 0,-0.54 0,-0.93 0,-1.38 v 0 c 0.25,0.5 0.54,1.06 0.86,1.57 l 4.12,6.59 H 280 V 16 h -1.33 v 6.77 c 0,0.54 0,1 0,1.45 v 0 A 13.29,13.29 0 0 0 277.79,22.6 L 273.66,16 h -1.53 z M 265,25.12 c -2.09,0 -3,-1.64 -3,-4 0,-2.36 0.92,-4 3,-4 2.08,0 3,1.64 3,4 0,2.36 -0.93,4 -3,4 m 0,1.22 c 3.15,0 4.58,-2.48 4.58,-5.26 0,-2.78 -1.43,-5.25 -4.58,-5.25 -3.15,0 -4.59,2.49 -4.59,5.26 0,2.93 1.43,5.25 4.59,5.25 m -8.58,-0.13 h 1.46 V 16 h -1.46 z m -6.28,0 h 1.46 v -9 h 3 V 16 h -7.25 v 1.21 h 2.83 z m -12,0 h 1.48 l 0.88,-2.55 h 4.35 l 0.85,2.55 h 1.59 L 243.72,16 H 242 Z m 2.86,-3.75 1.08,-3.11 c 0.26,-0.74 0.58,-1.66 0.71,-2.17 v 0 c 0.1,0.46 0.38,1.28 0.61,2 l 1.1,3.29 z m -8,3.75 h 1.58 L 238.18,16 h -1.48 l -2.19,6.44 c -0.26,0.76 -0.57,1.86 -0.7,2.37 v 0 c -0.12,-0.51 -0.43,-1.6 -0.68,-2.37 L 231,16 h -1.61 z m -9.17,-1.09 c -2.09,0 -3,-1.64 -3,-4 0,-2.36 0.92,-4 3,-4 2.08,0 3,1.64 3,4 0,2.36 -0.93,4 -3,4 m 0,1.22 c 3.16,0 4.59,-2.48 4.59,-5.26 0,-2.78 -1.43,-5.25 -4.59,-5.25 -3.16,0 -4.59,2.49 -4.59,5.26 0,2.93 1.43,5.25 4.59,5.25 m -15,-0.13 h 1.33 v -6.78 c 0,-0.54 0,-0.93 0,-1.38 v 0 c 0.25,0.5 0.54,1.06 0.86,1.57 l 4.12,6.59 h 1.56 V 16 h -1.33 v 6.77 c 0,0.54 0,1 0,1.45 h -0.05 A 13.29,13.29 0 0 0 214.44,22.6 L 210.35,16 h -1.53 z m -11,0 h 1.33 v -6.78 c 0,-0.54 0,-0.93 0,-1.38 v 0 c 0.25,0.5 0.54,1.06 0.86,1.57 l 4.12,6.59 h 1.57 V 16 h -1.34 v 6.77 c 0,0.54 0,1 0,1.45 h -0.05 a 14.74,14.74 0 0 0 -0.87,-1.62 l -4.1,-6.6 h -1.53 z m -4.62,0 h 1.46 V 16 h -1.47 z m -8.28,2.25 a 4,4 0 0 0 1.57,-2.86 5.7,5.7 0 0 0 -0.08,-1 h -1.53 a 4.08,4.08 0 0 1 0.13,1.11 2.73,2.73 0 0 1 -0.78,2.14 z m -10.81,-2.25 h 1.47 v -4.75 h 5 v 4.75 h 1.47 V 16 h -1.47 v 4.32 h -5 V 16 h -1.47 z m -4.94,0.13 a 6.18,6.18 0 0 0 2.51,-0.46 v -1.33 a 4.66,4.66 0 0 1 -2.27,0.54 c -2.18,0 -3.42,-1.48 -3.42,-3.86 0,-2.57 1.07,-4.15 3.28,-4.15 a 4.16,4.16 0 0 1 2.23,0.53 v -1.35 a 5.75,5.75 0 0 0 -2.35,-0.43 c -3.16,0 -4.72,2.4 -4.72,5.4 0,3 1.68,5.11 4.74,5.11 m -12,-5.72 v -3.5 h 1.61 c 1.32,0 1.92,0.59 1.92,1.76 0,1.17 -0.64,1.74 -1.92,1.74 z m 5.47,5.69 a 2.35,2.35 0 0 0 0.6,-0.07 v -1.15 h -0.37 A 1,1 0 0 1 162,24.55 l -2.06,-3 a 2.82,2.82 0 0 0 -0.82,-5.57 h -3.4 v 10.23 h 1.46 v -4.52 h 1.28 l 2.3,3.51 a 2.06,2.06 0 0 0 1.89,1.11 m -18,-0.1 h 1.48 l 0.89,-2.55 h 4.34 l 0.85,2.55 h 1.6 L 150.15,16 h -1.73 z m 2.78,-3.75 1.08,-3.11 c 0.27,-0.74 0.58,-1.66 0.71,-2.17 v 0 c 0.1,0.46 0.38,1.28 0.61,2 l 1.1,3.29 z m -9.78,3.75 h 5.6 V 25 h -4.14 v -3.67 h 3.54 v -1.17 h -3.54 v -3 h 4.14 V 16 h -5.6 z m -5.76,0.13 c 2,0 3.36,-1.14 3.36,-2.91 0,-2 -1.43,-2.58 -2.71,-3.14 -1.28,-0.56 -1.93,-0.82 -1.93,-1.78 0,-0.96 0.64,-1.48 1.84,-1.48 a 5.55,5.55 0 0 1 2.32,0.53 v -1.28 a 7.7,7.7 0 0 0 -2.38,-0.45 c -1.91,0 -3.24,0.91 -3.24,2.7 0,1.79 1.07,2.33 2.15,2.83 1.5,0.69 2.4,0.95 2.4,2.14 0,1.19 -0.79,1.64 -2,1.64 a 6.88,6.88 0 0 1 -2.57,-0.63 v 1.3 a 7.21,7.21 0 0 0 2.81,0.53 m -10.4,-0.13 h 5.6 V 25 H 123 v -3.67 h 3.54 V 20.16 H 123 v -3 h 4.14 V 16 h -5.6 z m -8,-5.59 v -3.5 H 115 c 1.32,0 1.92,0.59 1.92,1.76 0,1.17 -0.64,1.74 -1.92,1.74 z m 5.47,5.69 a 2.35,2.35 0 0 0 0.6,-0.07 v -1.15 h -0.37 a 1,1 0 0 1 -0.88,-0.54 l -2.06,-3 a 2.82,2.82 0 0 0 -0.82,-5.57 H 112 v 10.23 h 1.46 v -4.52 h 1.28 L 117,25.2 a 2.06,2.06 0 0 0 1.89,1.11"
       transform="translate(-1.53,-0.83)"
       id="path29" />
  </g>
  <metadata
     id="metadata36">
    <rdf:RDF>
      <cc:Work
         rdf:about="">
        <dc:title>Data Science Institute_Webheader</dc:title>
      </cc:Work>
    </rdf:RDF>
  </metadata>
  <metadata
     id="metadata211">
    <rdf:RDF>
      <cc:Work
         rdf:about="">
        <dc:title>Data Science Institute_Webheader</dc:title>
      </cc:Work>
    </rdf:RDF>
  </metadata>
</svg>
