<?xml version="1.0" encoding="iso-8859-1"?>
<!-- Generator: Adobe Illustrator 27.0.1, SVG Export Plug-In . SVG Version: 6.00 Build 0)  -->
<svg version="1.1" id="Layer_1" xmlns="http://www.w3.org/2000/svg" xmlns:xlink="http://www.w3.org/1999/xlink" x="0px" y="0px"
	 viewBox="0 0 235.435 35" style="enable-background:new 0 0 235.435 35;" xml:space="preserve">
<g>
	<g>
		<path style="fill:#00275B;" d="M41.075,31.123c0.286,0.279,0.429,0.622,0.429,1.028c0,0.404-0.143,0.746-0.428,1.026
			c-0.286,0.279-0.635,0.419-1.049,0.419s-0.763-0.14-1.049-0.419c-0.284-0.28-0.427-0.622-0.427-1.026
			c0-0.406,0.143-0.749,0.428-1.028c0.286-0.28,0.635-0.419,1.048-0.419C40.439,30.704,40.789,30.843,41.075,31.123 M40.867,31.297
			c-0.228-0.232-0.509-0.349-0.84-0.349c-0.332,0-0.611,0.117-0.839,0.349c-0.229,0.233-0.342,0.517-0.342,0.854
			c0,0.336,0.113,0.621,0.342,0.853c0.228,0.232,0.507,0.347,0.839,0.347c0.33,0,0.61-0.115,0.839-0.347
			c0.228-0.232,0.343-0.517,0.343-0.853C41.209,31.814,41.095,31.53,40.867,31.297 M39.387,31.314h0.132h0.537
			c0.181,0,0.323,0.04,0.426,0.12c0.102,0.08,0.154,0.191,0.154,0.333c0,0.154-0.052,0.276-0.155,0.364
			c-0.077,0.065-0.175,0.107-0.296,0.123l0.481,0.732h-0.152h-0.153l-0.433-0.722l-0.279,0.001v0.721h-0.131h-0.131V31.314z
			 M39.649,32.042h0.356c0.124,0,0.214-0.022,0.271-0.066c0.058-0.044,0.086-0.113,0.086-0.208c0-0.083-0.028-0.143-0.086-0.183
			c-0.057-0.038-0.147-0.058-0.271-0.058h-0.356V32.042z"/>
	</g>
	<polygon style="fill:#FFFFFF;" points="7.363,0 7.358,11.357 8.535,11.354 3.906,23.646 0,23.64 0,35 37.914,35 37.914,23.625 
		33.981,23.621 29.392,11.363 30.543,11.369 30.543,0.004 	"/>
	<g>
		<path style="fill:#BD2036;" d="M18.95,4.244l8.121,21.057c0,0,1.04,2.562,2.73,2.562h-5.912c0,0,0.296,0.044,0.592-0.449
			c0.17-0.282,0.027-0.705,0.027-0.705l-1.829-4.7H18.95h-3.714l-1.831,4.7c0,0-0.139,0.423,0.029,0.705
			c0.295,0.493,0.591,0.449,0.591,0.449H8.113c1.689,0,2.731-2.562,2.731-2.562L18.95,4.244z"/>
	</g>
	<polygon style="fill:#00275B;" points="18.957,4.218 26.279,4.218 26.279,7.147 23.237,7.147 31.236,27.761 33.601,27.761 
		33.601,30.794 23.688,30.794 23.688,27.843 20.905,27.843 20.905,33.628 36.551,33.628 36.551,25.002 33.038,25.008 27.406,9.993 
		29.175,9.993 29.175,1.372 18.957,1.372 8.739,1.372 8.739,9.993 10.509,9.993 4.876,24.989 1.363,25.002 1.363,33.628 
		17.009,33.628 17.009,27.843 14.226,27.843 14.226,30.794 4.313,30.794 4.313,27.761 6.679,27.761 14.676,7.147 11.635,7.147 
		11.635,4.218 	"/>
	<polygon style="fill:#FFFFFF;" points="18.943,19.777 21.804,19.777 18.999,12.39 16.095,19.777 	"/>
	<rect x="46.379" y="0" style="fill:#00275B;" width="0.679" height="34.968"/>
	<g>
		<path style="fill:#00275B;" d="M219.047,22.646c0.286,0,0.501,0.022,0.646,0.066c0.146,0.044,0.281,0.123,0.405,0.237v-1.518
			c-0.161,0.068-0.49,0.101-0.989,0.101h-1.307v-2.506h-0.654v0.21c0,0.945-0.208,1.635-0.623,2.071
			c-0.348,0.389-0.81,0.633-1.386,0.731v0.608h1.152v3.713c0,0.54,0.016,0.945,0.047,1.215c0.031,0.269,0.088,0.491,0.171,0.665
			c0.083,0.174,0.213,0.354,0.39,0.541c0.472,0.493,1.045,0.74,1.72,0.74c0.213,0,0.415-0.034,0.607-0.101l0.872-1.192
			c-0.249,0.094-0.483,0.141-0.7,0.141c-0.551,0-0.981-0.192-1.293-0.577c-0.119-0.15-0.2-0.332-0.241-0.544
			c-0.042-0.213-0.062-0.556-0.062-1.028v-3.573H219.047z M207.63,18.216h-1.16c0.218,0.166,0.367,0.302,0.448,0.409
			c0.08,0.106,0.132,0.237,0.155,0.393c0.024,0.156,0.035,0.441,0.035,0.856v7.762c0,0.405-0.011,0.686-0.035,0.844
			c-0.023,0.159-0.075,0.292-0.155,0.401c-0.081,0.109-0.23,0.247-0.448,0.413h2.803c-0.229-0.176-0.382-0.317-0.46-0.42
			c-0.078-0.104-0.129-0.244-0.155-0.421c-0.026-0.176-0.039-0.449-0.039-0.817v-3.075c0-0.447,0.017-0.748,0.05-0.903
			c0.034-0.156,0.118-0.317,0.253-0.483c0.187-0.218,0.419-0.384,0.697-0.498s0.583-0.171,0.915-0.171
			c0.726,0,1.269,0.238,1.627,0.716c0.124,0.155,0.209,0.333,0.253,0.533c0.044,0.2,0.066,0.5,0.066,0.899v2.982
			c0,0.368-0.013,0.642-0.039,0.821c-0.026,0.179-0.079,0.323-0.159,0.432c-0.081,0.109-0.233,0.244-0.456,0.405h2.803
			c-0.296-0.239-0.477-0.442-0.541-0.611c-0.065-0.169-0.098-0.518-0.098-1.047V24.14c0-0.451-0.03-0.799-0.089-1.043
			c-0.06-0.244-0.168-0.475-0.323-0.693c-0.172-0.233-0.381-0.432-0.627-0.595c-0.247-0.164-0.524-0.288-0.833-0.374
			s-0.634-0.128-0.977-0.128c-0.524,0-1.013,0.096-1.467,0.288c-0.455,0.192-0.806,0.451-1.055,0.778v-4.476
			C208.421,18.111,208.092,18.216,207.63,18.216 M202.223,22.871c0.41,0.395,0.615,0.878,0.615,1.448
			c0,0.504-0.155,0.914-0.467,1.23c-0.311,0.317-0.719,0.475-1.222,0.475c-0.602,0-1.115-0.209-1.537-0.626
			c-0.424-0.418-0.635-0.925-0.635-1.522c0-0.457,0.167-0.837,0.502-1.141c0.335-0.303,0.749-0.455,1.242-0.455
			C201.313,22.28,201.813,22.477,202.223,22.871 M203.967,21.447c-0.514,0-1.051-0.021-1.611-0.062
			c-0.779-0.052-1.267-0.078-1.464-0.078c-0.638,0-1.223,0.127-1.755,0.381s-0.949,0.6-1.25,1.036
			c-0.301,0.435-0.451,0.921-0.451,1.455c0,0.374,0.08,0.737,0.241,1.09c0.161,0.353,0.387,0.659,0.677,0.919
			c0.192,0.166,0.366,0.287,0.522,0.362c0.156,0.075,0.386,0.154,0.693,0.237c-0.374,0.146-0.656,0.266-0.845,0.362
			c-0.189,0.096-0.319,0.185-0.389,0.265c-0.07,0.08-0.105,0.175-0.105,0.284c0,0.14,0.039,0.3,0.116,0.479
			c0.078,0.179,0.172,0.323,0.281,0.432c0.218,0.192,0.485,0.288,0.802,0.288c0.155,0,0.282-0.005,0.381-0.016
			c0.202-0.01,0.472-0.015,0.81-0.015c1.147,0,2.003,0.132,2.569,0.397c0.565,0.265,0.848,0.669,0.848,1.214
			c0,0.364-0.124,0.684-0.373,0.962c-0.25,0.277-0.601,0.494-1.055,0.65c-0.454,0.155-0.972,0.233-1.553,0.233
			c-0.878,0-1.576-0.162-2.095-0.486c-0.519-0.325-0.778-0.767-0.778-1.328c0-0.233,0.061-0.411,0.183-0.533
			c0.122-0.122,0.31-0.206,0.564-0.253c-0.316-0.135-0.62-0.202-0.91-0.202c-0.322,0-0.601,0.054-0.837,0.163
			c-0.237,0.109-0.416,0.264-0.538,0.463c-0.122,0.2-0.182,0.438-0.182,0.713c0,0.451,0.203,0.863,0.611,1.234
			c0.407,0.371,0.965,0.661,1.673,0.872c0.709,0.21,1.483,0.315,2.324,0.315c0.379,0,0.748-0.026,1.106-0.078
			c0.358-0.052,0.691-0.126,1-0.222c0.309-0.096,0.603-0.215,0.884-0.358c0.28-0.143,0.532-0.305,0.755-0.487
			c0.56-0.456,0.841-1.053,0.841-1.79c0-0.483-0.122-0.893-0.366-1.23c-0.172-0.223-0.403-0.429-0.693-0.619
			c-0.291-0.189-0.579-0.323-0.864-0.401c-0.343-0.098-0.705-0.165-1.086-0.198c-0.382-0.034-0.957-0.056-1.725-0.067
			c-0.467,0-0.7-0.106-0.7-0.319c0-0.104,0.053-0.19,0.159-0.261c0.107-0.07,0.277-0.128,0.51-0.175
			c0.727-0.072,1.285-0.184,1.674-0.334c0.633-0.229,1.11-0.538,1.432-0.927c0.322-0.389,0.483-0.846,0.483-1.37
			c0-0.426-0.099-0.804-0.296-1.137c-0.197-0.332-0.514-0.648-0.95-0.949c0.919,0.161,1.537,0.241,1.853,0.241
			c0.244,0,0.402-0.07,0.475-0.21l0.483-1.082C205.293,21.4,204.6,21.447,203.967,21.447 M194.142,18.722
			c-0.208,0.202-0.312,0.446-0.312,0.732c0,0.296,0.1,0.546,0.3,0.751c0.2,0.205,0.445,0.308,0.736,0.308
			c0.301,0,0.551-0.103,0.751-0.308c0.2-0.205,0.3-0.455,0.3-0.751c0-0.28-0.099-0.523-0.296-0.728
			c-0.197-0.205-0.439-0.308-0.724-0.308C194.601,18.418,194.349,18.521,194.142,18.722 M194.679,21.532h-1.168
			c0.218,0.167,0.367,0.304,0.448,0.413c0.08,0.109,0.132,0.241,0.156,0.397c0.023,0.156,0.035,0.439,0.035,0.849v4.445
			c0,0.405-0.012,0.686-0.035,0.844c-0.024,0.159-0.076,0.292-0.156,0.401c-0.081,0.109-0.23,0.247-0.448,0.413h2.787
			c-0.213-0.171-0.359-0.31-0.44-0.417c-0.08-0.106-0.133-0.245-0.159-0.416c-0.026-0.171-0.039-0.446-0.039-0.825v-6.423
			C195.463,21.426,195.136,21.532,194.679,21.532 M189.95,21.307c-0.68,0-1.267,0.089-1.763,0.268
			c-0.496,0.179-0.876,0.44-1.14,0.783c-0.265,0.342-0.397,0.747-0.397,1.214c0,0.358,0.076,0.663,0.229,0.915
			s0.409,0.484,0.767,0.697c0.358,0.212,0.864,0.435,1.518,0.669c0.877,0.317,1.414,0.545,1.612,0.685
			c0.254,0.182,0.381,0.436,0.381,0.763c0,0.337-0.174,0.619-0.522,0.845c-0.347,0.225-0.778,0.338-1.292,0.338
			c-0.358,0-0.697-0.032-1.016-0.097s-0.647-0.172-0.985-0.323c-0.337-0.151-0.719-0.358-1.144-0.623l0.576,1.658
			c0.452,0.167,0.83,0.278,1.137,0.335c0.306,0.057,0.682,0.086,1.128,0.086c0.753,0,1.408-0.107,1.966-0.319
			c0.558-0.213,0.989-0.519,1.292-0.919c0.304-0.4,0.456-0.859,0.456-1.378c0-0.571-0.218-1.061-0.654-1.471
			c-0.218-0.198-0.461-0.358-0.728-0.483s-0.725-0.293-1.374-0.506c-0.457-0.145-0.812-0.275-1.067-0.389
			c-0.254-0.114-0.438-0.236-0.552-0.366s-0.172-0.275-0.172-0.436c0-0.28,0.142-0.507,0.425-0.681
			c0.283-0.174,0.658-0.261,1.125-0.261c0.654,0,1.344,0.218,2.07,0.654v-1.433C191.313,21.382,190.687,21.307,189.95,21.307
			 M178.386,21.532h-1.082c0.218,0.167,0.367,0.304,0.447,0.413c0.081,0.109,0.133,0.241,0.156,0.397
			c0.023,0.156,0.035,0.439,0.035,0.849v4.445c0,0.405-0.012,0.686-0.035,0.844c-0.023,0.159-0.075,0.292-0.156,0.401
			c-0.08,0.109-0.229,0.247-0.447,0.413h2.787c-0.213-0.171-0.36-0.31-0.44-0.417c-0.081-0.106-0.134-0.245-0.16-0.416
			c-0.026-0.171-0.039-0.446-0.039-0.825v-3.394c0-0.426,0.075-0.745,0.226-0.958c0.166-0.228,0.389-0.407,0.67-0.537
			c0.28-0.13,0.589-0.195,0.926-0.195c0.348,0,0.676,0.066,0.985,0.199c0.308,0.132,0.543,0.305,0.704,0.517
			c0.13,0.156,0.223,0.365,0.281,0.627c0.057,0.262,0.085,0.616,0.085,1.063v2.678c0,0.363-0.013,0.633-0.039,0.809
			c-0.026,0.177-0.08,0.321-0.163,0.432c-0.083,0.112-0.234,0.251-0.452,0.417h2.811c-0.296-0.234-0.477-0.435-0.541-0.603
			c-0.065-0.169-0.098-0.521-0.098-1.055v-2.857c0-0.639-0.028-1.117-0.085-1.437c-0.058-0.319-0.161-0.598-0.312-0.836
			c-0.161-0.234-0.373-0.443-0.638-0.627s-0.57-0.326-0.915-0.424c-0.345-0.099-0.689-0.148-1.031-0.148
			c-0.499,0-0.935,0.097-1.308,0.292c-0.374,0.194-0.768,0.533-1.184,1.016v-1.402C179.177,21.426,178.848,21.532,178.386,21.532
			 M173.663,28.27c-0.039,0.268-0.113,0.478-0.222,0.631s-0.267,0.284-0.475,0.393h3.192c-0.213-0.109-0.371-0.239-0.475-0.389
			c-0.103-0.151-0.175-0.361-0.214-0.631c-0.039-0.27-0.058-0.646-0.058-1.129v-6.78c0-0.483,0.019-0.859,0.058-1.129
			s0.111-0.48,0.214-0.631c0.104-0.15,0.262-0.28,0.475-0.389h-3.192c0.208,0.109,0.366,0.24,0.475,0.393s0.183,0.364,0.222,0.631
			s0.059,0.642,0.059,1.125v6.78C173.722,27.628,173.702,28.003,173.663,28.27 M164.317,21.536c-0.41-0.153-0.874-0.229-1.393-0.229
			c-0.551,0-1.064,0.104-1.542,0.311c-0.477,0.208-0.898,0.501-1.261,0.88c-0.363,0.379-0.644,0.819-0.841,1.319
			c-0.197,0.501-0.296,1.04-0.296,1.616c0,0.716,0.152,1.366,0.456,1.95s0.741,1.073,1.312,1.467
			c0.347,0.229,0.728,0.397,1.14,0.506c0.413,0.109,0.878,0.164,1.398,0.164c0.29,0,0.57-0.039,0.84-0.117l0.973-1.51
			c-0.28,0.176-0.526,0.297-0.739,0.362s-0.459,0.097-0.74,0.097c-0.555,0-1.053-0.137-1.494-0.413
			c-0.442-0.275-0.789-0.659-1.044-1.152c-0.254-0.493-0.381-1.038-0.381-1.635c0-0.519,0.105-0.988,0.315-1.409
			c0.21-0.42,0.504-0.748,0.88-0.984c0.376-0.237,0.803-0.355,1.281-0.355c0.378,0,0.736,0.081,1.074,0.242
			c0.337,0.161,0.615,0.389,0.833,0.685c0.207,0.264,0.34,0.523,0.397,0.774c0.057,0.252,0.086,0.705,0.086,1.359v3.83h2.148
			c-0.296-0.234-0.476-0.435-0.541-0.603c-0.065-0.169-0.097-0.521-0.097-1.055v-9.739c-0.198,0.213-0.527,0.319-0.989,0.319h-1.16
			c0.213,0.161,0.359,0.296,0.44,0.405c0.08,0.109,0.134,0.256,0.16,0.44c0.025,0.184,0.039,0.455,0.039,0.813v2.421
			C165.145,21.942,164.727,21.689,164.317,21.536 M152.583,22.801c0.389-0.327,0.869-0.49,1.44-0.49
			c1.188,0,1.902,0.628,2.141,1.884h-4.352C151.937,23.593,152.193,23.128,152.583,22.801 M157.931,24.973
			c0-0.529-0.096-1.018-0.288-1.467c-0.192-0.449-0.459-0.837-0.802-1.164c-0.342-0.327-0.747-0.581-1.214-0.763
			c-0.467-0.181-0.976-0.272-1.526-0.272c-0.561,0-1.078,0.081-1.553,0.245c-0.475,0.163-0.892,0.406-1.25,0.728
			c-0.275,0.249-0.516,0.544-0.724,0.883c-0.207,0.34-0.367,0.701-0.479,1.082c-0.111,0.382-0.167,0.767-0.167,1.157
			c0,0.794,0.201,1.505,0.603,2.133c0.403,0.628,0.968,1.116,1.698,1.463c0.729,0.348,1.55,0.522,2.463,0.522
			c0.27,0,0.539-0.013,0.806-0.039c0.267-0.026,0.522-0.069,0.763-0.129c0.241-0.059,0.494-0.138,0.759-0.237l0.911-1.604
			c-0.306,0.208-0.602,0.375-0.888,0.502c-0.285,0.128-0.59,0.221-0.914,0.281c-0.325,0.059-0.663,0.089-1.016,0.089
			c-0.659,0-1.241-0.124-1.744-0.374c-0.503-0.249-0.893-0.609-1.168-1.082c-0.275-0.472-0.428-1.032-0.459-1.681h6.189V24.973z
			 M148.505,28.691c-0.065-0.169-0.097-0.521-0.097-1.055v-9.739c-0.197,0.213-0.527,0.319-0.989,0.319h-1.16
			c0.218,0.166,0.367,0.302,0.448,0.409c0.08,0.106,0.132,0.237,0.156,0.393c0.023,0.156,0.035,0.441,0.035,0.856v7.762
			c0,0.405-0.012,0.686-0.035,0.844c-0.024,0.159-0.076,0.292-0.156,0.401c-0.081,0.109-0.23,0.247-0.448,0.413h2.787
			C148.751,29.06,148.57,28.859,148.505,28.691 M140.481,22.63c0.202-0.052,0.433-0.078,0.693-0.078
			c0.482,0,0.912,0.125,1.288,0.374c0.376,0.249,0.67,0.598,0.88,1.047c0.21,0.449,0.315,0.964,0.315,1.545
			c0,0.862-0.257,1.544-0.77,2.048c-0.514,0.503-1.21,0.755-2.087,0.755c-0.42,0-0.898-0.065-1.432-0.195V17.897
			c-0.218,0.213-0.548,0.319-0.989,0.319h-1.16c0.218,0.166,0.367,0.304,0.448,0.413c0.08,0.109,0.132,0.241,0.155,0.397
			c0.024,0.155,0.035,0.438,0.035,0.848v8.159c0,0.342-0.033,0.591-0.101,0.747c-0.067,0.156-0.205,0.301-0.412,0.436
			c0.846,0.203,1.925,0.304,3.238,0.304c0.939,0,1.775-0.182,2.507-0.545c0.732-0.363,1.296-0.872,1.693-1.526
			c0.397-0.654,0.596-1.409,0.596-2.265c0-0.551-0.089-1.06-0.265-1.53c-0.177-0.47-0.428-0.881-0.755-1.234
			c-0.327-0.353-0.707-0.627-1.141-0.821c-0.433-0.195-0.901-0.292-1.405-0.292c-0.223,0-0.415,0.015-0.576,0.046
			c-0.161,0.032-0.353,0.086-0.576,0.164l-0.926,1.417C140.029,22.784,140.279,22.682,140.481,22.63 M133.963,28.431
			c0.086,0.233,0.256,0.431,0.51,0.592c0.202,0.124,0.415,0.211,0.638,0.26c0.224,0.05,0.538,0.09,0.942,0.121l0.732-1.098
			c-0.462-0.015-0.797-0.106-1.004-0.272c-0.192-0.14-0.311-0.292-0.358-0.456c-0.047-0.163-0.07-0.483-0.07-0.961v-2.172
			c0-0.618-0.02-1.047-0.059-1.288c-0.039-0.242-0.131-0.482-0.276-0.721c-0.472-0.752-1.42-1.128-2.841-1.128
			c-0.405,0-0.795,0.036-1.168,0.109l-1.113,1.689c0.55-0.265,0.983-0.442,1.3-0.533c0.316-0.091,0.648-0.137,0.996-0.137
			c0.311,0,0.59,0.045,0.837,0.133c0.246,0.088,0.437,0.214,0.572,0.377c0.135,0.164,0.203,0.352,0.203,0.565
			c0,0.301-0.126,0.529-0.378,0.685s-0.759,0.309-1.522,0.459c-1.054,0.203-1.79,0.421-2.211,0.654
			c-0.285,0.151-0.514,0.383-0.685,0.697s-0.257,0.645-0.257,0.992c0,0.732,0.286,1.355,0.857,1.869
			c0.487,0.436,1.152,0.654,1.992,0.654c0.327,0,0.636-0.034,0.927-0.101l0.989-1.254c-0.478,0.146-0.898,0.218-1.262,0.218
			c-0.56,0-0.997-0.122-1.311-0.366c-0.314-0.244-0.471-0.578-0.471-1.004c0-0.664,0.404-1.095,1.214-1.292
			c0.607-0.14,0.998-0.234,1.172-0.281c0.174-0.046,0.332-0.094,0.475-0.144c0.142-0.049,0.31-0.12,0.502-0.214v2.172
			C133.835,27.806,133.878,28.196,133.963,28.431 M120.952,21.532h-1.082c0.218,0.167,0.367,0.304,0.448,0.413
			c0.08,0.109,0.132,0.241,0.155,0.397c0.024,0.156,0.035,0.439,0.035,0.849v4.445c0,0.405-0.011,0.686-0.035,0.844
			c-0.023,0.159-0.075,0.292-0.155,0.401c-0.081,0.109-0.23,0.247-0.448,0.413h2.787c-0.213-0.171-0.359-0.31-0.44-0.417
			c-0.08-0.106-0.133-0.245-0.159-0.416c-0.026-0.171-0.039-0.446-0.039-0.825v-3.394c0-0.426,0.075-0.745,0.225-0.958
			c0.166-0.228,0.39-0.407,0.67-0.537s0.589-0.195,0.926-0.195c0.348,0,0.676,0.066,0.985,0.199
			c0.309,0.132,0.544,0.305,0.705,0.517c0.129,0.156,0.223,0.365,0.28,0.627c0.057,0.262,0.086,0.616,0.086,1.063v2.678
			c0,0.363-0.013,0.633-0.039,0.809c-0.026,0.177-0.081,0.321-0.164,0.432c-0.083,0.112-0.233,0.251-0.451,0.417h2.81
			c-0.296-0.234-0.476-0.435-0.541-0.603c-0.065-0.169-0.097-0.521-0.097-1.055v-2.857c0-0.639-0.029-1.117-0.086-1.437
			c-0.057-0.319-0.161-0.598-0.311-0.836c-0.161-0.234-0.374-0.443-0.639-0.627c-0.264-0.184-0.569-0.326-0.914-0.424
			c-0.346-0.099-0.689-0.148-1.032-0.148c-0.498,0-0.934,0.097-1.308,0.292c-0.374,0.194-0.768,0.533-1.183,1.016v-1.402
			C121.744,21.426,121.414,21.532,120.952,21.532 M115.537,23.876c0.384,0,0.67,0.033,0.856,0.101
			c0.187,0.067,0.343,0.187,0.468,0.358v-1.783c-0.156,0.073-0.346,0.109-0.569,0.109h-2.25v-3.137
			c0.447-0.078,1.025-0.117,1.736-0.117c0.535,0,0.946,0.047,1.234,0.14c0.288,0.094,0.562,0.27,0.822,0.53v-1.962
			c-0.172,0.067-0.384,0.101-0.639,0.101h-5.597c0.213,0.114,0.371,0.245,0.475,0.393c0.104,0.148,0.176,0.353,0.218,0.615
			c0.041,0.262,0.062,0.642,0.062,1.141v6.757c0,0.493-0.019,0.873-0.058,1.14c-0.039,0.268-0.113,0.479-0.222,0.635
			s-0.268,0.288-0.475,0.397h7.022l0.778-2.203c-0.451,0.342-0.933,0.588-1.444,0.736c-0.511,0.147-1.125,0.221-1.841,0.221
			c-0.664,0-1.354-0.057-2.071-0.171v-4.001H115.537z M106.15,25.779c0.19-0.028,0.487-0.043,0.892-0.043h2.008
			c0.208,0,0.355-0.018,0.44-0.054c0.086-0.036,0.178-0.12,0.277-0.249l0.91-1.207c-0.238,0.093-0.462,0.156-0.669,0.187
			c-0.208,0.031-0.548,0.047-1.02,0.047h-1.783c-0.197,0-0.347,0.019-0.451,0.058c-0.104,0.039-0.197,0.115-0.28,0.23l-0.958,1.198
			C105.75,25.863,105.961,25.808,106.15,25.779 M102.683,28.431c0.085,0.233,0.255,0.431,0.509,0.592
			c0.203,0.124,0.416,0.211,0.639,0.26c0.223,0.05,0.537,0.09,0.942,0.121l0.732-1.098c-0.462-0.015-0.797-0.106-1.005-0.272
			c-0.192-0.14-0.311-0.292-0.358-0.456c-0.046-0.163-0.07-0.483-0.07-0.961v-2.172c0-0.618-0.019-1.047-0.058-1.288
			c-0.039-0.242-0.131-0.482-0.277-0.721c-0.472-0.752-1.419-1.128-2.841-1.128c-0.405,0-0.794,0.036-1.168,0.109l-1.113,1.689
			c0.55-0.265,0.983-0.442,1.3-0.533s0.649-0.137,0.997-0.137c0.311,0,0.59,0.045,0.836,0.133c0.247,0.088,0.438,0.214,0.573,0.377
			c0.134,0.164,0.202,0.352,0.202,0.565c0,0.301-0.126,0.529-0.378,0.685c-0.251,0.156-0.759,0.309-1.522,0.459
			c-1.053,0.203-1.79,0.421-2.21,0.654c-0.286,0.151-0.514,0.383-0.686,0.697c-0.171,0.314-0.256,0.645-0.256,0.992
			c0,0.732,0.285,1.355,0.856,1.869c0.488,0.436,1.152,0.654,1.993,0.654c0.327,0,0.636-0.034,0.926-0.101l0.989-1.254
			c-0.478,0.146-0.898,0.218-1.261,0.218c-0.561,0-0.998-0.122-1.312-0.366c-0.314-0.244-0.471-0.578-0.471-1.004
			c0-0.664,0.405-1.095,1.214-1.292c0.608-0.14,0.998-0.234,1.172-0.281c0.174-0.046,0.332-0.094,0.475-0.144
			c0.143-0.049,0.31-0.12,0.502-0.214v2.172C102.554,27.806,102.597,28.196,102.683,28.431 M95.785,22.646
			c0.285,0,0.5,0.022,0.646,0.066c0.145,0.044,0.28,0.123,0.404,0.237v-1.518c-0.16,0.068-0.49,0.101-0.988,0.101h-1.308v-2.506
			h-0.654v0.21c0,0.945-0.208,1.635-0.623,2.071c-0.348,0.389-0.809,0.633-1.386,0.731v0.608h1.153v3.713
			c0,0.54,0.015,0.945,0.046,1.215c0.032,0.269,0.089,0.491,0.172,0.665s0.212,0.354,0.389,0.541c0.472,0.493,1.046,0.74,1.72,0.74
			c0.213,0,0.416-0.034,0.608-0.101l0.871-1.192c-0.249,0.094-0.482,0.141-0.7,0.141c-0.55,0-0.981-0.192-1.292-0.577
			c-0.12-0.15-0.2-0.332-0.242-0.544c-0.041-0.213-0.062-0.556-0.062-1.028v-3.573H95.785z M89.056,28.431
			c0.085,0.233,0.255,0.431,0.51,0.592c0.202,0.124,0.415,0.211,0.638,0.26c0.223,0.05,0.537,0.09,0.942,0.121l0.732-1.098
			c-0.462-0.015-0.797-0.106-1.004-0.272c-0.192-0.14-0.312-0.292-0.358-0.456c-0.047-0.163-0.071-0.483-0.071-0.961v-2.172
			c0-0.618-0.019-1.047-0.058-1.288c-0.039-0.242-0.131-0.482-0.276-0.721c-0.473-0.752-1.42-1.128-2.842-1.128
			c-0.405,0-0.794,0.036-1.168,0.109l-1.113,1.689c0.55-0.265,0.984-0.442,1.3-0.533c0.317-0.091,0.649-0.137,0.997-0.137
			c0.311,0,0.59,0.045,0.837,0.133c0.246,0.088,0.437,0.214,0.572,0.377c0.135,0.164,0.202,0.352,0.202,0.565
			c0,0.301-0.126,0.529-0.377,0.685c-0.252,0.156-0.759,0.309-1.522,0.459c-1.054,0.203-1.791,0.421-2.211,0.654
			c-0.286,0.151-0.514,0.383-0.685,0.697c-0.172,0.314-0.257,0.645-0.257,0.992c0,0.732,0.285,1.355,0.856,1.869
			c0.488,0.436,1.152,0.654,1.993,0.654c0.327,0,0.636-0.034,0.927-0.101l0.988-1.254c-0.477,0.146-0.898,0.218-1.261,0.218
			c-0.56,0-0.998-0.122-1.312-0.366c-0.314-0.244-0.471-0.578-0.471-1.004c0-0.664,0.405-1.095,1.215-1.292
			c0.607-0.14,0.997-0.234,1.171-0.281c0.174-0.046,0.332-0.094,0.475-0.144c0.143-0.049,0.31-0.12,0.502-0.214v2.172
			C88.927,27.806,88.97,28.196,89.056,28.431 M76.691,19.329c0.726,0,1.378,0.108,1.954,0.323c0.576,0.216,1.053,0.534,1.432,0.954
			c0.363,0.394,0.647,0.875,0.852,1.44c0.205,0.566,0.308,1.152,0.308,1.76c0,1.468-0.548,2.608-1.643,3.417
			c-0.384,0.28-0.831,0.486-1.343,0.615c-0.511,0.13-1.13,0.195-1.856,0.195c-0.436,0-0.851-0.036-1.246-0.109v-8.416
			C75.741,19.389,76.255,19.329,76.691,19.329 M78.181,29.169c0.672-0.083,1.234-0.228,1.686-0.436
			c0.638-0.28,1.201-0.678,1.689-1.195c0.488-0.516,0.865-1.114,1.133-1.794c0.267-0.68,0.401-1.383,0.401-2.11
			c0-0.55-0.073-1.073-0.218-1.568c-0.146-0.496-0.36-0.955-0.642-1.378c-0.283-0.423-0.625-0.796-1.024-1.117
			c-0.379-0.322-0.786-0.585-1.222-0.791c-0.436-0.205-0.913-0.355-1.429-0.451c-0.516-0.096-1.089-0.144-1.716-0.144
			c-0.545,0-0.987,0.005-1.324,0.015c-0.306,0.011-0.677,0.016-1.113,0.016h-1.697c0.207,0.109,0.366,0.24,0.475,0.393
			s0.183,0.364,0.221,0.631c0.039,0.267,0.059,0.642,0.059,1.125v6.695c0,0.721-0.05,1.217-0.148,1.487
			c-0.042,0.14-0.086,0.238-0.132,0.295c-0.047,0.058-0.205,0.208-0.475,0.452h2.717C76.589,29.294,77.509,29.252,78.181,29.169
			 M62.358,26.951c-0.69,0.934-1.536,1.401-2.538,1.401c-0.674,0-1.228-0.202-1.662-0.607c-0.433-0.405-0.65-0.924-0.65-1.557
			c0-0.914,0.511-1.744,1.534-2.491C59.883,24.646,60.988,25.731,62.358,26.951 M58.396,20.781
			c-0.177-0.257-0.265-0.518-0.265-0.782c0-0.286,0.104-0.519,0.311-0.701c0.208-0.181,0.47-0.272,0.787-0.272
			c0.342,0,0.625,0.098,0.848,0.296c0.223,0.197,0.335,0.448,0.335,0.755c0,0.576-0.361,1.139-1.082,1.689
			C58.884,21.366,58.572,21.038,58.396,20.781 M61.463,21.439c0.202-0.337,0.304-0.732,0.304-1.183c0-0.654-0.229-1.195-0.685-1.623
			c-0.457-0.429-1.036-0.643-1.736-0.643c-0.483,0-0.928,0.1-1.336,0.3c-0.407,0.2-0.73,0.475-0.969,0.825
			c-0.239,0.351-0.358,0.731-0.358,1.141c0,0.254,0.042,0.498,0.125,0.731c0.083,0.234,0.219,0.478,0.408,0.732
			c0.19,0.255,0.464,0.569,0.822,0.942c-0.566,0.452-1.02,0.871-1.363,1.257c-0.342,0.387-0.586,0.765-0.732,1.133
			c-0.145,0.369-0.217,0.779-0.217,1.23c0,0.633,0.159,1.198,0.478,1.693c0.319,0.496,0.767,0.878,1.343,1.145
			s1.233,0.401,1.97,0.401c0.545,0,1.025-0.066,1.44-0.199c0.415-0.132,0.785-0.337,1.109-0.615c0.325-0.277,0.65-0.66,0.977-1.148
			c0.493,0.457,0.932,0.815,1.316,1.074c0.384,0.26,0.75,0.443,1.098,0.549c0.347,0.107,0.729,0.16,1.144,0.16
			c0.436,0,1.061-0.016,1.876-0.047c-0.69-0.348-1.282-0.676-1.775-0.985c-0.493-0.309-1.053-0.713-1.681-1.214
			c-0.628-0.501-1.335-1.114-2.122-1.838c-0.786-0.724-1.657-1.558-2.612-2.502C60.869,22.215,61.261,21.777,61.463,21.439"/>
		<path style="fill:#00275B;" d="M228.335,4.925h-1.082c0.218,0.166,0.367,0.304,0.448,0.413c0.08,0.109,0.132,0.241,0.155,0.397
			c0.024,0.155,0.035,0.438,0.035,0.848v4.446c0,0.404-0.011,0.686-0.035,0.844c-0.023,0.159-0.075,0.292-0.155,0.401
			c-0.081,0.109-0.23,0.247-0.448,0.413h2.787c-0.213-0.172-0.359-0.31-0.44-0.417c-0.08-0.106-0.134-0.245-0.159-0.416
			c-0.026-0.172-0.039-0.447-0.039-0.825V7.634c0-0.425,0.075-0.744,0.225-0.957c0.166-0.229,0.39-0.408,0.67-0.537
			c0.28-0.13,0.589-0.195,0.926-0.195c0.348,0,0.676,0.066,0.985,0.198c0.309,0.133,0.544,0.305,0.705,0.518
			c0.129,0.156,0.223,0.365,0.28,0.627c0.057,0.262,0.086,0.616,0.086,1.063v2.678c0,0.363-0.013,0.633-0.039,0.809
			c-0.026,0.177-0.081,0.321-0.164,0.432c-0.083,0.112-0.233,0.251-0.451,0.417h2.81c-0.296-0.234-0.476-0.435-0.541-0.604
			c-0.065-0.168-0.097-0.52-0.097-1.054V8.171c0-0.638-0.029-1.117-0.086-1.436c-0.057-0.319-0.161-0.598-0.311-0.837
			c-0.161-0.233-0.374-0.442-0.639-0.626c-0.264-0.185-0.569-0.326-0.915-0.425c-0.345-0.098-0.688-0.148-1.031-0.148
			c-0.498,0-0.934,0.098-1.308,0.292c-0.374,0.195-0.768,0.534-1.183,1.016V4.606C229.127,4.819,228.797,4.925,228.335,4.925
			 M223.301,6.225c0.417,0.265,0.742,0.636,0.973,1.113c0.231,0.478,0.346,1.028,0.346,1.651c0,0.55-0.11,1.035-0.331,1.456
			c-0.22,0.42-0.53,0.747-0.93,0.981c-0.4,0.233-0.851,0.35-1.355,0.35c-0.379,0-0.733-0.077-1.062-0.23
			c-0.33-0.153-0.622-0.375-0.876-0.665c-0.254-0.291-0.449-0.631-0.584-1.02c-0.135-0.389-0.202-0.797-0.202-1.222
			c0-0.54,0.107-1.025,0.323-1.456c0.215-0.431,0.517-0.764,0.907-1.001c0.389-0.236,0.835-0.354,1.339-0.354
			C222.399,5.828,222.883,5.961,223.301,6.225 M220.985,4.801c-0.343,0.067-0.667,0.17-0.974,0.307
			c-0.306,0.138-0.596,0.31-0.871,0.518c-0.494,0.384-0.88,0.86-1.16,1.428c-0.281,0.569-0.421,1.164-0.421,1.787
			c0,0.758,0.186,1.448,0.557,2.071c0.371,0.623,0.887,1.112,1.549,1.467c0.662,0.356,1.395,0.533,2.199,0.533
			c0.825,0,1.582-0.184,2.27-0.552c0.687-0.369,1.227-0.871,1.619-1.507c0.392-0.635,0.588-1.337,0.588-2.105
			c0-0.561-0.112-1.099-0.335-1.616c-0.223-0.516-0.548-0.966-0.973-1.351c-0.784-0.721-1.755-1.082-2.912-1.082
			C221.706,4.699,221.327,4.733,220.985,4.801 M214.521,2.115c-0.208,0.202-0.311,0.446-0.311,0.732c0,0.295,0.1,0.546,0.299,0.751
			c0.2,0.205,0.445,0.307,0.736,0.307c0.301,0,0.551-0.102,0.751-0.307c0.2-0.205,0.3-0.456,0.3-0.751
			c0-0.281-0.099-0.523-0.296-0.728c-0.197-0.205-0.438-0.308-0.724-0.308C214.98,1.811,214.729,1.912,214.521,2.115 M215.058,4.925
			h-1.168c0.218,0.166,0.368,0.304,0.448,0.413c0.081,0.109,0.132,0.241,0.156,0.397c0.023,0.155,0.035,0.438,0.035,0.848v4.446
			c0,0.404-0.012,0.686-0.035,0.844c-0.024,0.159-0.075,0.292-0.156,0.401c-0.08,0.109-0.23,0.247-0.448,0.413h2.787
			c-0.212-0.172-0.359-0.31-0.439-0.417c-0.081-0.106-0.134-0.245-0.16-0.416c-0.026-0.172-0.039-0.447-0.039-0.825V4.606
			C215.842,4.819,215.515,4.925,215.058,4.925 M212.038,6.038c0.285,0,0.501,0.023,0.646,0.067c0.145,0.044,0.28,0.123,0.405,0.237
			V4.824c-0.161,0.067-0.49,0.101-0.989,0.101h-1.308V2.418h-0.653v0.211c0,0.944-0.208,1.634-0.623,2.07
			c-0.348,0.39-0.81,0.634-1.386,0.732v0.607h1.152v3.714c0,0.54,0.016,0.944,0.047,1.214s0.088,0.492,0.171,0.666
			c0.083,0.174,0.213,0.354,0.389,0.541c0.473,0.493,1.046,0.739,1.721,0.739c0.213,0,0.415-0.033,0.607-0.101l0.872-1.191
			c-0.249,0.094-0.483,0.14-0.701,0.14c-0.55,0-0.981-0.192-1.292-0.576c-0.119-0.15-0.2-0.332-0.241-0.545
			c-0.042-0.212-0.063-0.555-0.063-1.027V6.038H212.038z M205.309,11.823c0.086,0.233,0.256,0.43,0.51,0.591
			c0.203,0.125,0.415,0.212,0.639,0.261c0.223,0.049,0.537,0.09,0.942,0.121l0.731-1.098c-0.462-0.016-0.796-0.106-1.004-0.272
			c-0.192-0.141-0.311-0.292-0.358-0.456c-0.047-0.163-0.07-0.484-0.07-0.961V7.837c0-0.618-0.02-1.047-0.058-1.289
			c-0.039-0.241-0.132-0.481-0.277-0.72c-0.472-0.752-1.419-1.129-2.841-1.129c-0.405,0-0.794,0.037-1.168,0.109l-1.113,1.69
			c0.55-0.265,0.983-0.443,1.3-0.534c0.316-0.09,0.649-0.136,0.996-0.136c0.312,0,0.591,0.044,0.837,0.133
			c0.247,0.088,0.437,0.214,0.572,0.377c0.135,0.164,0.203,0.352,0.203,0.565c0,0.301-0.126,0.529-0.378,0.685
			c-0.252,0.155-0.759,0.308-1.522,0.459c-1.053,0.202-1.79,0.42-2.211,0.654c-0.285,0.15-0.513,0.383-0.685,0.697
			c-0.171,0.314-0.257,0.645-0.257,0.992c0,0.732,0.286,1.355,0.857,1.869c0.487,0.435,1.152,0.653,1.993,0.653
			c0.327,0,0.635-0.033,0.926-0.101l0.989-1.253c-0.478,0.145-0.898,0.218-1.261,0.218c-0.561,0-0.998-0.122-1.312-0.366
			c-0.314-0.244-0.471-0.579-0.471-1.004c0-0.665,0.405-1.095,1.214-1.293c0.607-0.14,0.998-0.233,1.172-0.28
			c0.174-0.047,0.332-0.094,0.475-0.144c0.142-0.049,0.31-0.12,0.502-0.214v2.172C205.181,11.197,205.224,11.589,205.309,11.823
			 M198.411,6.038c0.286,0,0.501,0.023,0.646,0.067c0.146,0.044,0.281,0.123,0.405,0.237V4.824c-0.161,0.067-0.49,0.101-0.988,0.101
			h-1.308V2.418h-0.654v0.211c0,0.944-0.208,1.634-0.623,2.07c-0.348,0.39-0.81,0.634-1.386,0.732v0.607h1.152v3.714
			c0,0.54,0.016,0.944,0.047,1.214c0.031,0.27,0.088,0.492,0.171,0.666c0.083,0.174,0.213,0.354,0.39,0.541
			c0.472,0.493,1.045,0.739,1.72,0.739c0.213,0,0.415-0.033,0.607-0.101l0.872-1.191c-0.249,0.094-0.482,0.14-0.7,0.14
			c-0.551,0-0.981-0.192-1.293-0.576c-0.119-0.15-0.2-0.332-0.241-0.545c-0.042-0.212-0.062-0.555-0.062-1.027V6.038H198.411z
			 M193.919,12.687c-0.212-0.172-0.359-0.31-0.439-0.417c-0.081-0.106-0.134-0.245-0.16-0.416c-0.026-0.172-0.039-0.447-0.039-0.825
			V4.606c-0.197,0.213-0.519,0.319-0.965,0.319h-1.184c0.213,0.161,0.36,0.296,0.44,0.405c0.081,0.109,0.134,0.256,0.16,0.44
			s0.039,0.455,0.039,0.813v3.013c0,0.607-0.177,1.094-0.53,1.46c-0.353,0.366-0.825,0.549-1.416,0.549
			c-0.639,0-1.137-0.213-1.495-0.639c-0.151-0.197-0.258-0.423-0.323-0.677s-0.097-0.586-0.097-0.997V4.606
			c-0.198,0.213-0.533,0.319-1.005,0.319h-1.144c0.218,0.166,0.367,0.304,0.448,0.413c0.08,0.109,0.132,0.241,0.155,0.397
			c0.024,0.155,0.035,0.438,0.035,0.848v3.013c0,0.95,0.159,1.661,0.475,2.133c0.249,0.374,0.593,0.665,1.032,0.872
			c0.438,0.208,0.935,0.311,1.49,0.311c0.379,0,0.697-0.04,0.954-0.12c0.257-0.081,0.493-0.208,0.709-0.382
			c0.215-0.173,0.473-0.447,0.774-0.821v1.098H193.919z M180.883,12.912c0.758,0,1.447-0.184,2.067-0.552
			c0.62-0.369,1.106-0.873,1.456-1.514c0.35-0.641,0.525-1.361,0.525-2.161c0-0.565-0.093-1.091-0.28-1.576
			c-0.187-0.485-0.449-0.902-0.786-1.25c-0.353-0.353-0.782-0.634-1.288-0.844c-0.507-0.211-1.011-0.316-1.515-0.316
			c-0.358,0-0.713,0.048-1.066,0.144c-0.353,0.097-0.674,0.235-0.962,0.417c-0.288,0.182-0.538,0.4-0.751,0.654V4.606
			c-0.208,0.213-0.537,0.319-0.989,0.319h-1.16c0.218,0.166,0.368,0.304,0.448,0.413c0.081,0.109,0.132,0.241,0.156,0.397
			c0.023,0.155,0.035,0.438,0.035,0.848v7.918c0,0.394-0.017,0.681-0.051,0.86c-0.034,0.179-0.092,0.322-0.175,0.428
			c-0.083,0.106-0.221,0.219-0.413,0.339h2.788c-0.198-0.12-0.338-0.234-0.421-0.343c-0.083-0.109-0.14-0.253-0.171-0.432
			c-0.031-0.179-0.047-0.463-0.047-0.852V8.304c0-0.379,0.03-0.685,0.09-0.919c0.059-0.233,0.167-0.449,0.323-0.646
			c0.228-0.28,0.517-0.502,0.868-0.666c0.35-0.163,0.715-0.245,1.094-0.245c0.508,0,0.954,0.127,1.339,0.382
			c0.384,0.254,0.682,0.613,0.895,1.078c0.213,0.464,0.319,0.987,0.319,1.569c0,0.607-0.104,1.131-0.311,1.572
			c-0.208,0.441-0.508,0.776-0.9,1.004c-0.391,0.229-0.865,0.343-1.42,0.343c-0.327,0-0.628-0.034-0.903-0.101
			c-0.276-0.068-0.602-0.187-0.981-0.358l0.911,1.37C180.027,12.837,180.452,12.912,180.883,12.912 M163.054,4.925h-1.167
			c0.218,0.166,0.367,0.304,0.447,0.413c0.081,0.109,0.133,0.241,0.156,0.397c0.023,0.155,0.035,0.438,0.035,0.848v4.446
			c0,0.404-0.012,0.686-0.035,0.844c-0.023,0.159-0.075,0.292-0.156,0.401c-0.08,0.109-0.229,0.247-0.447,0.413h2.787
			c-0.208-0.156-0.353-0.29-0.436-0.401c-0.083-0.112-0.138-0.254-0.164-0.428s-0.039-0.451-0.039-0.829V8.047
			c0-0.343,0.021-0.603,0.063-0.782c0.041-0.18,0.116-0.349,0.225-0.51c0.161-0.239,0.382-0.423,0.662-0.553
			c0.28-0.13,0.586-0.195,0.919-0.195c0.259,0,0.517,0.05,0.774,0.148c0.257,0.099,0.466,0.236,0.627,0.413
			c0.343,0.358,0.514,0.931,0.514,1.72v2.741c0,0.368-0.013,0.642-0.039,0.821c-0.026,0.179-0.078,0.322-0.156,0.428
			c-0.078,0.106-0.226,0.243-0.444,0.409h2.803c-0.301-0.239-0.485-0.441-0.553-0.608c-0.067-0.166-0.101-0.516-0.101-1.05V8.156
			c0-0.389,0.01-0.66,0.031-0.814c0.021-0.153,0.07-0.304,0.148-0.455c0.156-0.291,0.387-0.52,0.693-0.689
			c0.306-0.169,0.638-0.253,0.996-0.253c0.644,0,1.145,0.218,1.503,0.654c0.15,0.202,0.259,0.441,0.327,0.716
			c0.067,0.275,0.101,0.646,0.101,1.113v2.601c0,0.368-0.013,0.642-0.039,0.821c-0.026,0.179-0.079,0.323-0.159,0.432
			c-0.081,0.109-0.233,0.244-0.456,0.405h2.919c-0.212-0.088-0.372-0.19-0.478-0.304c-0.107-0.114-0.179-0.275-0.218-0.483
			c-0.039-0.207-0.059-0.498-0.059-0.871V8.016c0-0.54-0.03-0.964-0.089-1.273c-0.06-0.309-0.162-0.58-0.308-0.814
			c-0.223-0.378-0.569-0.678-1.039-0.899c-0.47-0.22-0.995-0.331-1.576-0.331c-0.364,0-0.697,0.05-1.001,0.148
			c-0.303,0.099-0.582,0.252-0.837,0.46c-0.254,0.207-0.524,0.498-0.809,0.872c-0.317-0.514-0.678-0.889-1.082-1.125
			c-0.405-0.236-0.898-0.355-1.48-0.355c-0.534,0-0.991,0.102-1.37,0.304c-0.379,0.202-0.742,0.542-1.09,1.02V4.606
			C163.776,4.819,163.475,4.925,163.054,4.925 M157.934,6.225c0.418,0.265,0.742,0.636,0.973,1.113
			c0.231,0.478,0.347,1.028,0.347,1.651c0,0.55-0.111,1.035-0.331,1.456c-0.221,0.42-0.531,0.747-0.93,0.981
			c-0.4,0.233-0.852,0.35-1.355,0.35c-0.379,0-0.733-0.077-1.063-0.23c-0.329-0.153-0.621-0.375-0.875-0.665
			c-0.255-0.291-0.449-0.631-0.584-1.02c-0.135-0.389-0.203-0.797-0.203-1.222c0-0.54,0.108-1.025,0.323-1.456
			c0.216-0.431,0.518-0.764,0.907-1.001c0.39-0.236,0.836-0.354,1.339-0.354C157.032,5.828,157.516,5.961,157.934,6.225
			 M155.618,4.801c-0.342,0.067-0.667,0.17-0.973,0.307c-0.306,0.138-0.597,0.31-0.872,0.518c-0.493,0.384-0.88,0.86-1.16,1.428
			c-0.28,0.569-0.42,1.164-0.42,1.787c0,0.758,0.185,1.448,0.556,2.071c0.371,0.623,0.888,1.112,1.55,1.467
			c0.661,0.356,1.394,0.533,2.199,0.533c0.825,0,1.581-0.184,2.269-0.552c0.688-0.369,1.228-0.871,1.619-1.507
			c0.392-0.635,0.588-1.337,0.588-2.105c0-0.561-0.111-1.099-0.335-1.616c-0.223-0.516-0.547-0.966-0.973-1.351
			c-0.783-0.721-1.754-1.082-2.911-1.082C156.34,4.699,155.961,4.733,155.618,4.801 M147.633,1.336
			c-1.126,0-2.145,0.252-3.056,0.755c-0.91,0.504-1.623,1.201-2.137,2.091c-0.513,0.89-0.77,1.885-0.77,2.985
			c0,0.851,0.149,1.634,0.447,2.347c0.299,0.714,0.732,1.329,1.301,1.845c0.568,0.517,1.248,0.913,2.039,1.188
			c0.792,0.275,1.654,0.412,2.589,0.412c0.332,0,0.639-0.017,0.922-0.05c0.283-0.034,0.559-0.086,0.829-0.156
			c0.27-0.07,0.558-0.167,0.864-0.292l0.849-1.962c-0.753,0.4-1.409,0.684-1.97,0.853c-0.56,0.168-1.134,0.253-1.72,0.253
			c-0.779,0-1.492-0.209-2.141-0.627c-0.649-0.418-1.16-0.987-1.534-1.709c-0.373-0.721-0.56-1.515-0.56-2.382
			c0-0.799,0.17-1.512,0.51-2.137s0.816-1.112,1.428-1.46c0.613-0.347,1.306-0.521,2.079-0.521c0.514,0,1.012,0.074,1.495,0.222
			c0.482,0.148,1.004,0.382,1.564,0.704V1.764C149.488,1.479,148.479,1.336,147.633,1.336 M134.636,12.27
			c-0.081-0.106-0.134-0.245-0.16-0.416c-0.026-0.172-0.039-0.447-0.039-0.825V8.257c0-0.69,0.12-1.201,0.358-1.534
			c0.146-0.212,0.348-0.38,0.608-0.502c0.259-0.122,0.539-0.183,0.84-0.183c0.343,0,0.608,0.091,0.794,0.273V4.762
			c-0.233-0.042-0.428-0.063-0.583-0.063c-0.436,0-0.826,0.111-1.168,0.331c-0.343,0.221-0.626,0.541-0.849,0.962V4.606
			c-0.197,0.213-0.524,0.319-0.981,0.319h-1.167c0.218,0.166,0.367,0.304,0.447,0.413c0.081,0.109,0.133,0.241,0.156,0.397
			c0.023,0.155,0.035,0.438,0.035,0.848v4.446c0,0.404-0.012,0.686-0.035,0.844c-0.023,0.159-0.075,0.292-0.156,0.401
			c-0.08,0.109-0.229,0.247-0.447,0.413h2.787C134.863,12.515,134.716,12.377,134.636,12.27 M128.336,6.225
			c0.418,0.265,0.742,0.636,0.973,1.113c0.231,0.478,0.347,1.028,0.347,1.651c0,0.55-0.111,1.035-0.331,1.456
			c-0.221,0.42-0.531,0.747-0.93,0.981c-0.4,0.233-0.852,0.35-1.355,0.35c-0.379,0-0.733-0.077-1.063-0.23
			c-0.329-0.153-0.621-0.375-0.875-0.665c-0.255-0.291-0.449-0.631-0.584-1.02c-0.135-0.389-0.203-0.797-0.203-1.222
			c0-0.54,0.108-1.025,0.323-1.456c0.216-0.431,0.518-0.764,0.907-1.001c0.39-0.236,0.836-0.354,1.339-0.354
			C127.434,5.828,127.918,5.961,128.336,6.225 M126.02,4.801c-0.342,0.067-0.667,0.17-0.973,0.307
			c-0.306,0.138-0.597,0.31-0.872,0.518c-0.493,0.384-0.88,0.86-1.16,1.428c-0.28,0.569-0.42,1.164-0.42,1.787
			c0,0.758,0.185,1.448,0.556,2.071c0.371,0.623,0.888,1.112,1.55,1.467c0.661,0.356,1.394,0.533,2.199,0.533
			c0.825,0,1.581-0.184,2.269-0.552c0.688-0.369,1.228-0.871,1.619-1.507c0.392-0.635,0.588-1.337,0.588-2.105
			c0-0.561-0.111-1.099-0.335-1.616c-0.223-0.516-0.547-0.966-0.973-1.351c-0.783-0.721-1.754-1.082-2.911-1.082
			C126.742,4.699,126.363,4.733,126.02,4.801 M121.273,6.038c0.29,0,0.489,0.017,0.595,0.051c0.107,0.034,0.207,0.108,0.3,0.222
			V4.824c-0.187,0.067-0.384,0.101-0.592,0.101h-1.705V3.851c0-0.504,0.052-0.833,0.156-0.989c0.197-0.327,0.542-0.49,1.035-0.49
			c0.301,0,0.589,0.091,0.865,0.272l1.198-1.308c-0.467-0.078-0.851-0.116-1.152-0.116c-0.607,0-1.13,0.064-1.568,0.194
			c-0.439,0.13-0.814,0.332-1.125,0.607c-0.332,0.286-0.57,0.589-0.713,0.911c-0.142,0.322-0.214,0.714-0.214,1.176v0.817
			l-0.84,1.113h0.84v4.991c0,0.363-0.013,0.634-0.039,0.813s-0.079,0.324-0.159,0.436c-0.081,0.112-0.227,0.248-0.44,0.409h2.873
			c-0.12-0.073-0.203-0.135-0.25-0.187c-0.046-0.052-0.124-0.166-0.233-0.343c-0.062-0.119-0.11-0.247-0.144-0.385
			c-0.034-0.137-0.057-0.328-0.07-0.572c-0.013-0.244-0.02-0.493-0.02-0.748V6.038H121.273z M107.135,6.194
			c0.389-0.327,0.869-0.49,1.44-0.49c1.189,0,1.902,0.628,2.141,1.884h-4.352C106.489,6.986,106.746,6.521,107.135,6.194
			 M112.483,8.366c0-0.529-0.096-1.018-0.288-1.467c-0.192-0.449-0.459-0.837-0.802-1.164c-0.342-0.327-0.747-0.581-1.214-0.763
			c-0.467-0.182-0.976-0.273-1.526-0.273c-0.56,0-1.078,0.082-1.553,0.246c-0.475,0.163-0.891,0.406-1.25,0.728
			c-0.275,0.249-0.516,0.543-0.724,0.883c-0.207,0.34-0.367,0.701-0.478,1.082c-0.112,0.382-0.168,0.767-0.168,1.156
			c0,0.794,0.201,1.505,0.604,2.133c0.402,0.628,0.968,1.116,1.697,1.464c0.729,0.348,1.55,0.521,2.464,0.521
			c0.269,0,0.538-0.013,0.805-0.038c0.268-0.026,0.522-0.069,0.763-0.129c0.242-0.06,0.495-0.139,0.759-0.237l0.911-1.604
			c-0.306,0.208-0.602,0.375-0.887,0.502c-0.286,0.127-0.591,0.221-0.915,0.28c-0.324,0.06-0.663,0.09-1.016,0.09
			c-0.659,0-1.24-0.125-1.744-0.374c-0.503-0.249-0.892-0.61-1.167-1.082c-0.276-0.472-0.429-1.033-0.46-1.681h6.189V8.366z
			 M102.954,6.038c0.285,0,0.501,0.023,0.646,0.067c0.145,0.044,0.28,0.123,0.405,0.237V4.824c-0.161,0.067-0.49,0.101-0.989,0.101
			h-1.308V2.418h-0.654v0.211c0,0.944-0.207,1.634-0.622,2.07c-0.348,0.39-0.81,0.634-1.386,0.732v0.607h1.152v3.714
			c0,0.54,0.016,0.944,0.047,1.214s0.088,0.492,0.171,0.666c0.083,0.174,0.213,0.354,0.389,0.541
			c0.473,0.493,1.046,0.739,1.721,0.739c0.213,0,0.415-0.033,0.607-0.101l0.872-1.191c-0.249,0.094-0.483,0.14-0.701,0.14
			c-0.55,0-0.981-0.192-1.292-0.576c-0.119-0.15-0.2-0.332-0.241-0.545c-0.042-0.212-0.063-0.555-0.063-1.027V6.038H102.954z
			 M98.462,12.687c-0.213-0.172-0.359-0.31-0.44-0.417c-0.08-0.106-0.133-0.245-0.159-0.416c-0.026-0.172-0.039-0.447-0.039-0.825
			V4.606c-0.198,0.213-0.519,0.319-0.966,0.319h-1.183c0.213,0.161,0.359,0.296,0.44,0.405c0.08,0.109,0.134,0.256,0.16,0.44
			c0.025,0.184,0.039,0.455,0.039,0.813v3.013c0,0.607-0.177,1.094-0.53,1.46c-0.353,0.366-0.825,0.549-1.417,0.549
			c-0.638,0-1.136-0.213-1.494-0.639c-0.151-0.197-0.259-0.423-0.323-0.677c-0.065-0.254-0.098-0.586-0.098-0.997V4.606
			c-0.197,0.213-0.532,0.319-1.004,0.319h-1.144c0.218,0.166,0.367,0.304,0.447,0.413c0.081,0.109,0.133,0.241,0.156,0.397
			c0.023,0.155,0.035,0.438,0.035,0.848v3.013c0,0.95,0.158,1.661,0.475,2.133c0.249,0.374,0.593,0.665,1.031,0.872
			c0.439,0.208,0.936,0.311,1.491,0.311c0.379,0,0.697-0.04,0.954-0.12c0.257-0.081,0.493-0.208,0.708-0.382
			c0.215-0.173,0.474-0.447,0.775-0.821v1.098H98.462z M88.488,6.038c0.285,0,0.501,0.023,0.646,0.067
			c0.145,0.044,0.28,0.123,0.405,0.237V4.824c-0.161,0.067-0.491,0.101-0.989,0.101h-1.308V2.418h-0.654v0.211
			c0,0.944-0.207,1.634-0.622,2.07c-0.348,0.39-0.81,0.634-1.386,0.732v0.607h1.152v3.714c0,0.54,0.016,0.944,0.047,1.214
			c0.031,0.27,0.088,0.492,0.171,0.666c0.083,0.174,0.213,0.354,0.389,0.541c0.472,0.493,1.046,0.739,1.721,0.739
			c0.212,0,0.415-0.033,0.607-0.101l0.872-1.191c-0.249,0.094-0.483,0.14-0.701,0.14c-0.55,0-0.981-0.192-1.292-0.576
			c-0.12-0.15-0.2-0.332-0.241-0.545c-0.042-0.212-0.063-0.555-0.063-1.027V6.038H88.488z M81.84,2.115
			c-0.208,0.202-0.312,0.446-0.312,0.732c0,0.295,0.1,0.546,0.3,0.751c0.2,0.205,0.445,0.307,0.736,0.307
			c0.301,0,0.551-0.102,0.751-0.307c0.2-0.205,0.3-0.456,0.3-0.751c0-0.281-0.099-0.523-0.296-0.728
			c-0.198-0.205-0.439-0.308-0.724-0.308C82.299,1.811,82.047,1.912,81.84,2.115 M82.377,4.925h-1.168
			c0.218,0.166,0.367,0.304,0.448,0.413c0.08,0.109,0.132,0.241,0.155,0.397c0.024,0.155,0.035,0.438,0.035,0.848v4.446
			c0,0.404-0.011,0.686-0.035,0.844c-0.023,0.159-0.075,0.292-0.155,0.401c-0.081,0.109-0.23,0.247-0.448,0.413h2.787
			c-0.213-0.172-0.359-0.31-0.44-0.417c-0.08-0.106-0.133-0.245-0.159-0.416c-0.026-0.172-0.039-0.447-0.039-0.825V4.606
			C83.16,4.819,82.833,4.925,82.377,4.925 M79.357,6.038c0.285,0,0.5,0.023,0.646,0.067c0.145,0.044,0.28,0.123,0.405,0.237V4.824
			c-0.161,0.067-0.491,0.101-0.989,0.101h-1.308V2.418h-0.654v0.211c0,0.944-0.208,1.634-0.623,2.07
			c-0.347,0.39-0.809,0.634-1.385,0.732v0.607h1.152v3.714c0,0.54,0.015,0.944,0.046,1.214c0.032,0.27,0.089,0.492,0.172,0.666
			c0.083,0.174,0.213,0.354,0.389,0.541c0.472,0.493,1.046,0.739,1.72,0.739c0.213,0,0.416-0.033,0.608-0.101l0.872-1.191
			c-0.25,0.094-0.483,0.14-0.701,0.14c-0.55,0-0.981-0.192-1.292-0.576c-0.12-0.15-0.2-0.332-0.242-0.545
			c-0.041-0.212-0.062-0.555-0.062-1.027V6.038H79.357z M72.258,4.699c-0.68,0-1.268,0.09-1.763,0.269
			c-0.496,0.179-0.876,0.44-1.141,0.782c-0.264,0.343-0.397,0.748-0.397,1.215c0,0.358,0.077,0.663,0.23,0.915
			c0.153,0.251,0.409,0.484,0.767,0.696c0.358,0.213,0.864,0.436,1.518,0.67c0.877,0.316,1.414,0.545,1.611,0.685
			c0.255,0.182,0.382,0.436,0.382,0.763c0,0.337-0.174,0.619-0.522,0.844c-0.348,0.226-0.778,0.339-1.292,0.339
			c-0.358,0-0.697-0.032-1.016-0.097s-0.648-0.173-0.985-0.323c-0.337-0.151-0.719-0.358-1.144-0.623l0.576,1.658
			c0.451,0.166,0.83,0.278,1.136,0.335c0.307,0.057,0.683,0.085,1.129,0.085c0.753,0,1.408-0.106,1.966-0.319
			c0.558-0.212,0.989-0.519,1.292-0.918c0.304-0.4,0.456-0.859,0.456-1.378c0-0.571-0.218-1.062-0.654-1.472
			c-0.218-0.197-0.461-0.358-0.728-0.482c-0.268-0.125-0.726-0.293-1.374-0.506c-0.457-0.146-0.813-0.275-1.067-0.39
			c-0.254-0.114-0.438-0.236-0.552-0.365c-0.115-0.13-0.172-0.275-0.172-0.436c0-0.281,0.142-0.508,0.425-0.682
			c0.282-0.173,0.657-0.26,1.124-0.26c0.654,0,1.345,0.218,2.071,0.654V4.925C73.62,4.775,72.995,4.699,72.258,4.699 M60.694,4.925
			h-1.083c0.218,0.166,0.368,0.304,0.448,0.413c0.08,0.109,0.132,0.241,0.156,0.397c0.023,0.155,0.035,0.438,0.035,0.848v4.446
			c0,0.404-0.012,0.686-0.035,0.844c-0.024,0.159-0.076,0.292-0.156,0.401c-0.08,0.109-0.23,0.247-0.448,0.413h2.787
			c-0.212-0.172-0.359-0.31-0.439-0.417c-0.081-0.106-0.134-0.245-0.16-0.416c-0.026-0.172-0.039-0.447-0.039-0.825V7.634
			c0-0.425,0.075-0.744,0.226-0.957c0.166-0.229,0.389-0.408,0.669-0.537c0.281-0.13,0.589-0.195,0.927-0.195
			c0.347,0,0.676,0.066,0.985,0.198c0.308,0.133,0.543,0.305,0.704,0.518c0.13,0.156,0.223,0.365,0.28,0.627
			c0.057,0.262,0.086,0.616,0.086,1.063v2.678c0,0.363-0.013,0.633-0.039,0.809c-0.026,0.177-0.081,0.321-0.163,0.432
			c-0.084,0.112-0.234,0.251-0.452,0.417h2.81c-0.295-0.234-0.476-0.435-0.541-0.604c-0.065-0.168-0.097-0.52-0.097-1.054V8.171
			c0-0.638-0.029-1.117-0.086-1.436s-0.161-0.598-0.311-0.837c-0.161-0.233-0.374-0.442-0.638-0.626
			c-0.265-0.185-0.57-0.326-0.915-0.425c-0.345-0.098-0.689-0.148-1.032-0.148c-0.498,0-0.934,0.098-1.307,0.292
			c-0.374,0.195-0.769,0.534-1.184,1.016V4.606C61.485,4.819,61.155,4.925,60.694,4.925 M55.971,11.663
			c-0.039,0.267-0.113,0.478-0.222,0.631c-0.109,0.153-0.267,0.284-0.475,0.393h3.192c-0.213-0.109-0.371-0.239-0.475-0.39
			c-0.104-0.15-0.175-0.36-0.214-0.63c-0.039-0.27-0.058-0.646-0.058-1.129V3.757c0-0.482,0.019-0.858,0.058-1.128
			c0.039-0.27,0.11-0.48,0.214-0.631c0.104-0.15,0.262-0.28,0.475-0.389h-3.192c0.208,0.109,0.366,0.24,0.475,0.393
			c0.109,0.153,0.183,0.363,0.222,0.63c0.039,0.268,0.058,0.643,0.058,1.125v6.781C56.029,11.021,56.01,11.396,55.971,11.663"/>
	</g>
</g>
</svg>
