<?xml version="1.0" encoding="UTF-8" standalone="no"?>
<!-- Generator: Adobe Illustrator 27.0.1, SVG Export Plug-In . SVG Version: 6.00 Build 0)  -->

<svg
   version="1.1"
   id="Layer_1"
   x="0px"
   y="0px"
   viewBox="0 0 180.161 32.060001"
   xml:space="preserve"
   sodipodi:docname="ua_icdi.svg"
   width="180.161"
   height="32.060001"
   inkscape:version="1.1.2 (0a00cf5339, 2022-02-04)"
   xmlns:inkscape="http://www.inkscape.org/namespaces/inkscape"
   xmlns:sodipodi="http://sodipodi.sourceforge.net/DTD/sodipodi-0.dtd"
   xmlns="http://www.w3.org/2000/svg"
   xmlns:svg="http://www.w3.org/2000/svg"><defs
   id="defs29">
	
	
	
	
	
	
	

		
		
	
		
	
		
	</defs><sodipodi:namedview
   id="namedview27"
   pagecolor="#ffffff"
   bordercolor="#666666"
   borderopacity="1.0"
   inkscape:pageshadow="2"
   inkscape:pageopacity="0.0"
   inkscape:pagecheckerboard="0"
   showgrid="false"
   fit-margin-top="0"
   fit-margin-left="0"
   fit-margin-right="0"
   fit-margin-bottom="0"
   inkscape:zoom="4.7826364"
   inkscape:cx="60.845102"
   inkscape:cy="16.204451"
   inkscape:window-width="1920"
   inkscape:window-height="1005"
   inkscape:window-x="0"
   inkscape:window-y="0"
   inkscape:window-maximized="1"
   inkscape:current-layer="Layer_1" />
<path
   style="fill:#00275b"
   d="m 163.773,21.426 c 0.286,0 0.501,0.022 0.646,0.066 0.146,0.044 0.281,0.123 0.405,0.237 v -1.518 c -0.161,0.068 -0.49,0.101 -0.989,0.101 h -1.307 v -2.506 h -0.654 v 0.21 c 0,0.945 -0.208,1.635 -0.623,2.071 -0.348,0.389 -0.81,0.633 -1.386,0.731 v 0.608 h 1.152 v 3.713 c 0,0.54 0.016,0.945 0.047,1.215 0.031,0.269 0.088,0.491 0.171,0.665 0.083,0.174 0.213,0.354 0.39,0.541 0.472,0.493 1.045,0.74 1.72,0.74 0.213,0 0.415,-0.034 0.607,-0.101 l 0.872,-1.192 c -0.249,0.094 -0.483,0.141 -0.7,0.141 -0.551,0 -0.981,-0.192 -1.293,-0.577 -0.119,-0.15 -0.2,-0.332 -0.241,-0.544 -0.042,-0.213 -0.062,-0.556 -0.062,-1.028 v -3.573 z m -11.417,-4.43 h -1.16 c 0.218,0.166 0.367,0.302 0.448,0.409 0.08,0.106 0.132,0.237 0.155,0.393 0.024,0.156 0.035,0.441 0.035,0.856 v 7.762 c 0,0.405 -0.011,0.686 -0.035,0.844 -0.023,0.159 -0.075,0.292 -0.155,0.401 -0.081,0.109 -0.23,0.247 -0.448,0.413 h 2.803 c -0.229,-0.176 -0.382,-0.317 -0.46,-0.42 -0.078,-0.104 -0.129,-0.244 -0.155,-0.421 -0.026,-0.176 -0.039,-0.449 -0.039,-0.817 v -3.075 c 0,-0.447 0.017,-0.748 0.05,-0.903 0.034,-0.156 0.118,-0.317 0.253,-0.483 0.187,-0.218 0.419,-0.384 0.697,-0.498 0.278,-0.114 0.583,-0.171 0.915,-0.171 0.726,0 1.269,0.238 1.627,0.716 0.124,0.155 0.209,0.333 0.253,0.533 0.044,0.2 0.066,0.5 0.066,0.899 v 2.982 c 0,0.368 -0.013,0.642 -0.039,0.821 -0.026,0.179 -0.079,0.323 -0.159,0.432 -0.081,0.109 -0.233,0.244 -0.456,0.405 h 2.803 c -0.296,-0.239 -0.477,-0.442 -0.541,-0.611 -0.065,-0.169 -0.098,-0.518 -0.098,-1.047 V 22.92 c 0,-0.451 -0.03,-0.799 -0.089,-1.043 -0.06,-0.244 -0.168,-0.475 -0.323,-0.693 -0.172,-0.233 -0.381,-0.432 -0.627,-0.595 -0.247,-0.164 -0.524,-0.288 -0.833,-0.374 -0.309,-0.086 -0.634,-0.128 -0.977,-0.128 -0.524,0 -1.013,0.096 -1.467,0.288 -0.455,0.192 -0.806,0.451 -1.055,0.778 v -4.476 c -0.198,0.214 -0.527,0.319 -0.989,0.319 m -5.407,4.655 c 0.41,0.395 0.615,0.878 0.615,1.448 0,0.504 -0.155,0.914 -0.467,1.23 -0.311,0.317 -0.719,0.475 -1.222,0.475 -0.602,0 -1.115,-0.209 -1.537,-0.626 -0.424,-0.418 -0.635,-0.925 -0.635,-1.522 0,-0.457 0.167,-0.837 0.502,-1.141 0.335,-0.303 0.749,-0.455 1.242,-0.455 0.592,0 1.092,0.197 1.502,0.591 m 1.744,-1.424 c -0.514,0 -1.051,-0.021 -1.611,-0.062 -0.779,-0.052 -1.267,-0.078 -1.464,-0.078 -0.638,0 -1.223,0.127 -1.755,0.381 -0.532,0.254 -0.949,0.6 -1.25,1.036 -0.301,0.435 -0.451,0.921 -0.451,1.455 0,0.374 0.08,0.737 0.241,1.09 0.161,0.353 0.387,0.659 0.677,0.919 0.192,0.166 0.366,0.287 0.522,0.362 0.156,0.075 0.386,0.154 0.693,0.237 -0.374,0.146 -0.656,0.266 -0.845,0.362 -0.189,0.096 -0.319,0.185 -0.389,0.265 -0.07,0.08 -0.105,0.175 -0.105,0.284 0,0.14 0.039,0.3 0.116,0.479 0.078,0.179 0.172,0.323 0.281,0.432 0.218,0.192 0.485,0.288 0.802,0.288 0.155,0 0.282,-0.005 0.381,-0.016 0.202,-0.01 0.472,-0.015 0.81,-0.015 1.147,0 2.003,0.132 2.569,0.397 0.565,0.265 0.848,0.669 0.848,1.214 0,0.364 -0.124,0.684 -0.373,0.962 -0.25,0.277 -0.601,0.494 -1.055,0.65 -0.454,0.155 -0.972,0.233 -1.553,0.233 -0.878,0 -1.576,-0.162 -2.095,-0.486 -0.519,-0.325 -0.778,-0.767 -0.778,-1.328 0,-0.233 0.061,-0.411 0.183,-0.533 0.122,-0.122 0.31,-0.206 0.564,-0.253 -0.316,-0.135 -0.62,-0.202 -0.91,-0.202 -0.322,0 -0.601,0.054 -0.837,0.163 -0.237,0.109 -0.416,0.264 -0.538,0.463 -0.122,0.2 -0.182,0.438 -0.182,0.713 0,0.451 0.203,0.863 0.611,1.234 0.407,0.371 0.965,0.661 1.673,0.872 0.709,0.21 1.483,0.315 2.324,0.315 0.379,0 0.748,-0.026 1.106,-0.078 0.358,-0.052 0.691,-0.126 1,-0.222 0.309,-0.096 0.603,-0.215 0.884,-0.358 0.28,-0.143 0.532,-0.305 0.755,-0.487 0.56,-0.456 0.841,-1.053 0.841,-1.79 0,-0.483 -0.122,-0.893 -0.366,-1.23 -0.172,-0.223 -0.403,-0.429 -0.693,-0.619 -0.291,-0.189 -0.579,-0.323 -0.864,-0.401 -0.343,-0.098 -0.705,-0.165 -1.086,-0.198 -0.382,-0.034 -0.957,-0.056 -1.725,-0.067 -0.467,0 -0.7,-0.106 -0.7,-0.319 0,-0.104 0.053,-0.19 0.159,-0.261 0.107,-0.07 0.277,-0.128 0.51,-0.175 0.727,-0.072 1.285,-0.184 1.674,-0.334 0.633,-0.229 1.11,-0.538 1.432,-0.927 0.322,-0.389 0.483,-0.846 0.483,-1.37 0,-0.426 -0.099,-0.804 -0.296,-1.137 -0.197,-0.332 -0.514,-0.648 -0.95,-0.949 0.919,0.161 1.537,0.241 1.853,0.241 0.244,0 0.402,-0.07 0.475,-0.21 l 0.483,-1.082 c -0.753,0.093 -1.446,0.14 -2.079,0.14 m -9.825,-2.725 c -0.208,0.202 -0.312,0.446 -0.312,0.732 0,0.296 0.1,0.546 0.3,0.751 0.2,0.205 0.445,0.308 0.736,0.308 0.301,0 0.551,-0.103 0.751,-0.308 0.2,-0.205 0.3,-0.455 0.3,-0.751 0,-0.28 -0.099,-0.523 -0.296,-0.728 -0.197,-0.205 -0.439,-0.308 -0.724,-0.308 -0.296,0 -0.548,0.103 -0.755,0.304 m 0.537,2.81 h -1.168 c 0.218,0.167 0.367,0.304 0.448,0.413 0.08,0.109 0.132,0.241 0.156,0.397 0.023,0.156 0.035,0.439 0.035,0.849 v 4.445 c 0,0.405 -0.012,0.686 -0.035,0.844 -0.024,0.159 -0.076,0.292 -0.156,0.401 -0.081,0.109 -0.23,0.247 -0.448,0.413 h 2.787 c -0.213,-0.171 -0.359,-0.31 -0.44,-0.417 -0.08,-0.106 -0.133,-0.245 -0.159,-0.416 -0.026,-0.171 -0.039,-0.446 -0.039,-0.825 v -6.423 c -0.197,0.213 -0.524,0.319 -0.981,0.319 m -4.729,-0.225 c -0.68,0 -1.267,0.089 -1.763,0.268 -0.496,0.179 -0.876,0.44 -1.14,0.783 -0.265,0.342 -0.397,0.747 -0.397,1.214 0,0.358 0.076,0.663 0.229,0.915 0.153,0.252 0.409,0.484 0.767,0.697 0.358,0.212 0.864,0.435 1.518,0.669 0.877,0.317 1.414,0.545 1.612,0.685 0.254,0.182 0.381,0.436 0.381,0.763 0,0.337 -0.174,0.619 -0.522,0.845 -0.347,0.225 -0.778,0.338 -1.292,0.338 -0.358,0 -0.697,-0.032 -1.016,-0.097 -0.319,-0.065 -0.647,-0.172 -0.985,-0.323 -0.337,-0.151 -0.719,-0.358 -1.144,-0.623 l 0.576,1.658 c 0.452,0.167 0.83,0.278 1.137,0.335 0.306,0.057 0.682,0.086 1.128,0.086 0.753,0 1.408,-0.107 1.966,-0.319 0.558,-0.213 0.989,-0.519 1.292,-0.919 0.304,-0.4 0.456,-0.859 0.456,-1.378 0,-0.571 -0.218,-1.061 -0.654,-1.471 -0.218,-0.198 -0.461,-0.358 -0.728,-0.483 -0.267,-0.125 -0.725,-0.293 -1.374,-0.506 -0.457,-0.145 -0.812,-0.275 -1.067,-0.389 -0.254,-0.114 -0.438,-0.236 -0.552,-0.366 -0.114,-0.13 -0.172,-0.275 -0.172,-0.436 0,-0.28 0.142,-0.507 0.425,-0.681 0.283,-0.174 0.658,-0.261 1.125,-0.261 0.654,0 1.344,0.218 2.07,0.654 v -1.433 c -0.513,-0.15 -1.139,-0.225 -1.876,-0.225 m -11.564,0.225 h -1.082 c 0.218,0.167 0.367,0.304 0.447,0.413 0.081,0.109 0.133,0.241 0.156,0.397 0.023,0.156 0.035,0.439 0.035,0.849 v 4.445 c 0,0.405 -0.012,0.686 -0.035,0.844 -0.023,0.159 -0.075,0.292 -0.156,0.401 -0.08,0.109 -0.229,0.247 -0.447,0.413 h 2.787 c -0.213,-0.171 -0.36,-0.31 -0.44,-0.417 -0.081,-0.106 -0.134,-0.245 -0.16,-0.416 -0.026,-0.171 -0.039,-0.446 -0.039,-0.825 v -3.394 c 0,-0.426 0.075,-0.745 0.226,-0.958 0.166,-0.228 0.389,-0.407 0.67,-0.537 0.28,-0.13 0.589,-0.195 0.926,-0.195 0.348,0 0.676,0.066 0.985,0.199 0.308,0.132 0.543,0.305 0.704,0.517 0.13,0.156 0.223,0.365 0.281,0.627 0.057,0.262 0.085,0.616 0.085,1.063 v 2.678 c 0,0.363 -0.013,0.633 -0.039,0.809 -0.026,0.177 -0.08,0.321 -0.163,0.432 -0.083,0.112 -0.234,0.251 -0.452,0.417 h 2.811 c -0.296,-0.234 -0.477,-0.435 -0.541,-0.603 -0.065,-0.169 -0.098,-0.521 -0.098,-1.055 v -2.857 c 0,-0.639 -0.028,-1.117 -0.085,-1.437 -0.058,-0.319 -0.161,-0.598 -0.312,-0.836 -0.161,-0.234 -0.373,-0.443 -0.638,-0.627 -0.265,-0.184 -0.57,-0.326 -0.915,-0.424 -0.345,-0.099 -0.689,-0.148 -1.031,-0.148 -0.499,0 -0.935,0.097 -1.308,0.292 -0.374,0.194 -0.768,0.533 -1.184,1.016 v -1.402 c -0.197,0.213 -0.526,0.319 -0.988,0.319 m -4.723,6.738 c -0.039,0.268 -0.113,0.478 -0.222,0.631 -0.109,0.153 -0.267,0.284 -0.475,0.393 h 3.192 c -0.213,-0.109 -0.371,-0.239 -0.475,-0.389 -0.103,-0.151 -0.175,-0.361 -0.214,-0.631 -0.039,-0.27 -0.058,-0.646 -0.058,-1.129 v -6.78 c 0,-0.483 0.019,-0.859 0.058,-1.129 0.039,-0.27 0.111,-0.48 0.214,-0.631 0.104,-0.15 0.262,-0.28 0.475,-0.389 h -3.192 c 0.208,0.109 0.366,0.24 0.475,0.393 0.109,0.153 0.183,0.364 0.222,0.631 0.039,0.267 0.059,0.642 0.059,1.125 v 6.78 c 0,0.483 -0.02,0.858 -0.059,1.125 m -9.346,-6.734 c -0.41,-0.153 -0.874,-0.229 -1.393,-0.229 -0.551,0 -1.064,0.104 -1.542,0.311 -0.477,0.208 -0.898,0.501 -1.261,0.88 -0.363,0.379 -0.644,0.819 -0.841,1.319 -0.197,0.501 -0.296,1.04 -0.296,1.616 0,0.716 0.152,1.366 0.456,1.95 0.304,0.584 0.741,1.073 1.312,1.467 0.347,0.229 0.728,0.397 1.14,0.506 0.413,0.109 0.878,0.164 1.398,0.164 0.29,0 0.57,-0.039 0.84,-0.117 l 0.973,-1.51 c -0.28,0.176 -0.526,0.297 -0.739,0.362 -0.213,0.065 -0.459,0.097 -0.74,0.097 -0.555,0 -1.053,-0.137 -1.494,-0.413 -0.442,-0.275 -0.789,-0.659 -1.044,-1.152 -0.254,-0.493 -0.381,-1.038 -0.381,-1.635 0,-0.519 0.105,-0.988 0.315,-1.409 0.21,-0.42 0.504,-0.748 0.88,-0.984 0.376,-0.237 0.803,-0.355 1.281,-0.355 0.378,0 0.736,0.081 1.074,0.242 0.337,0.161 0.615,0.389 0.833,0.685 0.207,0.264 0.34,0.523 0.397,0.774 0.057,0.252 0.086,0.705 0.086,1.359 v 3.83 h 2.148 c -0.296,-0.234 -0.476,-0.435 -0.541,-0.603 -0.065,-0.169 -0.097,-0.521 -0.097,-1.055 v -9.739 c -0.198,0.213 -0.527,0.319 -0.989,0.319 h -1.16 c 0.213,0.161 0.359,0.296 0.44,0.405 0.08,0.109 0.134,0.256 0.16,0.44 0.025,0.184 0.039,0.455 0.039,0.813 v 2.421 c -0.426,-0.353 -0.844,-0.606 -1.254,-0.759 m -11.734,1.265 c 0.389,-0.327 0.869,-0.49 1.44,-0.49 1.188,0 1.902,0.628 2.141,1.884 h -4.352 c 0.125,-0.602 0.381,-1.067 0.771,-1.394 m 5.348,2.172 c 0,-0.529 -0.096,-1.018 -0.288,-1.467 -0.192,-0.449 -0.459,-0.837 -0.802,-1.164 -0.342,-0.327 -0.747,-0.581 -1.214,-0.763 -0.467,-0.181 -0.976,-0.272 -1.526,-0.272 -0.561,0 -1.078,0.081 -1.553,0.245 -0.475,0.163 -0.892,0.406 -1.25,0.728 -0.275,0.249 -0.516,0.544 -0.724,0.883 -0.207,0.34 -0.367,0.701 -0.479,1.082 -0.111,0.382 -0.167,0.767 -0.167,1.157 0,0.794 0.201,1.505 0.603,2.133 0.403,0.628 0.968,1.116 1.698,1.463 0.729,0.348 1.55,0.522 2.463,0.522 0.27,0 0.539,-0.013 0.806,-0.039 0.267,-0.026 0.522,-0.069 0.763,-0.129 0.241,-0.059 0.494,-0.138 0.759,-0.237 l 0.911,-1.604 c -0.306,0.208 -0.602,0.375 -0.888,0.502 -0.285,0.128 -0.59,0.221 -0.914,0.281 -0.325,0.059 -0.663,0.089 -1.016,0.089 -0.659,0 -1.241,-0.124 -1.744,-0.374 -0.503,-0.249 -0.893,-0.609 -1.168,-1.082 -0.275,-0.472 -0.428,-1.032 -0.459,-1.681 h 6.189 z m -9.426,3.718 C 93.166,27.302 93.134,26.95 93.134,26.416 v -9.739 c -0.197,0.213 -0.527,0.319 -0.989,0.319 h -1.16 c 0.218,0.166 0.367,0.302 0.448,0.409 0.08,0.106 0.132,0.237 0.156,0.393 0.023,0.156 0.035,0.441 0.035,0.856 v 7.762 c 0,0.405 -0.012,0.686 -0.035,0.844 -0.024,0.159 -0.076,0.292 -0.156,0.401 -0.081,0.109 -0.23,0.247 -0.448,0.413 h 2.787 C 93.477,27.84 93.296,27.639 93.231,27.471 M 85.207,21.41 c 0.202,-0.052 0.433,-0.078 0.693,-0.078 0.482,0 0.912,0.125 1.288,0.374 0.376,0.249 0.67,0.598 0.88,1.047 0.21,0.449 0.315,0.964 0.315,1.545 0,0.862 -0.257,1.544 -0.77,2.048 -0.514,0.503 -1.21,0.755 -2.087,0.755 -0.42,0 -0.898,-0.065 -1.432,-0.195 V 16.677 c -0.218,0.213 -0.548,0.319 -0.989,0.319 h -1.16 c 0.218,0.166 0.367,0.304 0.448,0.413 0.08,0.109 0.132,0.241 0.155,0.397 0.024,0.155 0.035,0.438 0.035,0.848 v 8.159 c 0,0.342 -0.033,0.591 -0.101,0.747 -0.067,0.156 -0.205,0.301 -0.412,0.436 0.846,0.203 1.925,0.304 3.238,0.304 0.939,0 1.775,-0.182 2.507,-0.545 0.732,-0.363 1.296,-0.872 1.693,-1.526 0.397,-0.654 0.596,-1.409 0.596,-2.265 0,-0.551 -0.089,-1.06 -0.265,-1.53 -0.177,-0.47 -0.428,-0.881 -0.755,-1.234 -0.327,-0.353 -0.707,-0.627 -1.141,-0.821 -0.433,-0.195 -0.901,-0.292 -1.405,-0.292 -0.223,0 -0.415,0.015 -0.576,0.046 -0.161,0.032 -0.353,0.086 -0.576,0.164 l -0.926,1.417 c 0.295,-0.15 0.545,-0.252 0.747,-0.304 m -6.518,5.801 c 0.086,0.233 0.256,0.431 0.51,0.592 0.202,0.124 0.415,0.211 0.638,0.26 0.224,0.05 0.538,0.09 0.942,0.121 l 0.732,-1.098 c -0.462,-0.015 -0.797,-0.106 -1.004,-0.272 -0.192,-0.14 -0.311,-0.292 -0.358,-0.456 -0.047,-0.163 -0.07,-0.483 -0.07,-0.961 v -2.172 c 0,-0.618 -0.02,-1.047 -0.059,-1.288 -0.039,-0.242 -0.131,-0.482 -0.276,-0.721 -0.472,-0.752 -1.42,-1.128 -2.841,-1.128 -0.405,0 -0.795,0.036 -1.168,0.109 l -1.113,1.689 c 0.55,-0.265 0.983,-0.442 1.3,-0.533 0.316,-0.091 0.648,-0.137 0.996,-0.137 0.311,0 0.59,0.045 0.837,0.133 0.246,0.088 0.437,0.214 0.572,0.377 0.135,0.164 0.203,0.352 0.203,0.565 0,0.301 -0.126,0.529 -0.378,0.685 -0.252,0.156 -0.759,0.309 -1.522,0.459 -1.054,0.203 -1.79,0.421 -2.211,0.654 -0.285,0.151 -0.514,0.383 -0.685,0.697 -0.171,0.314 -0.257,0.645 -0.257,0.992 0,0.732 0.286,1.355 0.857,1.869 0.487,0.436 1.152,0.654 1.992,0.654 0.327,0 0.636,-0.034 0.927,-0.101 l 0.989,-1.254 c -0.478,0.146 -0.898,0.218 -1.262,0.218 -0.56,0 -0.997,-0.122 -1.311,-0.366 -0.314,-0.244 -0.471,-0.578 -0.471,-1.004 0,-0.664 0.404,-1.095 1.214,-1.292 0.607,-0.14 0.998,-0.234 1.172,-0.281 0.174,-0.046 0.332,-0.094 0.475,-0.144 0.142,-0.049 0.31,-0.12 0.502,-0.214 v 2.172 c 0,0.551 0.043,0.941 0.128,1.176 M 65.678,20.312 h -1.082 c 0.218,0.167 0.367,0.304 0.448,0.413 0.08,0.109 0.132,0.241 0.155,0.397 0.024,0.156 0.035,0.439 0.035,0.849 v 4.445 c 0,0.405 -0.011,0.686 -0.035,0.844 -0.023,0.159 -0.075,0.292 -0.155,0.401 -0.081,0.109 -0.23,0.247 -0.448,0.413 h 2.787 c -0.213,-0.171 -0.359,-0.31 -0.44,-0.417 -0.08,-0.106 -0.133,-0.245 -0.159,-0.416 -0.026,-0.171 -0.039,-0.446 -0.039,-0.825 v -3.394 c 0,-0.426 0.075,-0.745 0.225,-0.958 0.166,-0.228 0.39,-0.407 0.67,-0.537 0.28,-0.13 0.589,-0.195 0.926,-0.195 0.348,0 0.676,0.066 0.985,0.199 0.309,0.132 0.544,0.305 0.705,0.517 0.129,0.156 0.223,0.365 0.28,0.627 0.057,0.262 0.086,0.616 0.086,1.063 v 2.678 c 0,0.363 -0.013,0.633 -0.039,0.809 -0.026,0.177 -0.081,0.321 -0.164,0.432 -0.083,0.112 -0.233,0.251 -0.451,0.417 h 2.81 C 72.482,27.84 72.302,27.639 72.237,27.471 72.172,27.302 72.14,26.95 72.14,26.416 v -2.857 c 0,-0.639 -0.029,-1.117 -0.086,-1.437 -0.057,-0.319 -0.161,-0.598 -0.311,-0.836 -0.161,-0.234 -0.374,-0.443 -0.639,-0.627 -0.264,-0.184 -0.569,-0.326 -0.914,-0.424 -0.346,-0.099 -0.689,-0.148 -1.032,-0.148 -0.498,0 -0.934,0.097 -1.308,0.292 -0.374,0.194 -0.768,0.533 -1.183,1.016 v -1.402 c -0.197,0.213 -0.527,0.319 -0.989,0.319 m -5.415,2.344 c 0.384,0 0.67,0.033 0.856,0.101 0.187,0.067 0.343,0.187 0.468,0.358 v -1.783 c -0.156,0.073 -0.346,0.109 -0.569,0.109 h -2.25 v -3.137 c 0.447,-0.078 1.025,-0.117 1.736,-0.117 0.535,0 0.946,0.047 1.234,0.14 0.288,0.094 0.562,0.27 0.822,0.53 v -1.962 c -0.172,0.067 -0.384,0.101 -0.639,0.101 h -5.597 c 0.213,0.114 0.371,0.245 0.475,0.393 0.104,0.148 0.176,0.353 0.218,0.615 0.041,0.262 0.062,0.642 0.062,1.141 v 6.757 c 0,0.493 -0.019,0.873 -0.058,1.14 -0.039,0.268 -0.113,0.479 -0.222,0.635 -0.109,0.156 -0.268,0.288 -0.475,0.397 h 7.022 l 0.778,-2.203 c -0.451,0.342 -0.933,0.588 -1.444,0.736 -0.511,0.147 -1.125,0.221 -1.841,0.221 -0.664,0 -1.354,-0.057 -2.071,-0.171 v -4.001 z m -9.387,1.903 c 0.19,-0.028 0.487,-0.043 0.892,-0.043 h 2.008 c 0.208,0 0.355,-0.018 0.44,-0.054 0.086,-0.036 0.178,-0.12 0.277,-0.249 l 0.91,-1.207 c -0.238,0.093 -0.462,0.156 -0.669,0.187 -0.208,0.031 -0.548,0.047 -1.02,0.047 h -1.783 c -0.197,0 -0.347,0.019 -0.451,0.058 -0.104,0.039 -0.197,0.115 -0.28,0.23 l -0.958,1.198 c 0.234,-0.083 0.445,-0.138 0.634,-0.167 m -3.467,2.652 c 0.085,0.233 0.255,0.431 0.509,0.592 0.203,0.124 0.416,0.211 0.639,0.26 0.223,0.05 0.537,0.09 0.942,0.121 l 0.732,-1.098 c -0.462,-0.015 -0.797,-0.106 -1.005,-0.272 -0.192,-0.14 -0.311,-0.292 -0.358,-0.456 -0.046,-0.163 -0.07,-0.483 -0.07,-0.961 v -2.172 c 0,-0.618 -0.019,-1.047 -0.058,-1.288 -0.039,-0.242 -0.131,-0.482 -0.277,-0.721 -0.472,-0.752 -1.419,-1.128 -2.841,-1.128 -0.405,0 -0.794,0.036 -1.168,0.109 l -1.113,1.689 c 0.55,-0.265 0.983,-0.442 1.3,-0.533 0.317,-0.091 0.649,-0.137 0.997,-0.137 0.311,0 0.59,0.045 0.836,0.133 0.247,0.088 0.438,0.214 0.573,0.377 0.134,0.164 0.202,0.352 0.202,0.565 0,0.301 -0.126,0.529 -0.378,0.685 -0.251,0.156 -0.759,0.309 -1.522,0.459 -1.053,0.203 -1.79,0.421 -2.21,0.654 -0.286,0.151 -0.514,0.383 -0.686,0.697 -0.171,0.314 -0.256,0.645 -0.256,0.992 0,0.732 0.285,1.355 0.856,1.869 0.488,0.436 1.152,0.654 1.993,0.654 0.327,0 0.636,-0.034 0.926,-0.101 l 0.989,-1.254 c -0.478,0.146 -0.898,0.218 -1.261,0.218 -0.561,0 -0.998,-0.122 -1.312,-0.366 -0.314,-0.244 -0.471,-0.578 -0.471,-1.004 0,-0.664 0.405,-1.095 1.214,-1.292 0.608,-0.14 0.998,-0.234 1.172,-0.281 0.174,-0.046 0.332,-0.094 0.475,-0.144 0.143,-0.049 0.31,-0.12 0.502,-0.214 v 2.172 c 0,0.551 0.043,0.941 0.129,1.176 m -6.898,-5.785 c 0.285,0 0.5,0.022 0.646,0.066 0.145,0.044 0.28,0.123 0.404,0.237 v -1.518 c -0.16,0.068 -0.49,0.101 -0.988,0.101 h -1.308 v -2.506 h -0.654 v 0.21 c 0,0.945 -0.208,1.635 -0.623,2.071 -0.348,0.389 -0.809,0.633 -1.386,0.731 v 0.608 h 1.153 v 3.713 c 0,0.54 0.015,0.945 0.046,1.215 0.032,0.269 0.089,0.491 0.172,0.665 0.083,0.174 0.212,0.354 0.389,0.541 0.472,0.493 1.046,0.74 1.72,0.74 0.213,0 0.416,-0.034 0.608,-0.101 l 0.871,-1.192 c -0.249,0.094 -0.482,0.141 -0.7,0.141 -0.55,0 -0.981,-0.192 -1.292,-0.577 -0.12,-0.15 -0.2,-0.332 -0.242,-0.544 -0.041,-0.213 -0.062,-0.556 -0.062,-1.028 v -3.573 z m -6.729,5.785 c 0.085,0.233 0.255,0.431 0.51,0.592 0.202,0.124 0.415,0.211 0.638,0.26 0.223,0.05 0.537,0.09 0.942,0.121 l 0.732,-1.098 C 36.142,27.071 35.807,26.98 35.6,26.814 35.408,26.674 35.288,26.522 35.242,26.358 35.195,26.195 35.171,25.875 35.171,25.397 v -2.172 c 0,-0.618 -0.019,-1.047 -0.058,-1.288 -0.039,-0.242 -0.131,-0.482 -0.276,-0.721 -0.473,-0.752 -1.42,-1.128 -2.842,-1.128 -0.405,0 -0.794,0.036 -1.168,0.109 l -1.113,1.689 c 0.55,-0.265 0.984,-0.442 1.3,-0.533 0.317,-0.091 0.649,-0.137 0.997,-0.137 0.311,0 0.59,0.045 0.837,0.133 0.246,0.088 0.437,0.214 0.572,0.377 0.135,0.164 0.202,0.352 0.202,0.565 0,0.301 -0.126,0.529 -0.377,0.685 -0.252,0.156 -0.759,0.309 -1.522,0.459 -1.054,0.203 -1.791,0.421 -2.211,0.654 -0.286,0.151 -0.514,0.383 -0.685,0.697 -0.172,0.314 -0.257,0.645 -0.257,0.992 0,0.732 0.285,1.355 0.856,1.869 0.488,0.436 1.152,0.654 1.993,0.654 0.327,0 0.636,-0.034 0.927,-0.101 l 0.988,-1.254 c -0.477,0.146 -0.898,0.218 -1.261,0.218 -0.56,0 -0.998,-0.122 -1.312,-0.366 -0.314,-0.244 -0.471,-0.578 -0.471,-1.004 0,-0.664 0.405,-1.095 1.215,-1.292 0.607,-0.14 0.997,-0.234 1.171,-0.281 0.174,-0.046 0.332,-0.094 0.475,-0.144 0.143,-0.049 0.31,-0.12 0.502,-0.214 v 2.172 c 0,0.551 0.043,0.941 0.129,1.176 M 21.417,18.109 c 0.726,0 1.378,0.108 1.954,0.323 0.576,0.216 1.053,0.534 1.432,0.954 0.363,0.394 0.647,0.875 0.852,1.44 0.205,0.566 0.308,1.152 0.308,1.76 0,1.468 -0.548,2.608 -1.643,3.417 -0.384,0.28 -0.831,0.486 -1.343,0.615 -0.511,0.13 -1.13,0.195 -1.856,0.195 -0.436,0 -0.851,-0.036 -1.246,-0.109 v -8.416 c 0.592,-0.119 1.106,-0.179 1.542,-0.179 m 1.49,9.84 c 0.672,-0.083 1.234,-0.228 1.686,-0.436 0.638,-0.28 1.201,-0.678 1.689,-1.195 0.488,-0.516 0.865,-1.114 1.133,-1.794 0.267,-0.68 0.401,-1.383 0.401,-2.11 0,-0.55 -0.073,-1.073 -0.218,-1.568 -0.146,-0.496 -0.36,-0.955 -0.642,-1.378 -0.283,-0.423 -0.625,-0.796 -1.024,-1.117 -0.379,-0.322 -0.786,-0.585 -1.222,-0.791 -0.436,-0.205 -0.913,-0.355 -1.429,-0.451 -0.516,-0.096 -1.089,-0.144 -1.716,-0.144 -0.545,0 -0.987,0.005 -1.324,0.015 -0.306,0.011 -0.677,0.016 -1.113,0.016 h -1.697 c 0.207,0.109 0.366,0.24 0.475,0.393 0.109,0.153 0.183,0.364 0.221,0.631 0.039,0.267 0.059,0.642 0.059,1.125 v 6.695 c 0,0.721 -0.05,1.217 -0.148,1.487 -0.042,0.14 -0.086,0.238 -0.132,0.295 -0.047,0.058 -0.205,0.208 -0.475,0.452 h 2.717 c 1.167,0 2.087,-0.042 2.759,-0.125 M 7.084,25.731 c -0.69,0.934 -1.536,1.401 -2.538,1.401 -0.674,0 -1.228,-0.202 -1.662,-0.607 -0.433,-0.405 -0.65,-0.924 -0.65,-1.557 0,-0.914 0.511,-1.744 1.534,-2.491 0.841,0.949 1.946,2.034 3.316,3.254 M 3.122,19.561 C 2.945,19.304 2.857,19.043 2.857,18.779 c 0,-0.286 0.104,-0.519 0.311,-0.701 0.208,-0.181 0.47,-0.272 0.787,-0.272 0.342,0 0.625,0.098 0.848,0.296 0.223,0.197 0.335,0.448 0.335,0.755 0,0.576 -0.361,1.139 -1.082,1.689 -0.446,-0.4 -0.758,-0.728 -0.934,-0.985 m 3.067,0.658 C 6.391,19.882 6.493,19.487 6.493,19.036 6.493,18.382 6.264,17.841 5.808,17.413 5.351,16.984 4.772,16.77 4.072,16.77 c -0.483,0 -0.928,0.1 -1.336,0.3 -0.407,0.2 -0.73,0.475 -0.969,0.825 -0.239,0.351 -0.358,0.731 -0.358,1.141 0,0.254 0.042,0.498 0.125,0.731 0.083,0.234 0.219,0.478 0.408,0.732 0.19,0.255 0.464,0.569 0.822,0.942 -0.566,0.452 -1.02,0.871 -1.363,1.257 -0.342,0.387 -0.586,0.765 -0.732,1.133 -0.145,0.369 -0.217,0.779 -0.217,1.23 0,0.633 0.159,1.198 0.478,1.693 0.319,0.496 0.767,0.878 1.343,1.145 0.576,0.267 1.233,0.401 1.97,0.401 0.545,0 1.025,-0.066 1.44,-0.199 0.415,-0.132 0.785,-0.337 1.109,-0.615 0.325,-0.277 0.65,-0.66 0.977,-1.148 0.493,0.457 0.932,0.815 1.316,1.074 0.384,0.26 0.75,0.443 1.098,0.549 0.347,0.107 0.729,0.16 1.144,0.16 0.436,0 1.061,-0.016 1.876,-0.047 -0.69,-0.348 -1.282,-0.676 -1.775,-0.985 C 10.935,26.78 10.375,26.376 9.747,25.875 9.119,25.374 8.412,24.761 7.625,24.037 6.839,23.313 5.968,22.479 5.013,21.535 5.595,20.995 5.987,20.557 6.189,20.219"
   id="path18" /><path
   style="fill:#00275b"
   d="m 173.061,3.705 h -1.082 c 0.218,0.166 0.367,0.304 0.448,0.413 0.08,0.109 0.132,0.241 0.155,0.397 0.024,0.155 0.035,0.438 0.035,0.848 v 4.446 c 0,0.404 -0.011,0.686 -0.035,0.844 -0.023,0.159 -0.075,0.292 -0.155,0.401 -0.081,0.109 -0.23,0.247 -0.448,0.413 h 2.787 c -0.213,-0.172 -0.359,-0.31 -0.44,-0.417 -0.08,-0.106 -0.134,-0.245 -0.159,-0.416 -0.026,-0.172 -0.039,-0.447 -0.039,-0.825 V 6.414 c 0,-0.425 0.075,-0.744 0.225,-0.957 0.166,-0.229 0.39,-0.408 0.67,-0.537 0.28,-0.13 0.589,-0.195 0.926,-0.195 0.348,0 0.676,0.066 0.985,0.198 0.309,0.133 0.544,0.305 0.705,0.518 0.129,0.156 0.223,0.365 0.28,0.627 0.057,0.262 0.086,0.616 0.086,1.063 v 2.678 c 0,0.363 -0.013,0.633 -0.039,0.809 -0.026,0.177 -0.081,0.321 -0.164,0.432 -0.083,0.112 -0.233,0.251 -0.451,0.417 h 2.81 c -0.296,-0.234 -0.476,-0.435 -0.541,-0.604 -0.065,-0.168 -0.097,-0.52 -0.097,-1.054 V 6.951 c 0,-0.638 -0.029,-1.117 -0.086,-1.436 -0.057,-0.319 -0.161,-0.598 -0.311,-0.837 -0.161,-0.233 -0.374,-0.442 -0.639,-0.626 -0.264,-0.185 -0.569,-0.326 -0.915,-0.425 -0.345,-0.098 -0.688,-0.148 -1.031,-0.148 -0.498,0 -0.934,0.098 -1.308,0.292 -0.374,0.195 -0.768,0.534 -1.183,1.016 V 3.386 c -0.197,0.213 -0.527,0.319 -0.989,0.319 m -5.034,1.3 c 0.417,0.265 0.742,0.636 0.973,1.113 0.231,0.478 0.346,1.028 0.346,1.651 0,0.55 -0.11,1.035 -0.331,1.456 -0.22,0.42 -0.53,0.747 -0.93,0.981 -0.4,0.233 -0.851,0.35 -1.355,0.35 -0.379,0 -0.733,-0.077 -1.062,-0.23 -0.33,-0.153 -0.622,-0.375 -0.876,-0.665 -0.254,-0.291 -0.449,-0.631 -0.584,-1.02 -0.135,-0.389 -0.202,-0.797 -0.202,-1.222 0,-0.54 0.107,-1.025 0.323,-1.456 0.215,-0.431 0.517,-0.764 0.907,-1.001 0.389,-0.236 0.835,-0.354 1.339,-0.354 0.55,0 1.034,0.133 1.452,0.397 m -2.316,-1.424 c -0.343,0.067 -0.667,0.17 -0.974,0.307 -0.306,0.138 -0.596,0.31 -0.871,0.518 -0.494,0.384 -0.88,0.86 -1.16,1.428 -0.281,0.569 -0.421,1.164 -0.421,1.787 0,0.758 0.186,1.448 0.557,2.071 0.371,0.623 0.887,1.112 1.549,1.467 0.662,0.356 1.395,0.533 2.199,0.533 0.825,0 1.582,-0.184 2.27,-0.552 0.687,-0.369 1.227,-0.871 1.619,-1.507 0.392,-0.635 0.588,-1.337 0.588,-2.105 0,-0.561 -0.112,-1.099 -0.335,-1.616 -0.223,-0.516 -0.548,-0.966 -0.973,-1.351 -0.784,-0.721 -1.755,-1.082 -2.912,-1.082 -0.415,0 -0.794,0.034 -1.136,0.102 m -6.464,-2.686 c -0.208,0.202 -0.311,0.446 -0.311,0.732 0,0.295 0.1,0.546 0.299,0.751 0.2,0.205 0.445,0.307 0.736,0.307 0.301,0 0.551,-0.102 0.751,-0.307 0.2,-0.205 0.3,-0.456 0.3,-0.751 0,-0.281 -0.099,-0.523 -0.296,-0.728 -0.197,-0.205 -0.438,-0.308 -0.724,-0.308 -0.296,0 -0.547,0.101 -0.755,0.304 m 0.537,2.81 h -1.168 c 0.218,0.166 0.368,0.304 0.448,0.413 0.081,0.109 0.132,0.241 0.156,0.397 0.023,0.155 0.035,0.438 0.035,0.848 v 4.446 c 0,0.404 -0.012,0.686 -0.035,0.844 -0.024,0.159 -0.075,0.292 -0.156,0.401 -0.08,0.109 -0.23,0.247 -0.448,0.413 h 2.787 c -0.212,-0.172 -0.359,-0.31 -0.439,-0.417 -0.081,-0.106 -0.134,-0.245 -0.16,-0.416 -0.026,-0.172 -0.039,-0.447 -0.039,-0.825 V 3.386 c -0.197,0.213 -0.524,0.319 -0.981,0.319 m -3.02,1.113 c 0.285,0 0.501,0.023 0.646,0.067 0.145,0.044 0.28,0.123 0.405,0.237 V 3.604 c -0.161,0.067 -0.49,0.101 -0.989,0.101 h -1.308 V 1.198 h -0.653 v 0.211 c 0,0.944 -0.208,1.634 -0.623,2.07 -0.348,0.39 -0.81,0.634 -1.386,0.732 v 0.607 h 1.152 v 3.714 c 0,0.54 0.016,0.944 0.047,1.214 0.031,0.27 0.088,0.492 0.171,0.666 0.083,0.174 0.213,0.354 0.389,0.541 0.473,0.493 1.046,0.739 1.721,0.739 0.213,0 0.415,-0.033 0.607,-0.101 l 0.872,-1.191 c -0.249,0.094 -0.483,0.14 -0.701,0.14 -0.55,0 -0.981,-0.192 -1.292,-0.576 -0.119,-0.15 -0.2,-0.332 -0.241,-0.545 -0.042,-0.212 -0.063,-0.555 -0.063,-1.027 V 4.818 Z m -6.729,5.785 c 0.086,0.233 0.256,0.43 0.51,0.591 0.203,0.125 0.415,0.212 0.639,0.261 0.223,0.049 0.537,0.09 0.942,0.121 l 0.731,-1.098 c -0.462,-0.016 -0.796,-0.106 -1.004,-0.272 -0.192,-0.141 -0.311,-0.292 -0.358,-0.456 -0.047,-0.163 -0.07,-0.484 -0.07,-0.961 V 6.617 c 0,-0.618 -0.02,-1.047 -0.058,-1.289 -0.039,-0.241 -0.132,-0.481 -0.277,-0.72 -0.472,-0.752 -1.419,-1.129 -2.841,-1.129 -0.405,0 -0.794,0.037 -1.168,0.109 l -1.113,1.69 c 0.55,-0.265 0.983,-0.443 1.3,-0.534 0.316,-0.09 0.649,-0.136 0.996,-0.136 0.312,0 0.591,0.044 0.837,0.133 0.247,0.088 0.437,0.214 0.572,0.377 0.135,0.164 0.203,0.352 0.203,0.565 0,0.301 -0.126,0.529 -0.378,0.685 -0.252,0.155 -0.759,0.308 -1.522,0.459 -1.053,0.202 -1.79,0.42 -2.211,0.654 -0.285,0.15 -0.513,0.383 -0.685,0.697 -0.171,0.314 -0.257,0.645 -0.257,0.992 0,0.732 0.286,1.355 0.857,1.869 0.487,0.435 1.152,0.653 1.993,0.653 0.327,0 0.635,-0.033 0.926,-0.101 l 0.989,-1.253 c -0.478,0.145 -0.898,0.218 -1.261,0.218 -0.561,0 -0.998,-0.122 -1.312,-0.366 -0.314,-0.244 -0.471,-0.579 -0.471,-1.004 0,-0.665 0.405,-1.095 1.214,-1.293 0.607,-0.14 0.998,-0.233 1.172,-0.28 0.174,-0.047 0.332,-0.094 0.475,-0.144 0.142,-0.049 0.31,-0.12 0.502,-0.214 v 2.172 c 0,0.55 0.043,0.942 0.128,1.176 m -6.898,-5.785 c 0.286,0 0.501,0.023 0.646,0.067 0.146,0.044 0.281,0.123 0.405,0.237 V 3.604 c -0.161,0.067 -0.49,0.101 -0.988,0.101 h -1.308 V 1.198 h -0.654 v 0.211 c 0,0.944 -0.208,1.634 -0.623,2.07 -0.348,0.39 -0.81,0.634 -1.386,0.732 v 0.607 h 1.152 v 3.714 c 0,0.54 0.016,0.944 0.047,1.214 0.031,0.27 0.088,0.492 0.171,0.666 0.083,0.174 0.213,0.354 0.39,0.541 0.472,0.493 1.045,0.739 1.72,0.739 0.213,0 0.415,-0.033 0.607,-0.101 l 0.872,-1.191 c -0.249,0.094 -0.482,0.14 -0.7,0.14 -0.551,0 -0.981,-0.192 -1.293,-0.576 -0.119,-0.15 -0.2,-0.332 -0.241,-0.545 -0.042,-0.212 -0.062,-0.555 -0.062,-1.027 V 4.818 Z m -4.492,6.649 c -0.212,-0.172 -0.359,-0.31 -0.439,-0.417 -0.081,-0.106 -0.134,-0.245 -0.16,-0.416 -0.026,-0.172 -0.039,-0.447 -0.039,-0.825 V 3.386 c -0.197,0.213 -0.519,0.319 -0.965,0.319 h -1.184 c 0.213,0.161 0.36,0.296 0.44,0.405 0.081,0.109 0.134,0.256 0.16,0.44 0.026,0.184 0.039,0.455 0.039,0.813 v 3.013 c 0,0.607 -0.177,1.094 -0.53,1.46 -0.353,0.366 -0.825,0.549 -1.416,0.549 -0.639,0 -1.137,-0.213 -1.495,-0.639 -0.151,-0.197 -0.258,-0.423 -0.323,-0.677 -0.065,-0.254 -0.097,-0.586 -0.097,-0.997 V 3.386 c -0.198,0.213 -0.533,0.319 -1.005,0.319 h -1.144 c 0.218,0.166 0.367,0.304 0.448,0.413 0.08,0.109 0.132,0.241 0.155,0.397 0.024,0.155 0.035,0.438 0.035,0.848 v 3.013 c 0,0.95 0.159,1.661 0.475,2.133 0.249,0.374 0.593,0.665 1.032,0.872 0.438,0.208 0.935,0.311 1.49,0.311 0.379,0 0.697,-0.04 0.954,-0.12 0.257,-0.081 0.493,-0.208 0.709,-0.382 0.215,-0.173 0.473,-0.447 0.774,-0.821 v 1.098 z m -13.036,0.225 c 0.758,0 1.447,-0.184 2.067,-0.552 0.62,-0.369 1.106,-0.873 1.456,-1.514 0.35,-0.641 0.525,-1.361 0.525,-2.161 0,-0.565 -0.093,-1.091 -0.28,-1.576 -0.187,-0.485 -0.449,-0.902 -0.786,-1.25 -0.353,-0.353 -0.782,-0.634 -1.288,-0.844 -0.507,-0.211 -1.011,-0.316 -1.515,-0.316 -0.358,0 -0.713,0.048 -1.066,0.144 -0.353,0.097 -0.674,0.235 -0.962,0.417 -0.288,0.182 -0.538,0.4 -0.751,0.654 V 3.386 c -0.208,0.213 -0.537,0.319 -0.989,0.319 h -1.16 c 0.218,0.166 0.368,0.304 0.448,0.413 0.081,0.109 0.132,0.241 0.156,0.397 0.023,0.155 0.035,0.438 0.035,0.848 v 7.918 c 0,0.394 -0.017,0.681 -0.051,0.86 -0.034,0.179 -0.092,0.322 -0.175,0.428 -0.083,0.106 -0.221,0.219 -0.413,0.339 h 2.788 c -0.198,-0.12 -0.338,-0.234 -0.421,-0.343 -0.083,-0.109 -0.14,-0.253 -0.171,-0.432 -0.031,-0.179 -0.047,-0.463 -0.047,-0.852 V 7.084 c 0,-0.379 0.03,-0.685 0.09,-0.919 0.059,-0.233 0.167,-0.449 0.323,-0.646 0.228,-0.28 0.517,-0.502 0.868,-0.666 0.35,-0.163 0.715,-0.245 1.094,-0.245 0.508,0 0.954,0.127 1.339,0.382 0.384,0.254 0.682,0.613 0.895,1.078 0.213,0.464 0.319,0.987 0.319,1.569 0,0.607 -0.104,1.131 -0.311,1.572 -0.208,0.441 -0.508,0.776 -0.9,1.004 -0.391,0.229 -0.865,0.343 -1.42,0.343 -0.327,0 -0.628,-0.034 -0.903,-0.101 -0.276,-0.068 -0.602,-0.187 -0.981,-0.358 l 0.911,1.37 c 0.42,0.15 0.845,0.225 1.276,0.225 M 107.78,3.705 h -1.167 c 0.218,0.166 0.367,0.304 0.447,0.413 0.081,0.109 0.133,0.241 0.156,0.397 0.023,0.155 0.035,0.438 0.035,0.848 v 4.446 c 0,0.404 -0.012,0.686 -0.035,0.844 -0.023,0.159 -0.075,0.292 -0.156,0.401 -0.08,0.109 -0.229,0.247 -0.447,0.413 h 2.787 c -0.208,-0.156 -0.353,-0.29 -0.436,-0.401 -0.083,-0.112 -0.138,-0.254 -0.164,-0.428 -0.026,-0.174 -0.039,-0.451 -0.039,-0.829 V 6.827 c 0,-0.343 0.021,-0.603 0.063,-0.782 0.041,-0.18 0.116,-0.349 0.225,-0.51 0.161,-0.239 0.382,-0.423 0.662,-0.553 0.28,-0.13 0.586,-0.195 0.919,-0.195 0.259,0 0.517,0.05 0.774,0.148 0.257,0.099 0.466,0.236 0.627,0.413 0.343,0.358 0.514,0.931 0.514,1.72 v 2.741 c 0,0.368 -0.013,0.642 -0.039,0.821 -0.026,0.179 -0.078,0.322 -0.156,0.428 -0.078,0.106 -0.226,0.243 -0.444,0.409 h 2.803 c -0.301,-0.239 -0.485,-0.441 -0.553,-0.608 -0.067,-0.166 -0.101,-0.516 -0.101,-1.05 V 6.936 c 0,-0.389 0.01,-0.66 0.031,-0.814 0.021,-0.153 0.07,-0.304 0.148,-0.455 0.156,-0.291 0.387,-0.52 0.693,-0.689 0.306,-0.169 0.638,-0.253 0.996,-0.253 0.644,0 1.145,0.218 1.503,0.654 0.15,0.202 0.259,0.441 0.327,0.716 0.067,0.275 0.101,0.646 0.101,1.113 v 2.601 c 0,0.368 -0.013,0.642 -0.039,0.821 -0.026,0.179 -0.079,0.323 -0.159,0.432 -0.081,0.109 -0.233,0.244 -0.456,0.405 h 2.919 c -0.212,-0.088 -0.372,-0.19 -0.478,-0.304 -0.107,-0.114 -0.179,-0.275 -0.218,-0.483 -0.039,-0.207 -0.059,-0.498 -0.059,-0.871 V 6.796 c 0,-0.54 -0.03,-0.964 -0.089,-1.273 -0.06,-0.309 -0.162,-0.58 -0.308,-0.814 -0.223,-0.378 -0.569,-0.678 -1.039,-0.899 -0.47,-0.22 -0.995,-0.331 -1.576,-0.331 -0.364,0 -0.697,0.05 -1.001,0.148 -0.303,0.099 -0.582,0.252 -0.837,0.46 -0.254,0.207 -0.524,0.498 -0.809,0.872 -0.317,-0.514 -0.678,-0.889 -1.082,-1.125 -0.405,-0.236 -0.898,-0.355 -1.48,-0.355 -0.534,0 -0.991,0.102 -1.37,0.304 -0.379,0.202 -0.742,0.542 -1.09,1.02 V 3.386 c -0.181,0.213 -0.482,0.319 -0.903,0.319 m -5.12,1.3 c 0.418,0.265 0.742,0.636 0.973,1.113 0.231,0.478 0.347,1.028 0.347,1.651 0,0.55 -0.111,1.035 -0.331,1.456 -0.221,0.42 -0.531,0.747 -0.93,0.981 -0.4,0.233 -0.852,0.35 -1.355,0.35 -0.379,0 -0.733,-0.077 -1.063,-0.23 C 99.972,10.173 99.68,9.951 99.426,9.661 99.171,9.37 98.977,9.03 98.842,8.641 98.707,8.252 98.639,7.844 98.639,7.419 c 0,-0.54 0.108,-1.025 0.323,-1.456 0.216,-0.431 0.518,-0.764 0.907,-1.001 0.39,-0.236 0.836,-0.354 1.339,-0.354 0.55,0 1.034,0.133 1.452,0.397 m -2.316,-1.424 c -0.342,0.067 -0.667,0.17 -0.973,0.307 -0.306,0.138 -0.597,0.31 -0.872,0.518 -0.493,0.384 -0.88,0.86 -1.16,1.428 -0.28,0.569 -0.42,1.164 -0.42,1.787 0,0.758 0.185,1.448 0.556,2.071 0.371,0.623 0.888,1.112 1.55,1.467 0.661,0.356 1.394,0.533 2.199,0.533 0.825,0 1.581,-0.184 2.269,-0.552 0.688,-0.369 1.228,-0.871 1.619,-1.507 0.392,-0.635 0.588,-1.337 0.588,-2.105 0,-0.561 -0.111,-1.099 -0.335,-1.616 -0.223,-0.516 -0.547,-0.966 -0.973,-1.351 -0.783,-0.721 -1.754,-1.082 -2.911,-1.082 -0.415,0 -0.794,0.034 -1.137,0.102 M 92.359,0.116 c -1.126,0 -2.145,0.252 -3.056,0.755 -0.91,0.504 -1.623,1.201 -2.137,2.091 -0.513,0.89 -0.77,1.885 -0.77,2.985 0,0.851 0.149,1.634 0.447,2.347 0.299,0.714 0.732,1.329 1.301,1.845 0.568,0.517 1.248,0.913 2.039,1.188 0.792,0.275 1.654,0.412 2.589,0.412 0.332,0 0.639,-0.017 0.922,-0.05 0.283,-0.034 0.559,-0.086 0.829,-0.156 0.27,-0.07 0.558,-0.167 0.864,-0.292 l 0.849,-1.962 c -0.753,0.4 -1.409,0.684 -1.97,0.853 -0.56,0.168 -1.134,0.253 -1.72,0.253 -0.779,0 -1.492,-0.209 -2.141,-0.627 -0.649,-0.418 -1.16,-0.987 -1.534,-1.709 -0.373,-0.721 -0.56,-1.515 -0.56,-2.382 0,-0.799 0.17,-1.512 0.51,-2.137 0.34,-0.625 0.816,-1.112 1.428,-1.46 0.613,-0.347 1.306,-0.521 2.079,-0.521 0.514,0 1.012,0.074 1.495,0.222 0.482,0.148 1.004,0.382 1.564,0.704 V 0.544 C 94.214,0.259 93.205,0.116 92.359,0.116 M 79.362,11.05 C 79.281,10.944 79.228,10.805 79.202,10.634 79.176,10.462 79.163,10.187 79.163,9.809 V 7.037 c 0,-0.69 0.12,-1.201 0.358,-1.534 0.146,-0.212 0.348,-0.38 0.608,-0.502 0.259,-0.122 0.539,-0.183 0.84,-0.183 0.343,0 0.608,0.091 0.794,0.273 V 3.542 C 81.53,3.5 81.335,3.479 81.18,3.479 80.744,3.479 80.354,3.59 80.012,3.81 79.669,4.031 79.386,4.351 79.163,4.772 V 3.386 c -0.197,0.213 -0.524,0.319 -0.981,0.319 h -1.167 c 0.218,0.166 0.367,0.304 0.447,0.413 0.081,0.109 0.133,0.241 0.156,0.397 0.023,0.155 0.035,0.438 0.035,0.848 v 4.446 c 0,0.404 -0.012,0.686 -0.035,0.844 -0.023,0.159 -0.075,0.292 -0.156,0.401 -0.08,0.109 -0.229,0.247 -0.447,0.413 h 2.787 c -0.213,-0.172 -0.36,-0.31 -0.44,-0.417 m -6.3,-6.045 c 0.418,0.265 0.742,0.636 0.973,1.113 0.231,0.478 0.347,1.028 0.347,1.651 0,0.55 -0.111,1.035 -0.331,1.456 -0.221,0.42 -0.531,0.747 -0.93,0.981 -0.4,0.233 -0.852,0.35 -1.355,0.35 -0.379,0 -0.733,-0.077 -1.063,-0.23 C 70.374,10.173 70.082,9.951 69.828,9.661 69.573,9.37 69.379,9.03 69.244,8.641 69.109,8.252 69.041,7.844 69.041,7.419 c 0,-0.54 0.108,-1.025 0.323,-1.456 0.216,-0.431 0.518,-0.764 0.907,-1.001 0.39,-0.236 0.836,-0.354 1.339,-0.354 0.55,0 1.034,0.133 1.452,0.397 M 70.746,3.581 c -0.342,0.067 -0.667,0.17 -0.973,0.307 -0.306,0.138 -0.597,0.31 -0.872,0.518 -0.493,0.384 -0.88,0.86 -1.16,1.428 -0.28,0.569 -0.42,1.164 -0.42,1.787 0,0.758 0.185,1.448 0.556,2.071 0.371,0.623 0.888,1.112 1.55,1.467 0.661,0.356 1.394,0.533 2.199,0.533 0.825,0 1.581,-0.184 2.269,-0.552 0.688,-0.369 1.228,-0.871 1.619,-1.507 0.392,-0.635 0.588,-1.337 0.588,-2.105 0,-0.561 -0.111,-1.099 -0.335,-1.616 C 75.544,5.396 75.22,4.946 74.794,4.561 74.011,3.84 73.04,3.479 71.883,3.479 c -0.415,0 -0.794,0.034 -1.137,0.102 m -4.747,1.237 c 0.29,0 0.489,0.017 0.595,0.051 0.107,0.034 0.207,0.108 0.3,0.222 V 3.604 C 66.707,3.671 66.51,3.705 66.302,3.705 H 64.597 V 2.631 c 0,-0.504 0.052,-0.833 0.156,-0.989 0.197,-0.327 0.542,-0.49 1.035,-0.49 0.301,0 0.589,0.091 0.865,0.272 L 67.851,0.116 C 67.384,0.038 67,0 66.699,0 c -0.607,0 -1.13,0.064 -1.568,0.194 -0.439,0.13 -0.814,0.332 -1.125,0.607 -0.332,0.286 -0.57,0.589 -0.713,0.911 -0.142,0.322 -0.214,0.714 -0.214,1.176 v 0.817 l -0.84,1.113 h 0.84 v 4.991 c 0,0.363 -0.013,0.634 -0.039,0.813 -0.026,0.179 -0.079,0.324 -0.159,0.436 -0.081,0.112 -0.227,0.248 -0.44,0.409 h 2.873 C 65.194,11.394 65.111,11.332 65.064,11.28 65.018,11.228 64.94,11.114 64.831,10.937 64.769,10.818 64.721,10.69 64.687,10.552 64.653,10.415 64.63,10.224 64.617,9.98 64.604,9.736 64.597,9.487 64.597,9.232 V 4.818 Z M 51.861,4.974 c 0.389,-0.327 0.869,-0.49 1.44,-0.49 1.189,0 1.902,0.628 2.141,1.884 H 51.09 c 0.125,-0.602 0.382,-1.067 0.771,-1.394 m 5.348,2.172 C 57.209,6.617 57.113,6.128 56.921,5.679 56.729,5.23 56.462,4.842 56.119,4.515 55.777,4.188 55.372,3.934 54.905,3.752 54.438,3.57 53.929,3.479 53.379,3.479 c -0.56,0 -1.078,0.082 -1.553,0.246 -0.475,0.163 -0.891,0.406 -1.25,0.728 -0.275,0.249 -0.516,0.543 -0.724,0.883 -0.207,0.34 -0.367,0.701 -0.478,1.082 -0.112,0.382 -0.168,0.767 -0.168,1.156 0,0.794 0.201,1.505 0.604,2.133 0.402,0.628 0.968,1.116 1.697,1.464 0.729,0.348 1.55,0.521 2.464,0.521 0.269,0 0.538,-0.013 0.805,-0.038 0.268,-0.026 0.522,-0.069 0.763,-0.129 0.242,-0.06 0.495,-0.139 0.759,-0.237 l 0.911,-1.604 c -0.306,0.208 -0.602,0.375 -0.887,0.502 -0.286,0.127 -0.591,0.221 -0.915,0.28 -0.324,0.06 -0.663,0.09 -1.016,0.09 -0.659,0 -1.24,-0.125 -1.744,-0.374 C 52.144,9.933 51.755,9.572 51.48,9.1 51.204,8.628 51.051,8.067 51.02,7.419 h 6.189 z M 47.68,4.818 c 0.285,0 0.501,0.023 0.646,0.067 0.145,0.044 0.28,0.123 0.405,0.237 V 3.604 C 48.57,3.671 48.241,3.705 47.742,3.705 H 46.434 V 1.198 H 45.78 v 0.211 c 0,0.944 -0.207,1.634 -0.622,2.07 -0.348,0.39 -0.81,0.634 -1.386,0.732 v 0.607 h 1.152 v 3.714 c 0,0.54 0.016,0.944 0.047,1.214 0.031,0.27 0.088,0.492 0.171,0.666 0.083,0.174 0.213,0.354 0.389,0.541 0.473,0.493 1.046,0.739 1.721,0.739 0.213,0 0.415,-0.033 0.607,-0.101 L 48.731,10.4 c -0.249,0.094 -0.483,0.14 -0.701,0.14 -0.55,0 -0.981,-0.192 -1.292,-0.576 C 46.619,9.814 46.538,9.632 46.497,9.419 46.455,9.207 46.434,8.864 46.434,8.392 V 4.818 Z m -4.492,6.649 C 42.975,11.295 42.829,11.157 42.748,11.05 42.668,10.944 42.615,10.805 42.589,10.634 42.563,10.462 42.55,10.187 42.55,9.809 V 3.386 c -0.198,0.213 -0.519,0.319 -0.966,0.319 h -1.183 c 0.213,0.161 0.359,0.296 0.44,0.405 0.08,0.109 0.134,0.256 0.16,0.44 0.025,0.184 0.039,0.455 0.039,0.813 v 3.013 c 0,0.607 -0.177,1.094 -0.53,1.46 -0.353,0.366 -0.825,0.549 -1.417,0.549 -0.638,0 -1.136,-0.213 -1.494,-0.639 C 37.448,9.549 37.34,9.323 37.276,9.069 37.211,8.815 37.178,8.483 37.178,8.072 V 3.386 C 36.981,3.599 36.646,3.705 36.174,3.705 H 35.03 c 0.218,0.166 0.367,0.304 0.447,0.413 0.081,0.109 0.133,0.241 0.156,0.397 0.023,0.155 0.035,0.438 0.035,0.848 v 3.013 c 0,0.95 0.158,1.661 0.475,2.133 0.249,0.374 0.593,0.665 1.031,0.872 0.439,0.208 0.936,0.311 1.491,0.311 0.379,0 0.697,-0.04 0.954,-0.12 0.257,-0.081 0.493,-0.208 0.708,-0.382 0.215,-0.173 0.474,-0.447 0.775,-0.821 v 1.098 z M 33.214,4.818 c 0.285,0 0.501,0.023 0.646,0.067 0.145,0.044 0.28,0.123 0.405,0.237 V 3.604 C 34.104,3.671 33.774,3.705 33.276,3.705 H 31.968 V 1.198 h -0.654 v 0.211 c 0,0.944 -0.207,1.634 -0.622,2.07 -0.348,0.39 -0.81,0.634 -1.386,0.732 v 0.607 h 1.152 v 3.714 c 0,0.54 0.016,0.944 0.047,1.214 0.031,0.27 0.088,0.492 0.171,0.666 0.083,0.174 0.213,0.354 0.389,0.541 0.472,0.493 1.046,0.739 1.721,0.739 0.212,0 0.415,-0.033 0.607,-0.101 L 34.265,10.4 c -0.249,0.094 -0.483,0.14 -0.701,0.14 -0.55,0 -0.981,-0.192 -1.292,-0.576 -0.12,-0.15 -0.2,-0.332 -0.241,-0.545 C 31.989,9.207 31.968,8.864 31.968,8.392 V 4.818 Z M 26.566,0.895 c -0.208,0.202 -0.312,0.446 -0.312,0.732 0,0.295 0.1,0.546 0.3,0.751 0.2,0.205 0.445,0.307 0.736,0.307 0.301,0 0.551,-0.102 0.751,-0.307 0.2,-0.205 0.3,-0.456 0.3,-0.751 0,-0.281 -0.099,-0.523 -0.296,-0.728 -0.198,-0.205 -0.439,-0.308 -0.724,-0.308 -0.296,0 -0.548,0.101 -0.755,0.304 m 0.537,2.81 h -1.168 c 0.218,0.166 0.367,0.304 0.448,0.413 0.08,0.109 0.132,0.241 0.155,0.397 0.024,0.155 0.035,0.438 0.035,0.848 v 4.446 c 0,0.404 -0.011,0.686 -0.035,0.844 -0.023,0.159 -0.075,0.292 -0.155,0.401 -0.081,0.109 -0.23,0.247 -0.448,0.413 h 2.787 c -0.213,-0.172 -0.359,-0.31 -0.44,-0.417 -0.08,-0.106 -0.133,-0.245 -0.159,-0.416 -0.026,-0.172 -0.039,-0.447 -0.039,-0.825 V 3.386 c -0.198,0.213 -0.525,0.319 -0.981,0.319 m -3.02,1.113 c 0.285,0 0.5,0.023 0.646,0.067 0.145,0.044 0.28,0.123 0.405,0.237 V 3.604 C 24.973,3.671 24.643,3.705 24.145,3.705 H 22.837 V 1.198 h -0.654 v 0.211 c 0,0.944 -0.208,1.634 -0.623,2.07 -0.347,0.39 -0.809,0.634 -1.385,0.732 v 0.607 h 1.152 v 3.714 c 0,0.54 0.015,0.944 0.046,1.214 0.032,0.27 0.089,0.492 0.172,0.666 0.083,0.174 0.213,0.354 0.389,0.541 0.472,0.493 1.046,0.739 1.72,0.739 0.213,0 0.416,-0.033 0.608,-0.101 L 25.134,10.4 c -0.25,0.094 -0.483,0.14 -0.701,0.14 -0.55,0 -0.981,-0.192 -1.292,-0.576 -0.12,-0.15 -0.2,-0.332 -0.242,-0.545 C 22.858,9.207 22.837,8.864 22.837,8.392 V 4.818 Z M 16.984,3.479 c -0.68,0 -1.268,0.09 -1.763,0.269 -0.496,0.179 -0.876,0.44 -1.141,0.782 -0.264,0.343 -0.397,0.748 -0.397,1.215 0,0.358 0.077,0.663 0.23,0.915 0.153,0.251 0.409,0.484 0.767,0.696 0.358,0.213 0.864,0.436 1.518,0.67 0.877,0.316 1.414,0.545 1.611,0.685 0.255,0.182 0.382,0.436 0.382,0.763 0,0.337 -0.174,0.619 -0.522,0.844 -0.348,0.226 -0.778,0.339 -1.292,0.339 -0.358,0 -0.697,-0.032 -1.016,-0.097 -0.319,-0.065 -0.648,-0.173 -0.985,-0.323 -0.337,-0.151 -0.719,-0.358 -1.144,-0.623 l 0.576,1.658 c 0.451,0.166 0.83,0.278 1.136,0.335 0.307,0.057 0.683,0.085 1.129,0.085 0.753,0 1.408,-0.106 1.966,-0.319 0.558,-0.212 0.989,-0.519 1.292,-0.918 0.304,-0.4 0.456,-0.859 0.456,-1.378 0,-0.571 -0.218,-1.062 -0.654,-1.472 C 18.915,7.408 18.672,7.247 18.405,7.123 18.137,6.998 17.679,6.83 17.031,6.617 16.574,6.471 16.218,6.342 15.964,6.227 15.71,6.113 15.526,5.991 15.412,5.862 15.297,5.732 15.24,5.587 15.24,5.426 c 0,-0.281 0.142,-0.508 0.425,-0.682 0.282,-0.173 0.657,-0.26 1.124,-0.26 0.654,0 1.345,0.218 2.071,0.654 V 3.705 C 18.346,3.555 17.721,3.479 16.984,3.479 M 5.42,3.705 H 4.337 c 0.218,0.166 0.368,0.304 0.448,0.413 0.08,0.109 0.132,0.241 0.156,0.397 0.023,0.155 0.035,0.438 0.035,0.848 v 4.446 c 0,0.404 -0.012,0.686 -0.035,0.844 -0.024,0.159 -0.076,0.292 -0.156,0.401 -0.08,0.109 -0.23,0.247 -0.448,0.413 H 7.124 C 6.912,11.295 6.765,11.157 6.685,11.05 6.604,10.944 6.551,10.805 6.525,10.634 6.499,10.462 6.486,10.187 6.486,9.809 V 6.414 C 6.486,5.989 6.561,5.67 6.712,5.457 6.878,5.228 7.101,5.049 7.381,4.92 7.662,4.79 7.97,4.725 8.308,4.725 c 0.347,0 0.676,0.066 0.985,0.198 0.308,0.133 0.543,0.305 0.704,0.518 0.13,0.156 0.223,0.365 0.28,0.627 0.057,0.262 0.086,0.616 0.086,1.063 v 2.678 c 0,0.363 -0.013,0.633 -0.039,0.809 -0.026,0.177 -0.081,0.321 -0.163,0.432 -0.084,0.112 -0.234,0.251 -0.452,0.417 h 2.81 C 12.224,11.233 12.043,11.032 11.978,10.863 11.913,10.695 11.881,10.343 11.881,9.809 V 6.951 C 11.881,6.313 11.852,5.834 11.795,5.515 11.738,5.196 11.634,4.917 11.484,4.678 11.323,4.445 11.11,4.236 10.846,4.052 10.581,3.867 10.276,3.726 9.931,3.627 9.586,3.529 9.242,3.479 8.899,3.479 8.401,3.479 7.965,3.577 7.592,3.771 7.218,3.966 6.823,4.305 6.408,4.787 V 3.386 C 6.211,3.599 5.881,3.705 5.42,3.705 M 0.697,10.443 C 0.658,10.71 0.584,10.921 0.475,11.074 0.366,11.227 0.208,11.358 0,11.467 H 3.192 C 2.979,11.358 2.821,11.228 2.717,11.077 2.613,10.927 2.542,10.717 2.503,10.447 2.464,10.177 2.445,9.801 2.445,9.318 V 2.537 C 2.445,2.055 2.464,1.679 2.503,1.409 2.542,1.139 2.613,0.929 2.717,0.778 2.821,0.628 2.979,0.498 3.192,0.389 H 0 c 0.208,0.109 0.366,0.24 0.475,0.393 0.109,0.153 0.183,0.363 0.222,0.63 0.039,0.268 0.058,0.643 0.058,1.125 v 6.781 c 0,0.483 -0.019,0.858 -0.058,1.125"
   id="path20" />
</svg>
