<?xml version="1.0" encoding="UTF-8" standalone="no"?>
<svg
   viewBox="0 0 257.15029 27.890382"
   version="1.1"
   id="svg57"
   sodipodi:docname="ua_libraries.svg"
   inkscape:version="1.1.2 (0a00cf5339, 2022-02-04)"
   width="257.1503"
   height="27.890381"
   xmlns:inkscape="http://www.inkscape.org/namespaces/inkscape"
   xmlns:sodipodi="http://sodipodi.sourceforge.net/DTD/sodipodi-0.dtd"
   xmlns="http://www.w3.org/2000/svg"
   xmlns:svg="http://www.w3.org/2000/svg">
  <sodipodi:namedview
     id="namedview59"
     pagecolor="#ffffff"
     bordercolor="#666666"
     borderopacity="1.0"
     inkscape:pageshadow="2"
     inkscape:pageopacity="0.0"
     inkscape:pagecheckerboard="0"
     showgrid="false"
     inkscape:zoom="3.1230931"
     inkscape:cx="16.009769"
     inkscape:cy="10.40635"
     inkscape:window-width="1920"
     inkscape:window-height="1005"
     inkscape:window-x="0"
     inkscape:window-y="0"
     inkscape:window-maximized="1"
     inkscape:current-layer="svg57"
     fit-margin-top="0"
     fit-margin-left="0"
     fit-margin-right="0"
     fit-margin-bottom="0" />
  <defs
     id="defs4">
    <style
       id="style2">.cls-1{fill:#fff;}.cls-2{fill:#bd2036;}.cls-3{fill:#00275b;}</style>
  </defs>
  <path
     class="cls-3"
     d="m 15.03,21.45 v -2.2 A 7.67,7.67 0 0 1 8.76,21.96 8.5,8.5 0 0 1 4.76,21.03 5.86,5.86 0 0 1 2.17,18.48 6,6 0 0 1 1.71,17.33 8.26,8.26 0 0 1 1.49,15.98 c 0,-0.53 -0.06,-1.24 -0.06,-2.12 V 4.65 A 16.16,16.16 0 0 0 1.32,2.53 2.91,2.91 0 0 0 0.9,1.34 2.49,2.49 0 0 0 0,0.61 H 6 A 2.62,2.62 0 0 0 5.12,1.34 3,3 0 0 0 4.71,2.52 14.55,14.55 0 0 0 4.59,4.65 v 9.21 a 9.92,9.92 0 0 0 0.23,2.43 4.18,4.18 0 0 0 0.87,1.61 4.54,4.54 0 0 0 1.77,1.3 5.73,5.73 0 0 0 2.26,0.45 6,6 0 0 0 2.63,-0.59 5,5 0 0 0 1.93,-1.59 3.42,3.42 0 0 0 0.52,-1 A 6.28,6.28 0 0 0 14.94,15 V 4.65 A 14.55,14.55 0 0 0 14.82,2.52 3,3 0 0 0 14.41,1.34 2.62,2.62 0 0 0 13.53,0.61 h 6 A 2.31,2.31 0 0 0 18.65,1.34 2.63,2.63 0 0 0 18.22,2.51 14.43,14.43 0 0 0 18.1,4.65 v 12.76 a 14.52,14.52 0 0 0 0.12,2.14 2.73,2.73 0 0 0 0.43,1.17 2.51,2.51 0 0 0 0.88,0.73 z"
     id="path18" />
  <path
     class="cls-3"
     d="m 25.64,6.24 v 2.64 a 8.15,8.15 0 0 1 2.23,-1.91 5.19,5.19 0 0 1 2.46,-0.55 6.84,6.84 0 0 1 1.94,0.28 5.45,5.45 0 0 1 1.72,0.8 4.7,4.7 0 0 1 1.21,1.18 4.45,4.45 0 0 1 0.58,1.57 16.36,16.36 0 0 1 0.16,2.7 v 5.38 a 6.44,6.44 0 0 0 0.19,2 3.2,3.2 0 0 0 1,1.13 h -5.28 a 4.55,4.55 0 0 0 0.85,-0.78 1.85,1.85 0 0 0 0.3,-0.82 11,11 0 0 0 0.08,-1.52 v -5 a 10.37,10.37 0 0 0 -0.16,-2 2.8,2.8 0 0 0 -0.53,-1.18 3.26,3.26 0 0 0 -1.33,-1 4.64,4.64 0 0 0 -1.85,-0.38 4.11,4.11 0 0 0 -1.74,0.37 2.67,2.67 0 0 0 -1.69,2.81 v 6.39 a 11.08,11.08 0 0 0 0.08,1.55 1.65,1.65 0 0 0 0.29,0.79 5.48,5.48 0 0 0 0.83,0.78 h -5.24 a 4.13,4.13 0 0 0 0.84,-0.78 1.58,1.58 0 0 0 0.29,-0.75 11.49,11.49 0 0 0 0.07,-1.59 V 9.97 A 11.37,11.37 0 0 0 22.87,8.37 1.66,1.66 0 0 0 22.58,7.62 4.45,4.45 0 0 0 21.74,6.85 h 2 A 2.41,2.41 0 0 0 25.6,6.24 Z"
     id="path20" />
  <path
     class="cls-3"
     d="M 41.64,0.99 A 1.79,1.79 0 0 1 43,1.57 1.9,1.9 0 0 1 43.56,2.93 2,2 0 0 1 42.99,4.35 1.89,1.89 0 0 1 41.58,4.93 1.86,1.86 0 0 1 40.2,4.35 2,2 0 0 1 39.63,2.93 1.85,1.85 0 0 1 40.22,1.56 2,2 0 0 1 41.64,0.99 Z m 1.43,5.25 v 12.09 a 11.08,11.08 0 0 0 0.08,1.55 1.77,1.77 0 0 0 0.3,0.79 5,5 0 0 0 0.83,0.78 h -5.25 a 4.13,4.13 0 0 0 0.84,-0.78 1.58,1.58 0 0 0 0.3,-0.75 14,14 0 0 0 0.06,-1.59 V 9.97 A 13.9,13.9 0 0 0 40.17,8.37 1.67,1.67 0 0 0 39.87,7.62 4.45,4.45 0 0 0 39.03,6.85 h 2.2 a 2.37,2.37 0 0 0 1.84,-0.61 z"
     id="path22" />
  <path
     class="cls-3"
     d="M 54.42,18.75 58.2,10.29 A 5.09,5.09 0 0 0 58.74,8.43 1.58,1.58 0 0 0 58.54,7.59 3.48,3.48 0 0 0 57.72,6.85 h 4.49 l -7.19,15.77 a 20.14,20.14 0 0 1 -1.95,-1.26 4.07,4.07 0 0 1 -1,-1 10.57,10.57 0 0 1 -0.81,-1.65 L 47.54,10.15 A 16.72,16.72 0 0 0 46.72,8.47 2.87,2.87 0 0 0 46.09,7.73 11.07,11.07 0 0 0 44.83,6.89 h 2.11 a 5.52,5.52 0 0 0 1.35,-0.12 2.83,2.83 0 0 0 0.95,-0.46 4.9,4.9 0 0 0 0.4,1.47 l 4.74,11 z"
     id="path24" />
  <path
     class="cls-3"
     d="m 66,11.86 h 8.19 q -0.68,-3.55 -4,-3.55 a 4.1,4.1 0 0 0 -2.71,0.92 4.48,4.48 0 0 0 -1.45,2.63 z m 11.51,2 H 65.87 a 6.87,6.87 0 0 0 0.86,3.17 5.09,5.09 0 0 0 2.2,2 7.3,7.3 0 0 0 3.28,0.71 10.69,10.69 0 0 0 1.91,-0.17 7.33,7.33 0 0 0 1.72,-0.51 10.56,10.56 0 0 0 1.67,-0.94 l -1.71,3 a 11.65,11.65 0 0 1 -1.43,0.45 10.4,10.4 0 0 1 -1.43,0.24 c -0.51,0 -1,0.07 -1.52,0.07 a 10.59,10.59 0 0 1 -4.64,-1 7.54,7.54 0 0 1 -3.14,-2.74 7.25,7.25 0 0 1 -1.14,-4 7.72,7.72 0 0 1 0.32,-2.18 8.45,8.45 0 0 1 0.9,-2 7.69,7.69 0 0 1 1.36,-1.66 7,7 0 0 1 2.35,-1.37 8.91,8.91 0 0 1 2.93,-0.46 7.91,7.91 0 0 1 2.87,0.51 6.71,6.71 0 0 1 2.28,1.44 6.36,6.36 0 0 1 1.51,2.19 6.93,6.93 0 0 1 0.54,2.76 v 0.51 z"
     id="path26" />
  <path
     class="cls-3"
     d="m 84.64,21.45 h -5.25 a 4.55,4.55 0 0 0 0.85,-0.78 1.58,1.58 0 0 0 0.29,-0.75 13.39,13.39 0 0 0 0.07,-1.59 V 9.97 A 13.22,13.22 0 0 0 80.53,8.37 1.66,1.66 0 0 0 80.24,7.62 5,5 0 0 0 79.39,6.85 h 2.25 a 2.4,2.4 0 0 0 1.85,-0.61 v 2.61 a 4.79,4.79 0 0 1 1.58,-1.79 4,4 0 0 1 2.2,-0.62 6.39,6.39 0 0 1 1.1,0.12 v 2.91 a 2.06,2.06 0 0 0 -1.49,-0.51 3.84,3.84 0 0 0 -1.59,0.34 2.89,2.89 0 0 0 -1.14,1 5,5 0 0 0 -0.67,2.88 v 5.22 a 11.48,11.48 0 0 0 0.07,1.55 1.77,1.77 0 0 0 0.3,0.79 5,5 0 0 0 0.83,0.78 z"
     id="path28" />
  <path
     class="cls-3"
     d="m 99.83,6.85 v 2.69 a 7.58,7.58 0 0 0 -3.89,-1.23 4,4 0 0 0 -2.12,0.49 1.48,1.48 0 0 0 -0.8,1.28 1.21,1.21 0 0 0 0.32,0.82 2.93,2.93 0 0 0 1,0.69 18.13,18.13 0 0 0 2,0.73 25.3,25.3 0 0 1 2.59,1 5.36,5.36 0 0 1 1.36,0.9 3.7,3.7 0 0 1 1.24,2.77 4.21,4.21 0 0 1 -0.86,2.6 5.34,5.34 0 0 1 -2.43,1.72 10.4,10.4 0 0 1 -3.7,0.6 11.71,11.71 0 0 1 -2.13,-0.16 12.37,12.37 0 0 1 -2.13,-0.63 l -1.04,-3.16 a 19.5,19.5 0 0 0 2.15,1.18 9.12,9.12 0 0 0 3.77,0.79 4.39,4.39 0 0 0 2.43,-0.64 1.86,1.86 0 0 0 1,-1.59 1.67,1.67 0 0 0 -0.72,-1.44 17,17 0 0 0 -3,-1.28 16.81,16.81 0 0 1 -2.85,-1.26 4,4 0 0 1 -1.45,-1.32 3.3,3.3 0 0 1 -0.43,-1.72 3.59,3.59 0 0 1 0.75,-2.28 4.51,4.51 0 0 1 2.14,-1.47 9.73,9.73 0 0 1 3.32,-0.51 12.38,12.38 0 0 1 3.53,0.43 z"
     id="path30" />
  <path
     class="cls-3"
     d="m 105.64,0.99 a 1.79,1.79 0 0 1 1.36,0.58 1.9,1.9 0 0 1 0.56,1.36 2,2 0 0 1 -0.57,1.42 1.89,1.89 0 0 1 -1.41,0.58 1.86,1.86 0 0 1 -1.38,-0.58 2,2 0 0 1 -0.57,-1.42 1.85,1.85 0 0 1 0.59,-1.37 2,2 0 0 1 1.42,-0.57 z m 1.44,5.25 v 12.09 a 11.48,11.48 0 0 0 0.07,1.55 1.77,1.77 0 0 0 0.3,0.79 5,5 0 0 0 0.83,0.78 h -5.24 a 4.13,4.13 0 0 0 0.84,-0.78 1.58,1.58 0 0 0 0.3,-0.75 14,14 0 0 0 0.06,-1.59 V 9.97 a 13.9,13.9 0 0 0 -0.06,-1.6 1.67,1.67 0 0 0 -0.3,-0.75 4.45,4.45 0 0 0 -0.84,-0.77 h 2.2 a 2.41,2.41 0 0 0 1.85,-0.61 z"
     id="path32" />
  <path
     class="cls-3"
     d="m 114.43,8.94 v 6.72 a 11.06,11.06 0 0 0 0.12,1.94 2.38,2.38 0 0 0 0.45,1 3,3 0 0 0 2.44,1.09 3.61,3.61 0 0 0 1.31,-0.27 l -1.64,2.24 a 3.33,3.33 0 0 1 -1.14,0.19 4.51,4.51 0 0 1 -4,-2.4 4,4 0 0 1 -0.32,-1.26 21.22,21.22 0 0 1 -0.09,-2.28 v -7 h -2.17 V 7.8 A 4.38,4.38 0 0 0 112,6.42 5.51,5.51 0 0 0 113.17,2.52 V 2.13 h 1.23 v 4.72 h 2.46 a 5.58,5.58 0 0 0 1.86,-0.2 v 2.86 a 1.89,1.89 0 0 0 -0.76,-0.44 4.13,4.13 0 0 0 -1.21,-0.13 z"
     id="path34" />
  <path
     class="cls-3"
     d="m 129.08,18.62 3.33,-8.42 a 5.34,5.34 0 0 0 0.48,-1.92 1.73,1.73 0 0 0 -0.92,-1.43 h 4.44 l -6.77,16.09 a 11.6,11.6 0 0 1 -1.1,2.19 7.09,7.09 0 0 1 -1.33,1.42 5.74,5.74 0 0 1 -1.94,1 7.76,7.76 0 0 1 -2.35,0.34 8.43,8.43 0 0 1 -1.69,-0.16 20.06,20.06 0 0 1 -2.15,-0.64 l 2.87,-2.03 a 3.6,3.6 0 0 0 1.79,0.55 2.91,2.91 0 0 0 2.1,-0.9 7.57,7.57 0 0 0 1.62,-2.71 l 0.3,-0.83 c -0.37,-0.37 -0.62,-0.64 -0.76,-0.8 a 2.62,2.62 0 0 1 -0.38,-0.54 c -0.11,-0.19 -0.27,-0.53 -0.48,-1 l -4.19,-9.15 a 8.69,8.69 0 0 0 -1.11,-1.92 3.3,3.3 0 0 0 -1.26,-0.89 l 3.06,-0.14 a 2.57,2.57 0 0 1 0.95,0.11 c 0.18,0 0.4,0.33 0.66,0.92 l 4.83,10.88 z"
     id="path36" />
  <path
     class="cls-3"
     d="m 149.94,4.65 v 14.22 a 29,29 0 0 0 4.27,0.32 9.17,9.17 0 0 0 2.95,-0.41 11.16,11.16 0 0 0 2.8,-1.53 l -1.68,4.2 h -12.94 a 2.59,2.59 0 0 0 0.9,-0.74 2.72,2.72 0 0 0 0.41,-1.19 14.41,14.41 0 0 0 0.11,-2.11 V 4.65 a 14.57,14.57 0 0 0 -0.11,-2.12 2.77,2.77 0 0 0 -0.41,-1.19 2.57,2.57 0 0 0 -0.9,-0.73 h 6 a 2.21,2.21 0 0 0 -0.89,0.73 2.81,2.81 0 0 0 -0.41,1.18 16.44,16.44 0 0 0 -0.11,2.13 z"
     id="path38" />
  <path
     class="cls-3"
     d="m 163.55,0.99 a 1.79,1.79 0 0 1 1.36,0.58 1.9,1.9 0 0 1 0.56,1.36 2,2 0 0 1 -0.56,1.42 1.93,1.93 0 0 1 -1.42,0.58 1.87,1.87 0 0 1 -1.38,-0.58 2,2 0 0 1 -0.57,-1.42 1.85,1.85 0 0 1 0.59,-1.37 2,2 0 0 1 1.42,-0.57 z m 1.44,5.25 v 12.09 a 11.48,11.48 0 0 0 0.07,1.55 1.77,1.77 0 0 0 0.3,0.79 5,5 0 0 0 0.83,0.78 h -5.25 a 4.55,4.55 0 0 0 0.85,-0.78 1.69,1.69 0 0 0 0.29,-0.75 14,14 0 0 0 0.06,-1.59 V 9.97 a 13.9,13.9 0 0 0 -0.06,-1.6 1.79,1.79 0 0 0 -0.29,-0.75 5,5 0 0 0 -0.85,-0.77 h 2.2 a 2.4,2.4 0 0 0 1.85,-0.61 z"
     id="path40" />
  <path
     class="cls-3"
     d="m 172.64,9.48 1.75,-2.66 a 7.82,7.82 0 0 1 1.08,-0.31 5.77,5.77 0 0 1 1.09,-0.09 6.31,6.31 0 0 1 2.64,0.55 6.57,6.57 0 0 1 2.15,1.55 6.94,6.94 0 0 1 1.42,2.32 8.14,8.14 0 0 1 0.5,2.88 8,8 0 0 1 -1.13,4.26 7.46,7.46 0 0 1 -3.18,2.87 10.53,10.53 0 0 1 -4.72,1 26.89,26.89 0 0 1 -6.09,-0.57 1.85,1.85 0 0 0 0.77,-0.82 3.66,3.66 0 0 0 0.2,-1.4 V 3.73 a 13.22,13.22 0 0 0 -0.07,-1.6 1.66,1.66 0 0 0 -0.29,-0.75 4.8,4.8 0 0 0 -0.84,-0.77 h 2.18 A 2.57,2.57 0 0 0 171.96,0 v 19.25 a 11.21,11.21 0 0 0 2.69,0.37 5.37,5.37 0 0 0 3.99,-1.42 5.13,5.13 0 0 0 1.45,-3.85 6.69,6.69 0 0 0 -0.6,-2.91 4.59,4.59 0 0 0 -1.65,-2 4.3,4.3 0 0 0 -2.42,-0.71 5.19,5.19 0 0 0 -1.31,0.15 7.67,7.67 0 0 0 -1.41,0.57 z"
     id="path42" />
  <path
     class="cls-3"
     d="m 190.39,21.45 h -5.24 a 4.13,4.13 0 0 0 0.84,-0.78 1.58,1.58 0 0 0 0.29,-0.75 11.49,11.49 0 0 0 0.07,-1.59 V 9.97 a 11.37,11.37 0 0 0 -0.07,-1.6 1.66,1.66 0 0 0 -0.29,-0.75 4.45,4.45 0 0 0 -0.84,-0.77 h 2.19 a 2.4,2.4 0 0 0 1.85,-0.61 v 2.61 a 4.73,4.73 0 0 1 1.6,-1.81 4,4 0 0 1 2.19,-0.62 6.29,6.29 0 0 1 1.1,0.12 v 2.91 a 2.06,2.06 0 0 0 -1.49,-0.51 3.84,3.84 0 0 0 -1.59,0.34 2.89,2.89 0 0 0 -1.14,1 5,5 0 0 0 -0.67,2.88 v 5.22 a 11.48,11.48 0 0 0 0.07,1.55 1.77,1.77 0 0 0 0.3,0.79 5,5 0 0 0 0.83,0.78 z"
     id="path44" />
  <path
     class="cls-3"
     d="m 203.96,17.61 v -4.08 a 10,10 0 0 1 -0.94,0.4 l -0.9,0.27 c -0.33,0.09 -1.06,0.26 -2.2,0.53 -1.53,0.33 -2.28,1.18 -2.28,2.43 a 2.27,2.27 0 0 0 0.89,1.89 3.92,3.92 0 0 0 2.47,0.69 8.42,8.42 0 0 0 2.37,-0.41 l -1.86,2.35 a 7.55,7.55 0 0 1 -1.74,0.19 5.4,5.4 0 0 1 -3.75,-1.23 4.52,4.52 0 0 1 -1.62,-3.51 3.87,3.87 0 0 1 0.49,-1.87 3.08,3.08 0 0 1 1.29,-1.31 15.24,15.24 0 0 1 4.16,-1.23 9.9,9.9 0 0 0 2.86,-0.86 1.45,1.45 0 0 0 0.71,-1.29 1.67,1.67 0 0 0 -0.38,-1.07 2.46,2.46 0 0 0 -1.08,-0.71 4.74,4.74 0 0 0 -1.57,-0.25 6.76,6.76 0 0 0 -1.87,0.26 17.1,17.1 0 0 0 -2.45,1 l 2.08,-3.17 a 11.32,11.32 0 0 1 2.2,-0.21 q 4,0 5.35,2.12 a 4,4 0 0 1 0.52,1.36 18.25,18.25 0 0 1 0.11,2.42 v 4.09 a 7.86,7.86 0 0 0 0.13,1.81 1.7,1.7 0 0 0 0.69,0.84 3.24,3.24 0 0 0 1.89,0.51 l -1.38,2.06 a 12.75,12.75 0 0 1 -1.77,-0.22 3.9,3.9 0 0 1 -1.2,-0.49 2.27,2.27 0 0 1 -1,-1.12 7.12,7.12 0 0 1 -0.24,-2.21 z"
     id="path46" />
  <path
     class="cls-3"
     d="m 215.83,21.45 h -5.19 a 4.13,4.13 0 0 0 0.84,-0.78 1.58,1.58 0 0 0 0.29,-0.75 11.49,11.49 0 0 0 0.07,-1.59 V 9.97 a 11.37,11.37 0 0 0 -0.07,-1.6 1.66,1.66 0 0 0 -0.29,-0.75 4.45,4.45 0 0 0 -0.84,-0.77 h 2.19 a 2.4,2.4 0 0 0 1.85,-0.61 v 2.61 a 4.73,4.73 0 0 1 1.6,-1.81 4,4 0 0 1 2.19,-0.62 6.29,6.29 0 0 1 1.1,0.12 v 2.91 a 2.06,2.06 0 0 0 -1.49,-0.51 3.8,3.8 0 0 0 -1.58,0.34 2.85,2.85 0 0 0 -1.15,1 5,5 0 0 0 -0.67,2.88 v 5.22 a 13.46,13.46 0 0 0 0.07,1.55 1.77,1.77 0 0 0 0.3,0.79 5.48,5.48 0 0 0 0.83,0.78 z"
     id="path48" />
  <path
     class="cls-3"
     d="m 223.64,0.99 a 1.79,1.79 0 0 1 1.36,0.58 1.9,1.9 0 0 1 0.56,1.36 2,2 0 0 1 -0.57,1.42 2,2 0 0 1 -2.8,0 2,2 0 0 1 -0.56,-1.42 1.85,1.85 0 0 1 0.59,-1.37 2,2 0 0 1 1.42,-0.57 z m 1.43,5.25 v 12.09 a 11.08,11.08 0 0 0 0.08,1.55 1.77,1.77 0 0 0 0.3,0.79 5.3,5.3 0 0 0 0.82,0.78 h -5.24 a 4.13,4.13 0 0 0 0.84,-0.78 1.69,1.69 0 0 0 0.3,-0.75 14,14 0 0 0 0.06,-1.59 V 9.97 a 13.9,13.9 0 0 0 -0.06,-1.6 1.8,1.8 0 0 0 -0.3,-0.75 4.45,4.45 0 0 0 -0.84,-0.77 h 2.2 a 2.37,2.37 0 0 0 1.84,-0.61 z"
     id="path50" />
  <path
     class="cls-3"
     d="m 231.53,11.86 h 8.19 q -0.68,-3.55 -4,-3.55 a 4.12,4.12 0 0 0 -2.71,0.92 4.54,4.54 0 0 0 -1.45,2.63 z m 11.52,2 H 231.4 a 6.87,6.87 0 0 0 0.87,3.17 5.06,5.06 0 0 0 2.19,2 7.31,7.31 0 0 0 3.29,0.71 10.86,10.86 0 0 0 1.91,-0.17 7.48,7.48 0 0 0 1.72,-0.53 11.52,11.52 0 0 0 1.67,-0.94 l -1.72,3 a 12.09,12.09 0 0 1 -1.42,0.45 10.81,10.81 0 0 1 -1.44,0.24 c -0.5,0 -1,0.07 -1.52,0.07 a 10.55,10.55 0 0 1 -4.63,-1 7.51,7.51 0 0 1 -3.2,-2.75 7.33,7.33 0 0 1 -1.13,-4 7.71,7.71 0 0 1 0.31,-2.18 8.11,8.11 0 0 1 0.91,-2 7.14,7.14 0 0 1 1.36,-1.66 6.8,6.8 0 0 1 2.35,-1.37 8.85,8.85 0 0 1 2.92,-0.46 7.87,7.87 0 0 1 2.87,0.51 6.85,6.85 0 0 1 2.29,1.44 6.47,6.47 0 0 1 1.5,2.19 6.77,6.77 0 0 1 0.55,2.76 v 0.51 z"
     id="path52" />
  <path
     class="cls-3"
     d="m 255.43,6.85 v 2.69 a 7.6,7.6 0 0 0 -3.89,-1.23 4,4 0 0 0 -2.12,0.49 1.48,1.48 0 0 0 -0.78,1.26 1.21,1.21 0 0 0 0.32,0.82 2.93,2.93 0 0 0 1,0.69 18.13,18.13 0 0 0 2,0.73 24,24 0 0 1 2.58,1 5.24,5.24 0 0 1 1.37,0.9 3.7,3.7 0 0 1 1.24,2.77 4.21,4.21 0 0 1 -0.86,2.6 5.34,5.34 0 0 1 -2.43,1.72 10.4,10.4 0 0 1 -3.7,0.6 11.71,11.71 0 0 1 -2.13,-0.16 12.37,12.37 0 0 1 -2.13,-0.63 l -1.06,-3.14 a 18.69,18.69 0 0 0 2.16,1.18 8.84,8.84 0 0 0 1.85,0.6 9,9 0 0 0 1.91,0.19 4.39,4.39 0 0 0 2.43,-0.64 1.88,1.88 0 0 0 1,-1.59 1.69,1.69 0 0 0 -0.71,-1.44 17.59,17.59 0 0 0 -3,-1.28 16.81,16.81 0 0 1 -2.85,-1.26 4,4 0 0 1 -1.45,-1.32 3.21,3.21 0 0 1 -0.43,-1.72 3.59,3.59 0 0 1 0.75,-2.28 4.51,4.51 0 0 1 2.14,-1.47 9.73,9.73 0 0 1 3.32,-0.51 12.38,12.38 0 0 1 3.53,0.43 z"
     id="path54" />
</svg>
